Hack-Bold.ufo
<glyph name="parenright" format="1">
  <advance width="1233"/>
  <unicode hex="0029"/>
  <outline>
    <contour>
      <point x="409" y="-270" type="line" name="av01"/>
      <point x="496" y="-111"/>
      <point x="562" y="45" name="dh01"/>
      <point x="605" y="196" type="curve" smooth="yes"/>
      <point x="648" y="345" name="at01"/>
      <point x="669" y="494"/>
      <point x="669" y="643" type="curve" smooth="yes"/>
      <point x="669" y="794" name="dh02"/>
      <point x="648" y="943"/>
      <point x="605" y="1091" type="curve" smooth="yes" name="av02"/>
      <point x="562" y="1238"/>
      <point x="498" y="1393"/>
      <point x="409" y="1554" type="curve" name="sh01"/>
      <point x="637" y="1554" type="line"/>
      <point x="743" y="1401"/>
      <point x="822" y="1250"/>
      <point x="873" y="1101" type="curve" smooth="yes"/>
      <point x="925" y="949"/>
      <point x="950" y="792"/>
      <point x="950" y="641" type="curve" smooth="yes"/>
      <point x="950" y="488"/>
      <point x="924" y="336"/>
      <point x="873" y="186" type="curve" smooth="yes"/>
      <point x="820" y="30"/>
      <point x="742" y="-117"/>
      <point x="637" y="-270" type="curve"/>
    </contour>
  </outline>
</glyph>
<glyph name="eight" format="1">
  <advance width="1233"/>
  <unicode hex="0038"/>
  <outline>
    <contour>
      <point x="617" y="-29" type="curve" smooth="yes" name="dv01"/>
      <point x="453" y="-29"/>
      <point x="336" y="13" name="dh01"/>
      <point x="256" y="88" type="curve" smooth="yes"/>
      <point x="171" y="167" name="ih02"/>
      <point x="129" y="279"/>
      <point x="129" y="414" type="curve" smooth="yes" name="ih01"/>
      <point x="129" y="515"/>
      <point x="153" y="591" name="at01"/>
      <point x="200" y="656" type="curve" smooth="yes"/>
      <point x="247" y="721" name="dh04"/>
      <point x="313" y="766"/>
      <point x="397" y="791" type="curve" name="ih03"/>
      <point x="322" y="817"/>
      <point x="264" y="858" name="sh02"/>
      <point x="225" y="914" type="curve" smooth="yes"/>
      <point x="186" y="970"/>
      <point x="166" y="1036" name="dv04"/>
      <point x="166" y="1121" type="curve" smooth="yes"/>
      <point x="166" y="1242" name="dh03"/>
      <point x="206" y="1340"/>
      <point x="287" y="1412" type="curve" smooth="yes" name="sv01"/>
      <point x="368" y="1484"/>
      <point x="477" y="1520" name="sh01"/>
      <point x="616" y="1520" type="curve" smooth="yes"/>
      <point x="755" y="1520"/>
      <point x="865" y="1484" name="dv02"/>
      <point x="946" y="1412" type="curve" smooth="yes"/>
      <point x="1027" y="1340" name="ih04"/>
      <point x="1067" y="1243"/>
      <point x="1067" y="1120" type="curve" smooth="yes" name="dv03"/>
      <point x="1067" y="1038"/>
      <point x="1048" y="970" name="dh02"/>
      <point x="1009" y="915" type="curve" smooth="yes" name="hr01"/>
      <point x="970" y="859"/>
      <point x="914" y="818"/>
      <point x="840" y="791" type="curve" name="sh03"/>
      <point x="921" y="766"/>
      <point x="986" y="721"/>
      <point x="1034" y="655" type="curve" smooth="yes"/>
      <point x="1081" y="590"/>
      <point x="1104" y="514"/>
      <point x="1104" y="414" type="curve" smooth="yes"/>
      <point x="1104" y="279"/>
      <point x="1062" y="167"/>
      <point x="977" y="88" type="curve" smooth="yes"/>
      <point x="892" y="10"/>
      <point x="772" y="-29"/>
    </contour>
    <contour>
      <point x="616" y="903" type="curve" smooth="yes"/>
      <point x="675" y="903"/>
      <point x="721" y="920"/>
      <point x="755" y="955" type="curve" smooth="yes"/>
      <point x="788" y="990"/>
      <point x="805" y="1036"/>
      <point x="805" y="1093" type="curve" smooth="yes"/>
      <point x="805" y="1152"/>
      <point x="788" y="1199"/>
      <point x="755" y="1232" type="curve" smooth="yes" name="hr02"/>
      <point x="724" y="1263"/>
      <point x="677" y="1282"/>
      <point x="616" y="1282" type="curve" smooth="yes"/>
      <point x="559" y="1282"/>
      <point x="513" y="1265"/>
      <point x="479" y="1231" type="curve" smooth="yes"/>
      <point x="445" y="1197"/>
      <point x="428" y="1151"/>
      <point x="428" y="1093" type="curve" smooth="yes"/>
      <point x="428" y="1036"/>
      <point x="445" y="990"/>
      <point x="479" y="955" type="curve" smooth="yes" name="hr03"/>
      <point x="515" y="918"/>
      <point x="560" y="903"/>
    </contour>
    <contour>
      <point x="616" y="209" type="curve" smooth="yes"/>
      <point x="680" y="209"/>
      <point x="736" y="229"/>
      <point x="777" y="272" type="curve" smooth="yes"/>
      <point x="816" y="311"/>
      <point x="838" y="369"/>
      <point x="838" y="440" type="curve" smooth="yes"/>
      <point x="838" y="507"/>
      <point x="818" y="561"/>
      <point x="777" y="604" type="curve" smooth="yes"/>
      <point x="740" y="643"/>
      <point x="687" y="666"/>
      <point x="616" y="666" type="curve" smooth="yes"/>
      <point x="552" y="666"/>
      <point x="497" y="647"/>
      <point x="456" y="604" type="curve" smooth="yes"/>
      <point x="415" y="563"/>
      <point x="395" y="508"/>
      <point x="395" y="439" type="curve" smooth="yes" name="hr04"/>
      <point x="395" y="371"/>
      <point x="415" y="314"/>
      <point x="456" y="271" type="curve" smooth="yes"/>
      <point x="492" y="234"/>
      <point x="548" y="209"/>
    </contour>
  </outline>
</glyph>
<glyph name="at" format="1">
  <advance width="1233"/>
  <unicode hex="0040"/>
  <outline>
    <contour>
      <point x="767" y="-319" type="curve" smooth="yes" name="dv01"/>
      <point x="539" y="-319"/>
      <point x="354" y="-242" name="dh01"/>
      <point x="214" y="-86" type="curve" smooth="yes"/>
      <point x="75" y="69" name="dv04"/>
      <point x="6" y="279"/>
      <point x="6" y="546" type="curve" smooth="yes"/>
      <point x="6" y="802" name="dh06"/>
      <point x="68" y="1007" name="dh05"/>
      <point x="193" y="1163" type="curve" smooth="yes" name="iv01"/>
      <point x="318" y="1319"/>
      <point x="484" y="1395" name="dv05"/>
      <point x="683" y="1395" type="curve" smooth="yes"/>
      <point x="840" y="1395" name="dh03"/>
      <point x="953" y="1348"/>
      <point x="1033" y="1264" type="curve" smooth="yes" name="dv08"/>
      <point x="1117" y="1176"/>
      <point x="1159" y="1056" name="sh01"/>
      <point x="1159" y="905" type="curve" smooth="yes"/>
      <point x="1159" y="135" type="line"/>
      <point x="963" y="135" type="line" name="dv03"/>
      <point x="963" y="217" type="line"/>
      <point x="934" y="177" name="dh02"/>
      <point x="905" y="155"/>
      <point x="874" y="140" type="curve" smooth="yes" name="dv02"/>
      <point x="840" y="123"/>
      <point x="798" y="115"/>
      <point x="749" y="115" type="curve" smooth="yes"/>
      <point x="640" y="115"/>
      <point x="553" y="154"/>
      <point x="486" y="233" type="curve" smooth="yes" name="dv06"/>
      <point x="419" y="312"/>
      <point x="385" y="417" name="sh02"/>
      <point x="385" y="546" type="curve" smooth="yes"/>
      <point x="385" y="678" name="dv07"/>
      <point x="420" y="780"/>
      <point x="485" y="856" type="curve" smooth="yes" name="dh04"/>
      <point x="552" y="934"/>
      <point x="639" y="973"/>
      <point x="748" y="973" type="curve" smooth="yes"/>
      <point x="793" y="973" name="sh03"/>
      <point x="838" y="966"/>
      <point x="875" y="949" type="curve" smooth="yes"/>
      <point x="910" y="933"/>
      <point x="942" y="906"/>
      <point x="963" y="877" type="curve"/>
      <point x="963" y="918" type="line" smooth="yes"/>
      <point x="963" y="1009"/>
      <point x="938" y="1079"/>
      <point x="889" y="1128" type="curve" smooth="yes"/>
      <point x="838" y="1177"/>
      <point x="768" y="1202"/>
      <point x="679" y="1202" type="curve" smooth="yes"/>
      <point x="535" y="1202"/>
      <point x="419" y="1136"/>
      <point x="336" y="1020" type="curve" smooth="yes"/>
      <point x="255" y="907"/>
      <point x="205" y="743"/>
      <point x="205" y="544" type="curve" smooth="yes"/>
      <point x="205" y="329"/>
      <point x="264" y="165"/>
      <point x="356" y="54" type="curve" smooth="yes"/>
      <point x="460" y="-70"/>
      <point x="604" y="-127"/>
      <point x="757" y="-127" type="curve" smooth="yes"/>
      <point x="810" y="-127"/>
      <point x="866" y="-120"/>
      <point x="917" y="-104" type="curve" smooth="yes"/>
      <point x="965" y="-89"/>
      <point x="1014" y="-64"/>
      <point x="1061" y="-33" type="curve"/>
      <point x="1153" y="-209" type="line"/>
      <point x="1097" y="-248"/>
      <point x="1033" y="-276"/>
      <point x="977" y="-292" type="curve" smooth="yes"/>
      <point x="918" y="-309"/>
      <point x="848" y="-319"/>
    </contour>
    <contour>
      <point x="782" y="303" type="curve" smooth="yes"/>
      <point x="841" y="303"/>
      <point x="888" y="324"/>
      <point x="922" y="367" type="curve" smooth="yes"/>
      <point x="956" y="410"/>
      <point x="973" y="469"/>
      <point x="973" y="545" type="curve" smooth="yes"/>
      <point x="973" y="620"/>
      <point x="956" y="679"/>
      <point x="922" y="722" type="curve" smooth="yes"/>
      <point x="888" y="765"/>
      <point x="841" y="786"/>
      <point x="782" y="786" type="curve" smooth="yes"/>
      <point x="715" y="786"/>
      <point x="674" y="761"/>
      <point x="643" y="722" type="curve" smooth="yes"/>
      <point x="609" y="679"/>
      <point x="592" y="620"/>
      <point x="592" y="545" type="curve" smooth="yes"/>
      <point x="592" y="469"/>
      <point x="609" y="410"/>
      <point x="643" y="367" type="curve" smooth="yes"/>
      <point x="674" y="328"/>
      <point x="715" y="303"/>
    </contour>
  </outline>
</glyph>
<glyph name="Z" format="1">
  <advance width="1233"/>
  <unicode hex="005A"/>
  <outline>
    <contour>
      <point x="94" y="244" type="line" name="hr00"/>
      <point x="765" y="1233" type="line" name="sv01"/>
      <point x="116" y="1233" type="line"/>
      <point x="116" y="1493" type="line" name="at01"/>
      <point x="1126" y="1493" type="line"/>
      <point x="1126" y="1249" type="line"/>
      <point x="434" y="260" type="line" name="sv02"/>
      <point x="1140" y="260" type="line"/>
      <point x="1140" y="0" type="line" name="ab01"/>
      <point x="94" y="0" type="line"/>
    </contour>
  </outline>
</glyph>
<glyph name="b" format="1">
  <advance width="1233"/>
  <unicode hex="0062"/>
  <outline>
    <contour>
      <point x="740" y="-29" type="curve" smooth="yes" name="dv01"/>
      <point x="671" y="-29"/>
      <point x="612" y="-13" name="sh02"/>
      <point x="563" y="20" type="curve" smooth="yes" name="ab01"/>
      <point x="513" y="53" name="sh01"/>
      <point x="473" y="101" name="at01"/>
      <point x="442" y="166" type="curve" name="sh03"/>
      <point x="413" y="0" type="line" name="ih01"/>
      <point x="150" y="0" type="line"/>
      <point x="150" y="1556" type="line" name="at02"/>
      <point x="442" y="1556" type="line"/>
      <point x="442" y="961" type="line" name="sh04"/>
      <point x="478" y="1024"/>
      <point x="520" y="1070"/>
      <point x="568" y="1101" type="curve" smooth="yes" name="dv02"/>
      <point x="615" y="1132"/>
      <point x="667" y="1147" name="ah02"/>
      <point x="735" y="1147" type="curve" smooth="yes"/>
      <point x="863" y="1147" name="sv01"/>
      <point x="965" y="1095"/>
      <point x="1036" y="995" type="curve" smooth="yes" name="sh05"/>
      <point x="1104" y="899"/>
      <point x="1143" y="755"/>
      <point x="1143" y="560" type="curve" smooth="yes" name="ah01"/>
      <point x="1143" y="377" name="sh06"/>
      <point x="1109" y="228"/>
      <point x="1037" y="124" type="curve" smooth="yes"/>
      <point x="965" y="21"/>
      <point x="865" y="-29"/>
    </contour>
    <contour>
      <point x="647" y="211" type="curve" smooth="yes"/>
      <point x="710" y="211"/>
      <point x="760" y="242"/>
      <point x="796" y="303" type="curve" smooth="yes"/>
      <point x="832" y="364"/>
      <point x="850" y="448"/>
      <point x="850" y="557" type="curve" smooth="yes"/>
      <point x="850" y="665"/>
      <point x="832" y="750"/>
      <point x="796" y="811" type="curve" smooth="yes"/>
      <point x="760" y="872"/>
      <point x="710" y="903"/>
      <point x="647" y="903" type="curve" smooth="yes" name="hr01"/>
      <point x="584" y="903"/>
      <point x="534" y="872"/>
      <point x="497" y="811" type="curve" smooth="yes"/>
      <point x="460" y="750"/>
      <point x="442" y="666"/>
      <point x="442" y="557" type="curve" smooth="yes"/>
      <point x="442" y="448"/>
      <point x="460" y="364"/>
      <point x="497" y="303" type="curve" smooth="yes"/>
      <point x="534" y="242"/>
      <point x="584" y="211"/>
    </contour>
  </outline>
</glyph>
<glyph name="c" format="1">
  <advance width="1233"/>
  <unicode hex="0063"/>
  <outline>
    <contour>
      <point x="702" y="-29" type="curve" smooth="yes" name="dv01"/>
      <point x="527" y="-29"/>
      <point x="391" y="23" name="dh01"/>
      <point x="294" y="127" type="curve" smooth="yes"/>
      <point x="197" y="232" name="dv04"/>
      <point x="148" y="376"/>
      <point x="148" y="559" type="curve" smooth="yes"/>
      <point x="148" y="743"/>
      <point x="197" y="888"/>
      <point x="295" y="993" type="curve" smooth="yes" name="dv03"/>
      <point x="393" y="1097"/>
      <point x="528" y="1149" name="dh02"/>
      <point x="699" y="1149" type="curve" smooth="yes"/>
      <point x="760" y="1149" name="dv02"/>
      <point x="819" y="1142"/>
      <point x="875" y="1128" type="curve" smooth="yes"/>
      <point x="930" y="1114"/>
      <point x="986" y="1092"/>
      <point x="1041" y="1063" type="curve"/>
      <point x="1041" y="795" type="line"/>
      <point x="998" y="832"/>
      <point x="948" y="861"/>
      <point x="901" y="880" type="curve" smooth="yes"/>
      <point x="854" y="899"/>
      <point x="798" y="909"/>
      <point x="741" y="909" type="curve" smooth="yes"/>
      <point x="641" y="909"/>
      <point x="571" y="877"/>
      <point x="522" y="818" type="curve" smooth="yes"/>
      <point x="471" y="757"/>
      <point x="445" y="670"/>
      <point x="445" y="559" type="curve" smooth="yes"/>
      <point x="445" y="448"/>
      <point x="471" y="362"/>
      <point x="522" y="301" type="curve" smooth="yes"/>
      <point x="573" y="241"/>
      <point x="646" y="211"/>
      <point x="742" y="211" type="curve" smooth="yes"/>
      <point x="798" y="211"/>
      <point x="851" y="221"/>
      <point x="901" y="240" type="curve" smooth="yes"/>
      <point x="944" y="256"/>
      <point x="994" y="283"/>
      <point x="1041" y="326" type="curve"/>
      <point x="1041" y="57" type="line"/>
      <point x="988" y="26"/>
      <point x="938" y="8"/>
      <point x="882" y="-7" type="curve" smooth="yes"/>
      <point x="826" y="-22"/>
      <point x="771" y="-29"/>
    </contour>
  </outline>
</glyph>
<glyph name="e" format="1">
  <advance width="1233"/>
  <unicode hex="0065"/>
  <outline>
    <contour>
      <point x="665" y="-29" type="curve" smooth="yes" name="dv01"/>
      <point x="470" y="-29"/>
      <point x="331" y="21"/>
      <point x="231" y="122" type="curve" smooth="yes"/>
      <point x="132" y="223" name="at01"/>
      <point x="82" y="367"/>
      <point x="82" y="554" type="curve" smooth="yes"/>
      <point x="82" y="741"/>
      <point x="129" y="881" name="dv03"/>
      <point x="225" y="988" type="curve" smooth="yes"/>
      <point x="320" y="1094" name="dv02"/>
      <point x="450" y="1147"/>
      <point x="617" y="1147" type="curve" smooth="yes"/>
      <point x="774" y="1147"/>
      <point x="907" y="1101"/>
      <point x="1002" y="1000" type="curve" smooth="yes"/>
      <point x="1097" y="899"/>
      <point x="1139" y="756"/>
      <point x="1139" y="584" type="curve" smooth="yes" name="sv01"/>
      <point x="1139" y="465" type="line"/>
      <point x="380" y="465" type="line" name="dv04"/>
      <point x="381" y="376"/>
      <point x="407" y="311"/>
      <point x="458" y="268" type="curve" smooth="yes"/>
      <point x="509" y="225"/>
      <point x="586" y="203"/>
      <point x="687" y="203" type="curve" smooth="yes"/>
      <point x="754" y="203"/>
      <point x="821" y="213"/>
      <point x="887" y="232" type="curve"/>
      <point x="948" y="251"/>
      <point x="1016" y="279"/>
      <point x="1092" y="324" type="curve"/>
      <point x="1092" y="55" type="line"/>
      <point x="1024" y="27"/>
      <point x="955" y="6"/>
      <point x="884" y="-8" type="curve" smooth="yes"/>
      <point x="812" y="-23"/>
      <point x="737" y="-29"/>
    </contour>
    <contour>
      <point x="844" y="685" type="line"/>
      <point x="843" y="763"/>
      <point x="823" y="822"/>
      <point x="785" y="861" type="curve" smooth="yes"/>
      <point x="749" y="898"/>
      <point x="692" y="920"/>
      <point x="617" y="920" type="curve" smooth="yes"/>
      <point x="548" y="920"/>
      <point x="494" y="900"/>
      <point x="454" y="859" type="curve" smooth="yes"/>
      <point x="414" y="818"/>
      <point x="390" y="759"/>
      <point x="383" y="684" type="curve"/>
    </contour>
  </outline>
</glyph>
<glyph name="cent" format="1">
  <advance width="1233"/>
  <unicode hex="00A2"/>
  <outline>
    <contour>
      <point x="655" y="-25" type="line" name="dh03"/>
      <point x="498" y="-10"/>
      <point x="375" y="49" name="dh01"/>
      <point x="284" y="154" type="curve" smooth="yes"/>
      <point x="193" y="259" name="sh01"/>
      <point x="147" y="395" name="av01"/>
      <point x="147" y="562" type="curve" smooth="yes" name="sh02"/>
      <point x="147" y="735"/>
      <point x="195" y="870"/>
      <point x="284" y="973" type="curve" smooth="yes" name="sh04"/>
      <point x="375" y="1077" name="iv01"/>
      <point x="498" y="1134"/>
      <point x="655" y="1145" type="curve" name="sh05"/>
      <point x="655" y="1432" type="line"/>
      <point x="797" y="1432" type="line"/>
      <point x="797" y="1145" type="line" name="iv02"/>
      <point x="838" y="1142" name="sh03"/>
      <point x="878" y="1135"/>
      <point x="917" y="1124" type="curve" smooth="yes" name="dh04"/>
      <point x="964" y="1111" name="av02"/>
      <point x="997" y="1096"/>
      <point x="1036" y="1077" type="curve" name="sh06"/>
      <point x="1036" y="809" type="line"/>
      <point x="997" y="838" name="dh02"/>
      <point x="952" y="863"/>
      <point x="920" y="876" type="curve" smooth="yes"/>
      <point x="885" y="891"/>
      <point x="840" y="902"/>
      <point x="797" y="907" type="curve" name="hr02"/>
      <point x="797" y="215" type="line"/>
      <point x="841" y="218"/>
      <point x="884" y="229"/>
      <point x="921" y="244" type="curve" smooth="yes"/>
      <point x="960" y="260"/>
      <point x="999" y="282"/>
      <point x="1036" y="311" type="curve" name="hr03"/>
      <point x="1036" y="43" type="line"/>
      <point x="997" y="22"/>
      <point x="964" y="8"/>
      <point x="924" y="-3" type="curve" smooth="yes"/>
      <point x="882" y="-15"/>
      <point x="840" y="-22"/>
      <point x="797" y="-25" type="curve" name="hr04"/>
      <point x="797" y="-313" type="line"/>
      <point x="655" y="-313" type="line"/>
    </contour>
    <contour>
      <point x="655" y="907" type="line"/>
      <point x="580" y="898"/>
      <point x="521" y="864"/>
      <point x="480" y="804" type="curve" smooth="yes"/>
      <point x="440" y="745"/>
      <point x="418" y="665"/>
      <point x="418" y="560" type="curve" smooth="yes"/>
      <point x="418" y="460"/>
      <point x="438" y="378"/>
      <point x="481" y="314" type="curve" smooth="yes"/>
      <point x="523" y="252"/>
      <point x="581" y="219"/>
      <point x="655" y="215" type="curve"/>
    </contour>
  </outline>
</glyph>
<glyph name="yen" format="1">
  <advance width="1233"/>
  <unicode hex="00A5"/>
  <outline>
    <contour>
      <point x="469" y="438" type="line" name="dh01"/>
      <point x="57" y="438" type="line"/>
      <point x="57" y="627" type="line"/>
      <point x="465" y="627" type="line" name="dv01"/>
      <point x="379" y="778" type="line" name="dv02"/>
      <point x="57" y="778" type="line"/>
      <point x="57" y="965" type="line"/>
      <point x="281" y="965" type="line" name="dv03"/>
      <point x="8" y="1493" type="line" name="at01"/>
      <point x="326" y="1493" type="line"/>
      <point x="616" y="893" type="line" name="ih01"/>
      <point x="907" y="1493" type="line" name="at02"/>
      <point x="1225" y="1493" type="line"/>
      <point x="952" y="965" type="line" name="sv01"/>
      <point x="1176" y="965" type="line"/>
      <point x="1176" y="778" type="line" name="sv02"/>
      <point x="854" y="778" type="line"/>
      <point x="768" y="627" type="line" name="sv03"/>
      <point x="1176" y="627" type="line"/>
      <point x="1176" y="438" type="line" name="sv04"/>
      <point x="764" y="438" type="line" name="dh02"/>
      <point x="764" y="0" type="line" name="ab01"/>
      <point x="469" y="0" type="line"/>
    </contour>
  </outline>
</glyph>
<glyph name="Ccedilla" format="1">
  <advance width="1233"/>
  <unicode hex="00C7"/>
  <outline>
    <contour>
      <point x="774" y="1255" type="curve" smooth="yes" name="sv01"/>
      <point x="667" y="1255"/>
      <point x="586" y="1212" name="sh02"/>
      <point x="531" y="1127" type="curve" smooth="yes"/>
      <point x="476" y="1040" name="sv02"/>
      <point x="448" y="913" name="sh04"/>
      <point x="448" y="745" type="curve" smooth="yes" name="iv01"/>
      <point x="448" y="577"/>
      <point x="476" y="450" name="sh05"/>
      <point x="531" y="365" type="curve" smooth="yes" name="ih01"/>
      <point x="586" y="279"/>
      <point x="667" y="236" name="sh03"/>
      <point x="774" y="236" type="curve" smooth="yes"/>
      <point x="825" y="236" name="dv01"/>
      <point x="875" y="247" name="sv03"/>
      <point x="923" y="269" type="curve" smooth="yes"/>
      <point x="970" y="290" name="ah02"/>
      <point x="1013" y="319"/>
      <point x="1070" y="371" type="curve" name="dv02"/>
      <point x="1070" y="43" type="line"/>
      <point x="1023" y="19"/>
      <point x="974" y="1"/>
      <point x="923" y="-11" type="curve" smooth="yes" name="ab01"/>
      <point x="895" y="-18"/>
      <point x="867" y="-22" name="sh01"/>
      <point x="836" y="-25" type="curve"/>
      <point x="864" y="-60" name="at01"/>
      <point x="885" y="-91" name="sh06"/>
      <point x="898" y="-115" type="curve" smooth="yes"/>
      <point x="916" y="-149" name="iv02"/>
      <point x="925" y="-184" name="sh07"/>
      <point x="925" y="-221" type="curve" smooth="yes"/>
      <point x="925" y="-282" name="ah01"/>
      <point x="902" y="-327" name="sh08"/>
      <point x="863" y="-356" type="curve" smooth="yes"/>
      <point x="828" y="-383"/>
      <point x="774" y="-401"/>
      <point x="677" y="-401" type="curve" smooth="yes"/>
      <point x="645" y="-401"/>
      <point x="610" y="-399"/>
      <point x="577" y="-395" type="curve" smooth="yes"/>
      <point x="526" y="-388"/>
      <point x="504" y="-382"/>
      <point x="473" y="-375" type="curve"/>
      <point x="473" y="-219" type="line"/>
      <point x="504" y="-230"/>
      <point x="532" y="-238"/>
      <point x="560" y="-245" type="curve" smooth="yes"/>
      <point x="588" y="-251"/>
      <point x="614" y="-254"/>
      <point x="638" y="-254" type="curve" smooth="yes"/>
      <point x="676" y="-254"/>
      <point x="706" y="-246"/>
      <point x="729" y="-231" type="curve" smooth="yes"/>
      <point x="750" y="-216"/>
      <point x="761" y="-195"/>
      <point x="761" y="-170" type="curve" smooth="yes"/>
      <point x="761" y="-151"/>
      <point x="754" y="-128"/>
      <point x="740" y="-101" type="curve" smooth="yes"/>
      <point x="729" y="-80"/>
      <point x="714" y="-55"/>
      <point x="693" y="-26" type="curve"/>
      <point x="524" y="-13"/>
      <point x="393" y="53"/>
      <point x="300" y="170" type="curve" smooth="yes"/>
      <point x="194" y="303"/>
      <point x="141" y="494"/>
      <point x="141" y="745" type="curve" smooth="yes"/>
      <point x="141" y="996"/>
      <point x="194" y="1188"/>
      <point x="300" y="1321" type="curve" smooth="yes"/>
      <point x="407" y="1454"/>
      <point x="560" y="1520"/>
      <point x="759" y="1520" type="curve" smooth="yes"/>
      <point x="819" y="1520"/>
      <point x="872" y="1514"/>
      <point x="924" y="1502" type="curve" smooth="yes"/>
      <point x="977" y="1490"/>
      <point x="1025" y="1472"/>
      <point x="1070" y="1448" type="curve"/>
      <point x="1070" y="1120" type="line"/>
      <point x="1010" y="1176"/>
      <point x="965" y="1204"/>
      <point x="922" y="1223" type="curve" smooth="yes"/>
      <point x="871" y="1246"/>
      <point x="823" y="1255"/>
    </contour>
  </outline>
</glyph>
<glyph name="Otilde" format="1">
  <advance width="1233"/>
  <unicode hex="00D5"/>
  <outline>
    <contour>
      <point x="268" y="1618" type="line" smooth="yes"/>
      <point x="268" y="1691"/>
      <point x="289" y="1750" name="sv01"/>
      <point x="322" y="1789" type="curve" smooth="yes"/>
      <point x="359" y="1833"/>
      <point x="411" y="1854"/>
      <point x="466" y="1854" type="curve" smooth="yes"/>
      <point x="491" y="1854"/>
      <point x="515" y="1850"/>
      <point x="539" y="1842" type="curve" smooth="yes" name="sh01"/>
      <point x="559" y="1835"/>
      <point x="586" y="1824"/>
      <point x="614" y="1805" type="curve" smooth="yes"/>
      <point x="674" y="1766" type="line" smooth="yes"/>
      <point x="685" y="1759" name="dv03"/>
      <point x="696" y="1753"/>
      <point x="715" y="1745" type="curve" smooth="yes"/>
      <point x="728" y="1740"/>
      <point x="738" y="1737"/>
      <point x="750" y="1737" type="curve" smooth="yes"/>
      <point x="774" y="1737"/>
      <point x="793" y="1747" name="sh02"/>
      <point x="806" y="1767" type="curve" smooth="yes" name="sv02"/>
      <point x="819" y="1786" name="sh03"/>
      <point x="825" y="1815" name="dv01"/>
      <point x="825" y="1854" type="curve"/>
      <point x="965" y="1854" type="line" name="dh01"/>
      <point x="965" y="1851"/>
      <point x="965" y="1846" name="at01"/>
      <point x="964" y="1839" type="curve" smooth="yes"/>
      <point x="963" y="1834" name="dh04"/>
      <point x="963" y="1830"/>
      <point x="963" y="1827" type="curve" smooth="yes"/>
      <point x="963" y="1754" name="dv02"/>
      <point x="945" y="1696"/>
      <point x="910" y="1653" type="curve" smooth="yes" name="dh03"/>
      <point x="871" y="1606"/>
      <point x="823" y="1588" name="sv03"/>
      <point x="768" y="1588" type="curve" smooth="yes"/>
      <point x="744" y="1588" name="dh02"/>
      <point x="720" y="1592"/>
      <point x="696" y="1599" type="curve" smooth="yes"/>
      <point x="669" y="1607"/>
      <point x="646" y="1618" name="sh04"/>
      <point x="618" y="1637" type="curve"/>
      <point x="564" y="1671" type="line"/>
      <point x="552" y="1678" type="line" smooth="yes" name="hr01"/>
      <point x="524" y="1693"/>
      <point x="502" y="1704"/>
      <point x="479" y="1704" type="curve" smooth="yes"/>
      <point x="458" y="1704"/>
      <point x="441" y="1694"/>
      <point x="428" y="1674" type="curve" smooth="yes"/>
      <point x="415" y="1653"/>
      <point x="408" y="1627"/>
      <point x="408" y="1594" type="curve" smooth="yes"/>
      <point x="408" y="1588" type="line"/>
      <point x="268" y="1588" type="line"/>
    </contour>
    <contour>
      <point x="616" y="-29" type="curve" smooth="yes"/>
      <point x="436" y="-29"/>
      <point x="309" y="41"/>
      <point x="225" y="166" type="curve" smooth="yes"/>
      <point x="136" y="297"/>
      <point x="92" y="490"/>
      <point x="92" y="745" type="curve" smooth="yes"/>
      <point x="92" y="1000"/>
      <point x="136" y="1192"/>
      <point x="225" y="1325" type="curve" smooth="yes"/>
      <point x="317" y="1461"/>
      <point x="453" y="1520"/>
      <point x="616" y="1520" type="curve" smooth="yes"/>
      <point x="791" y="1520"/>
      <point x="921" y="1453"/>
      <point x="1009" y="1324" type="curve" smooth="yes"/>
      <point x="1097" y="1193"/>
      <point x="1141" y="1000"/>
      <point x="1141" y="745" type="curve" smooth="yes"/>
      <point x="1141" y="490"/>
      <point x="1097" y="298"/>
      <point x="1009" y="167" type="curve" smooth="yes"/>
      <point x="924" y="40"/>
      <point x="795" y="-29"/>
    </contour>
    <contour>
      <point x="616" y="236" type="curve" smooth="yes"/>
      <point x="692" y="236"/>
      <point x="747" y="276"/>
      <point x="782" y="357" type="curve" smooth="yes"/>
      <point x="817" y="436"/>
      <point x="834" y="566"/>
      <point x="834" y="746" type="curve" smooth="yes"/>
      <point x="834" y="925"/>
      <point x="817" y="1055"/>
      <point x="782" y="1134" type="curve" smooth="yes"/>
      <point x="747" y="1215"/>
      <point x="692" y="1255"/>
      <point x="616" y="1255" type="curve" smooth="yes"/>
      <point x="537" y="1255"/>
      <point x="486" y="1214"/>
      <point x="451" y="1134" type="curve" smooth="yes"/>
      <point x="416" y="1054"/>
      <point x="399" y="934"/>
      <point x="399" y="747" type="curve" smooth="yes"/>
      <point x="399" y="566"/>
      <point x="416" y="436"/>
      <point x="451" y="357" type="curve" smooth="yes"/>
      <point x="486" y="276"/>
      <point x="541" y="236"/>
    </contour>
  </outline>
</glyph>
<glyph name="Uacute" format="1">
  <advance width="1233"/>
  <unicode hex="00DA"/>
  <outline>
    <contour>
      <point x="668" y="1852" type="line" name="av01"/>
      <point x="952" y="1852" type="line" name="ih01"/>
      <point x="666" y="1588" type="line"/>
      <point x="469" y="1588" type="line" name="ih02"/>
    </contour>
    <contour>
      <point x="616" y="-29" type="curve" smooth="yes" name="dv01"/>
      <point x="438" y="-29"/>
      <point x="309" y="17" name="sh02"/>
      <point x="228" y="109" type="curve" smooth="yes" name="at01"/>
      <point x="147" y="202"/>
      <point x="106" y="349" name="sh03"/>
      <point x="106" y="551" type="curve" smooth="yes"/>
      <point x="106" y="1493" type="line" name="dv02"/>
      <point x="401" y="1493" type="line"/>
      <point x="401" y="477" type="line" smooth="yes" name="ah02"/>
      <point x="401" y="401" name="at02"/>
      <point x="422" y="341"/>
      <point x="458" y="301" type="curve" smooth="yes" name="sh01"/>
      <point x="497" y="258"/>
      <point x="552" y="238"/>
      <point x="616" y="238" type="curve" smooth="yes" name="ah01"/>
      <point x="680" y="238" name="sh04"/>
      <point x="735" y="258"/>
      <point x="774" y="301" type="curve" smooth="yes"/>
      <point x="810" y="341"/>
      <point x="831" y="401"/>
      <point x="831" y="477" type="curve" smooth="yes"/>
      <point x="831" y="1493" type="line"/>
      <point x="1126" y="1493" type="line"/>
      <point x="1126" y="551" type="line" smooth="yes"/>
      <point x="1126" y="348"/>
      <point x="1086" y="200"/>
      <point x="1005" y="109" type="curve" smooth="yes"/>
      <point x="924" y="17"/>
      <point x="794" y="-29"/>
    </contour>
  </outline>
</glyph>
<glyph name="aring" format="1">
  <advance width="1233"/>
  <unicode hex="00E5"/>
  <outline>
    <contour>
      <point x="617" y="1249" type="curve" smooth="yes" name="dv06"/>
      <point x="541" y="1249"/>
      <point x="469" y="1277" name="ih01"/>
      <point x="414" y="1332" type="curve" smooth="yes"/>
      <point x="367" y="1379" name="dv04"/>
      <point x="332" y="1451"/>
      <point x="332" y="1535" type="curve" smooth="yes" name="dh04"/>
      <point x="332" y="1620"/>
      <point x="368" y="1690"/>
      <point x="415" y="1737" type="curve" smooth="yes" name="dv07"/>
      <point x="470" y="1792"/>
      <point x="540" y="1819" name="dh03"/>
      <point x="616" y="1819" type="curve" smooth="yes"/>
      <point x="699" y="1819" name="dv03"/>
      <point x="769" y="1786"/>
      <point x="818" y="1737" type="curve" smooth="yes" name="sh01"/>
      <point x="866" y="1689"/>
      <point x="901" y="1618"/>
      <point x="901" y="1534" type="curve" smooth="yes" name="dv01"/>
      <point x="901" y="1458"/>
      <point x="874" y="1389" name="dh01"/>
      <point x="819" y="1333" type="curve" smooth="yes"/>
      <point x="763" y="1277"/>
      <point x="693" y="1249" name="ih02"/>
    </contour>
    <contour>
      <point x="617" y="1403" type="curve" smooth="yes"/>
      <point x="653" y="1403" name="dv08"/>
      <point x="684" y="1416"/>
      <point x="710" y="1442" type="curve" smooth="yes" name="ih03"/>
      <point x="735" y="1467"/>
      <point x="748" y="1498"/>
      <point x="748" y="1534" type="curve" smooth="yes" name="dv09"/>
      <point x="748" y="1570"/>
      <point x="735" y="1601" name="sh02"/>
      <point x="709" y="1627" type="curve" name="sh03"/>
      <point x="682" y="1652" name="sh04"/>
      <point x="651" y="1665"/>
      <point x="616" y="1665" type="curve" smooth="yes" name="hr01"/>
      <point x="580" y="1665" name="ab01"/>
      <point x="549" y="1652"/>
      <point x="524" y="1627" type="curve" smooth="yes"/>
      <point x="498" y="1601" name="sh05"/>
      <point x="485" y="1570" name="ab02"/>
      <point x="485" y="1534" type="curve" smooth="yes"/>
      <point x="485" y="1497" name="dv02"/>
      <point x="498" y="1466"/>
      <point x="523" y="1441" type="curve" smooth="yes" name="sh06"/>
      <point x="544" y="1420" name="dv05"/>
      <point x="577" y="1403"/>
    </contour>
    <contour>
      <point x="494" y="-29" type="curve" smooth="yes" name="dh02"/>
      <point x="373" y="-29"/>
      <point x="274" y="4"/>
      <point x="202" y="72" type="curve" smooth="yes"/>
      <point x="131" y="139" name="sh07"/>
      <point x="95" y="233"/>
      <point x="95" y="354" type="curve" smooth="yes"/>
      <point x="95" y="482"/>
      <point x="134" y="580"/>
      <point x="222" y="644" type="curve" smooth="yes"/>
      <point x="307" y="706"/>
      <point x="438" y="737"/>
      <point x="615" y="737" type="curve" smooth="yes"/>
      <point x="818" y="737" type="line"/>
      <point x="818" y="786" type="line" smooth="yes"/>
      <point x="818" y="835"/>
      <point x="799" y="871"/>
      <point x="767" y="894" type="curve" smooth="yes"/>
      <point x="732" y="919"/>
      <point x="679" y="930"/>
      <point x="610" y="930" type="curve" smooth="yes"/>
      <point x="546" y="930"/>
      <point x="477" y="921"/>
      <point x="412" y="904" type="curve" smooth="yes"/>
      <point x="348" y="887"/>
      <point x="278" y="858"/>
      <point x="206" y="819" type="curve"/>
      <point x="206" y="1069" type="line"/>
      <point x="262" y="1092"/>
      <point x="336" y="1116"/>
      <point x="403" y="1128" type="curve"/>
      <point x="458" y="1139"/>
      <point x="540" y="1148"/>
      <point x="628" y="1148" type="curve" smooth="yes"/>
      <point x="815" y="1148"/>
      <point x="927" y="1102"/>
      <point x="997" y="1035" type="curve"/>
      <point x="1069" y="963"/>
      <point x="1109" y="852"/>
      <point x="1109" y="644" type="curve" smooth="yes"/>
      <point x="1109" y="570"/>
      <point x="1104" y="323"/>
      <point x="1104" y="274" type="curve" smooth="yes" name="hr02"/>
      <point x="1104" y="246"/>
      <point x="1105" y="216"/>
      <point x="1106" y="197" type="curve"/>
      <point x="1109" y="170"/>
      <point x="1110" y="142"/>
      <point x="1113" y="125" type="curve" smooth="yes"/>
      <point x="1117" y="98"/>
      <point x="1123" y="71"/>
      <point x="1127" y="58" type="curve" smooth="yes"/>
      <point x="1134" y="38"/>
      <point x="1144" y="15"/>
      <point x="1155" y="0" type="curve"/>
      <point x="865" y="0" type="line"/>
      <point x="853" y="20"/>
      <point x="842" y="43"/>
      <point x="837" y="58" type="curve" smooth="yes"/>
      <point x="833" y="71"/>
      <point x="827" y="98"/>
      <point x="824" y="125" type="curve"/>
      <point x="787" y="76"/>
      <point x="740" y="38"/>
      <point x="682" y="11" type="curve" smooth="yes"/>
      <point x="626" y="-16"/>
      <point x="570" y="-29"/>
    </contour>
    <contour>
      <point x="576" y="174" type="curve" smooth="yes"/>
      <point x="651" y="174"/>
      <point x="711" y="202"/>
      <point x="754" y="262" type="curve"/>
      <point x="797" y="319"/>
      <point x="818" y="401"/>
      <point x="818" y="506" type="curve" smooth="yes"/>
      <point x="818" y="526" type="line" name="hr03"/>
      <point x="701" y="526" type="line" smooth="yes"/>
      <point x="591" y="526"/>
      <point x="515" y="512"/>
      <point x="472" y="484" type="curve" smooth="yes"/>
      <point x="429" y="456"/>
      <point x="407" y="409"/>
      <point x="407" y="342" type="curve" smooth="yes"/>
      <point x="407" y="287"/>
      <point x="421" y="250"/>
      <point x="452" y="219" type="curve" smooth="yes"/>
      <point x="482" y="189"/>
      <point x="523" y="174"/>
    </contour>
  </outline>
</glyph>
<glyph name="Ccircumflex" format="1">
  <advance width="1233"/>
  <unicode hex="0108"/>
  <outline>
    <contour>
      <point x="465" y="1588" type="line" name="hr00"/>
      <point x="663" y="1749" type="line"/>
      <point x="862" y="1588" type="line"/>
      <point x="1040" y="1588" type="line"/>
      <point x="817" y="1852" type="line"/>
      <point x="508" y="1852" type="line"/>
      <point x="287" y="1588" type="line"/>
    </contour>
    <contour>
      <point x="1070" y="43" type="curve"/>
      <point x="1070" y="371" type="line"/>
      <point x="1014" y="320"/>
      <point x="971" y="290"/>
      <point x="923" y="269" type="curve" smooth="yes"/>
      <point x="875" y="247"/>
      <point x="825" y="236"/>
      <point x="774" y="236" type="curve" smooth="yes"/>
      <point x="559" y="236"/>
      <point x="448" y="409"/>
      <point x="448" y="745" type="curve" smooth="yes"/>
      <point x="448" y="1080"/>
      <point x="561" y="1255"/>
      <point x="774" y="1255" type="curve" smooth="yes"/>
      <point x="878" y="1255"/>
      <point x="967" y="1215"/>
      <point x="1070" y="1120" type="curve"/>
      <point x="1070" y="1448" type="line"/>
      <point x="979" y="1496"/>
      <point x="876" y="1520"/>
      <point x="759" y="1520" type="curve" smooth="yes"/>
      <point x="627" y="1520"/>
      <point x="515" y="1490"/>
      <point x="422" y="1431" type="curve"/>
      <point x="237" y="1311"/>
      <point x="141" y="1078"/>
      <point x="141" y="745" type="curve" smooth="yes"/>
      <point x="141" y="579"/>
      <point x="165" y="438"/>
      <point x="213" y="323" type="curve" smooth="yes"/>
      <point x="308" y="91"/>
      <point x="495" y="-29"/>
      <point x="759" y="-29" type="curve" smooth="yes"/>
      <point x="874" y="-29"/>
      <point x="977" y="-5"/>
    </contour>
  </outline>
</glyph>
<glyph name="emacron" format="1">
  <advance width="1233"/>
  <unicode hex="0113"/>
  <outline>
    <contour>
      <point x="330" y="1535" type="line" name="hr00"/>
      <point x="961" y="1535" type="line" name="dv04"/>
      <point x="961" y="1347" type="line" name="dv03"/>
      <point x="330" y="1347" type="line"/>
    </contour>
    <contour>
      <point x="669" y="-29" type="curve" smooth="yes" name="dv01"/>
      <point x="283" y="-29" name="sh01"/>
      <point x="82" y="178" name="at01"/>
      <point x="82" y="550" type="curve" smooth="yes" name="sh02"/>
      <point x="82" y="920"/>
      <point x="281" y="1147" name="sh03"/>
      <point x="621" y="1147" type="curve" smooth="yes" name="dv02"/>
      <point x="944" y="1147" name="ih01"/>
      <point x="1139" y="940"/>
      <point x="1139" y="584" type="curve" smooth="yes"/>
      <point x="1139" y="465" type="line" name="ah02"/>
      <point x="380" y="465" type="line" name="sv01"/>
      <point x="381" y="290" name="sh04"/>
      <point x="483" y="203" name="ah01"/>
      <point x="688" y="203" type="curve" smooth="yes" name="sh05"/>
      <point x="824" y="203"/>
      <point x="948" y="240"/>
      <point x="1092" y="324" type="curve"/>
      <point x="1092" y="55" type="line"/>
      <point x="959" y="-1"/>
      <point x="814" y="-29"/>
    </contour>
    <contour>
      <point x="844" y="685" type="line"/>
      <point x="841" y="840"/>
      <point x="761" y="920"/>
      <point x="620" y="920" type="curve" smooth="yes"/>
      <point x="476" y="920"/>
      <point x="399" y="837"/>
      <point x="383" y="684" type="curve"/>
    </contour>
  </outline>
</glyph>
<glyph name="gbreve" format="1">
  <advance width="1233"/>
  <unicode hex="011F"/>
  <outline>
    <contour>
      <point x="616" y="1299" type="curve" smooth="yes" name="dv01"/>
      <point x="515" y="1299"/>
      <point x="434" y="1323" name="sv01"/>
      <point x="374" y="1376" type="curve" smooth="yes"/>
      <point x="313" y="1431"/>
      <point x="285" y="1504" name="dv02"/>
      <point x="281" y="1596" type="curve"/>
      <point x="422" y="1596" type="line" name="sh01"/>
      <point x="429" y="1551"/>
      <point x="449" y="1515"/>
      <point x="483" y="1490" type="curve" smooth="yes"/>
      <point x="516" y="1465" name="ab01"/>
      <point x="561" y="1452" name="sh04"/>
      <point x="617" y="1452" type="curve" smooth="yes"/>
      <point x="672" y="1452" name="ih01"/>
      <point x="716" y="1464" name="sh05"/>
      <point x="749" y="1489" type="curve" smooth="yes" name="sv02"/>
      <point x="782" y="1514"/>
      <point x="802" y="1549" name="ah02"/>
      <point x="809" y="1596" type="curve" name="iv01"/>
      <point x="952" y="1596" type="line"/>
      <point x="948" y="1501" name="dv03"/>
      <point x="917" y="1427"/>
      <point x="860" y="1376" type="curve" smooth="yes" name="sh02"/>
      <point x="801" y="1325"/>
      <point x="720" y="1299" name="dv06"/>
    </contour>
    <contour>
      <point x="578" y="-424" type="curve" smooth="yes" name="sh06"/>
      <point x="519" y="-424" name="at01"/>
      <point x="458" y="-420"/>
      <point x="398" y="-411" type="curve" smooth="yes" name="sh07"/>
      <point x="338" y="-402"/>
      <point x="277" y="-388"/>
      <point x="215" y="-369" type="curve" name="dv04"/>
      <point x="215" y="-100" type="line"/>
      <point x="271" y="-131" name="sh08"/>
      <point x="329" y="-153"/>
      <point x="384" y="-168" type="curve" smooth="yes" name="dv05"/>
      <point x="441" y="-183"/>
      <point x="501" y="-190" name="sh03"/>
      <point x="556" y="-190" type="curve" smooth="yes" name="hr02"/>
      <point x="647" y="-190"/>
      <point x="705" y="-171" name="ah01"/>
      <point x="744" y="-132" type="curve" smooth="yes" name="sh09"/>
      <point x="783" y="-93"/>
      <point x="803" y="-32"/>
      <point x="803" y="51" type="curve" smooth="yes"/>
      <point x="803" y="172" type="line"/>
      <point x="774" y="119"/>
      <point x="736" y="79"/>
      <point x="689" y="53" type="curve" smooth="yes"/>
      <point x="642" y="27"/>
      <point x="584" y="14"/>
      <point x="517" y="14" type="curve" smooth="yes"/>
      <point x="388" y="14"/>
      <point x="286" y="64"/>
      <point x="211" y="164" type="curve" smooth="yes"/>
      <point x="135" y="264"/>
      <point x="98" y="398"/>
      <point x="98" y="573" type="curve" smooth="yes"/>
      <point x="98" y="748"/>
      <point x="136" y="888"/>
      <point x="211" y="993" type="curve"/>
      <point x="287" y="1097"/>
      <point x="387" y="1149"/>
      <point x="512" y="1149" type="curve" smooth="yes"/>
      <point x="577" y="1149"/>
      <point x="635" y="1134"/>
      <point x="685" y="1104" type="curve" smooth="yes"/>
      <point x="735" y="1074"/>
      <point x="774" y="1032"/>
      <point x="803" y="977" type="curve"/>
      <point x="832" y="1120" type="line"/>
      <point x="1096" y="1120" type="line"/>
      <point x="1096" y="84" type="line" smooth="yes"/>
      <point x="1096" y="-95"/>
      <point x="1056" y="-225"/>
      <point x="975" y="-305" type="curve" smooth="yes"/>
      <point x="894" y="-384"/>
      <point x="761" y="-424"/>
    </contour>
    <contour>
      <point x="596" y="246" type="curve" smooth="yes"/>
      <point x="658" y="246"/>
      <point x="708" y="276"/>
      <point x="746" y="337" type="curve" smooth="yes"/>
      <point x="783" y="397"/>
      <point x="803" y="473"/>
      <point x="803" y="577" type="curve" smooth="yes"/>
      <point x="803" y="676"/>
      <point x="785" y="756"/>
      <point x="746" y="819" type="curve" smooth="yes" name="hr03"/>
      <point x="708" y="879"/>
      <point x="658" y="909"/>
      <point x="596" y="909" type="curve" smooth="yes"/>
      <point x="535" y="909"/>
      <point x="485" y="879"/>
      <point x="448" y="819" type="curve" smooth="yes" name="hr04"/>
      <point x="410" y="759"/>
      <point x="391" y="679"/>
      <point x="391" y="578" type="curve" smooth="yes"/>
      <point x="391" y="477"/>
      <point x="410" y="396"/>
      <point x="448" y="336" type="curve" smooth="yes"/>
      <point x="485" y="276"/>
      <point x="535" y="246"/>
    </contour>
  </outline>
</glyph>
<glyph name="Hcircumflex" format="1">
  <advance width="1233"/>
  <unicode hex="0124"/>
  <outline>
    <contour>
      <point x="418" y="1588" type="line" name="hr00"/>
      <point x="616" y="1749" type="line"/>
      <point x="815" y="1588" type="line"/>
      <point x="993" y="1588" type="line"/>
      <point x="770" y="1852" type="line"/>
      <point x="461" y="1852" type="line"/>
      <point x="240" y="1588" type="line"/>
    </contour>
    <contour>
      <point x="432" y="0" type="line"/>
      <point x="432" y="664" type="line"/>
      <point x="801" y="664" type="line"/>
      <point x="801" y="0" type="line"/>
      <point x="1096" y="0" type="line"/>
      <point x="1096" y="1493" type="line"/>
      <point x="801" y="1493" type="line"/>
      <point x="801" y="924" type="line"/>
      <point x="432" y="924" type="line"/>
      <point x="432" y="1493" type="line"/>
      <point x="137" y="1493" type="line"/>
      <point x="137" y="0" type="line"/>
    </contour>
  </outline>
</glyph>
<glyph name="hbar" format="1">
  <advance width="1233"/>
  <unicode hex="0127"/>
  <outline>
    <contour>
      <point x="172" y="1270" type="line" name="sh01"/>
      <point x="12" y="1270" type="line"/>
      <point x="12" y="1434" type="line"/>
      <point x="172" y="1434" type="line" name="sh02"/>
      <point x="172" y="1556" type="line" name="at01"/>
      <point x="463" y="1556" type="line" name="sh04"/>
      <point x="463" y="1434" type="line" name="sv01"/>
      <point x="740" y="1434" type="line"/>
      <point x="740" y="1270" type="line" name="sv02"/>
      <point x="463" y="1270" type="line" name="sh03"/>
      <point x="463" y="952" type="line" name="iv01"/>
      <point x="506" y="1081" name="at02"/>
      <point x="610" y="1147"/>
      <point x="753" y="1147" type="curve" smooth="yes" name="sh05"/>
      <point x="961" y="1147" name="ah02"/>
      <point x="1071" y="1008"/>
      <point x="1071" y="727" type="curve" smooth="yes" name="sv03"/>
      <point x="1071" y="0" type="line" name="sh06"/>
      <point x="780" y="0" type="line" name="ab01"/>
      <point x="780" y="682" type="line" smooth="yes"/>
      <point x="780" y="839" name="ah01"/>
      <point x="738" y="907" name="sh07"/>
      <point x="639" y="907" type="curve" smooth="yes"/>
      <point x="522" y="907"/>
      <point x="463" y="810"/>
      <point x="463" y="641" type="curve" smooth="yes"/>
      <point x="463" y="0" type="line"/>
      <point x="172" y="0" type="line"/>
    </contour>
  </outline>
</glyph>
<glyph name="Itilde" format="1">
  <advance width="1233"/>
  <unicode hex="0128"/>
  <outline>
    <contour>
      <point x="268" y="1618" type="line" smooth="yes"/>
      <point x="268" y="1759" name="dv02"/>
      <point x="349" y="1854"/>
      <point x="463" y="1854" type="curve" smooth="yes"/>
      <point x="514" y="1854" name="dv04"/>
      <point x="566" y="1836" name="sv01"/>
      <point x="614" y="1805" type="curve" smooth="yes"/>
      <point x="674" y="1766" type="line" smooth="yes"/>
      <point x="701" y="1749"/>
      <point x="724" y="1737" name="dv03"/>
      <point x="751" y="1737" type="curve" smooth="yes"/>
      <point x="798" y="1737"/>
      <point x="825" y="1778"/>
      <point x="825" y="1854" type="curve" name="dv01"/>
      <point x="965" y="1854" type="line"/>
      <point x="965" y="1851" name="sv02"/>
      <point x="965" y="1846"/>
      <point x="964" y="1839" type="curve" smooth="yes" name="sv03"/>
      <point x="963" y="1832" name="dh01"/>
      <point x="963" y="1829" name="sv04"/>
      <point x="963" y="1826" type="curve" smooth="yes"/>
      <point x="963" y="1682" name="at01"/>
      <point x="887" y="1588"/>
      <point x="765" y="1588" type="curve" smooth="yes" name="sv05"/>
      <point x="718" y="1588" name="sv06"/>
      <point x="675" y="1601" name="dh02"/>
      <point x="618" y="1637" type="curve" smooth="yes" name="sv07"/>
      <point x="564" y="1671" type="line" name="ab01"/>
      <point x="552" y="1678" type="line" smooth="yes"/>
      <point x="525" y="1693"/>
      <point x="503" y="1704"/>
      <point x="480" y="1704" type="curve" smooth="yes"/>
      <point x="437" y="1704"/>
      <point x="408" y="1662"/>
      <point x="408" y="1594" type="curve" smooth="yes"/>
      <point x="408" y="1588" type="line" name="hr01"/>
      <point x="268" y="1588" type="line"/>
    </contour>
    <contour>
      <point x="172" y="260" type="line"/>
      <point x="469" y="260" type="line"/>
      <point x="469" y="1233" type="line" name="hr02"/>
      <point x="172" y="1233" type="line"/>
      <point x="172" y="1493" type="line"/>
      <point x="1061" y="1493" type="line" name="hr03"/>
      <point x="1061" y="1233" type="line"/>
      <point x="764" y="1233" type="line" name="hr04"/>
      <point x="764" y="260" type="line"/>
      <point x="1061" y="260" type="line"/>
      <point x="1061" y="0" type="line" name="hr05"/>
      <point x="172" y="0" type="line"/>
    </contour>
  </outline>
</glyph>
<glyph name="dotlessi" format="1">
  <advance width="1233"/>
  <unicode hex="0131"/>
  <outline>
    <contour>
      <point x="812" y="-12" type="line" smooth="yes" name="ab01"/>
      <point x="673" y="-12"/>
      <point x="573" y="24" name="dh01"/>
      <point x="512" y="96" type="curve" smooth="yes" name="sv01"/>
      <point x="451" y="167"/>
      <point x="421" y="287" name="at01"/>
      <point x="421" y="455" type="curve" smooth="yes"/>
      <point x="421" y="895" type="line" name="dh02"/>
      <point x="184" y="895" type="line"/>
      <point x="184" y="1120" type="line" name="sv02"/>
      <point x="714" y="1120" type="line" name="sv03"/>
      <point x="714" y="455" type="line" smooth="yes" name="ab02"/>
      <point x="714" y="368"/>
      <point x="728" y="305"/>
      <point x="755" y="268" type="curve" smooth="yes"/>
      <point x="782" y="231"/>
      <point x="828" y="213"/>
      <point x="894" y="213" type="curve" smooth="yes"/>
      <point x="1128" y="213" type="line"/>
      <point x="1128" y="-12" type="line"/>
    </contour>
  </outline>
</glyph>
<glyph name="ij" format="1">
  <advance width="1233"/>
  <unicode hex="0133"/>
  <outline>
    <contour>
      <point x="131" y="1283" type="curve" name="hr00"/>
      <point x="131" y="1565" type="line" smooth="yes"/>
      <point x="131" y="1585"/>
      <point x="141" y="1595"/>
      <point x="161" y="1595" type="curve" smooth="yes"/>
      <point x="394" y="1595" type="line" smooth="yes"/>
      <point x="414" y="1595"/>
      <point x="424" y="1585"/>
      <point x="424" y="1565" type="curve" smooth="yes"/>
      <point x="424" y="1283" type="line" smooth="yes"/>
      <point x="424" y="1263"/>
      <point x="414" y="1253"/>
      <point x="394" y="1253" type="curve" smooth="yes"/>
      <point x="161" y="1253" type="line" smooth="yes"/>
      <point x="141" y="1253"/>
      <point x="131" y="1263"/>
    </contour>
    <contour>
      <point x="819" y="1283" type="curve"/>
      <point x="819" y="1565" type="line" smooth="yes"/>
      <point x="819" y="1585"/>
      <point x="829" y="1595"/>
      <point x="849" y="1595" type="curve" smooth="yes"/>
      <point x="1082" y="1595" type="line" smooth="yes"/>
      <point x="1102" y="1595"/>
      <point x="1112" y="1585"/>
      <point x="1112" y="1565" type="curve" smooth="yes"/>
      <point x="1112" y="1283" type="line" smooth="yes"/>
      <point x="1112" y="1263"/>
      <point x="1102" y="1253"/>
      <point x="1082" y="1253" type="curve" smooth="yes"/>
      <point x="849" y="1253" type="line" smooth="yes"/>
      <point x="829" y="1253"/>
      <point x="819" y="1263"/>
    </contour>
    <contour>
      <point x="131" y="1120" type="line"/>
      <point x="424" y="1120" type="line"/>
      <point x="424" y="0" type="line"/>
      <point x="131" y="0" type="line"/>
    </contour>
    <contour>
      <point x="424" y="-131" type="line"/>
      <point x="687" y="-131" type="line" smooth="yes"/>
      <point x="712" y="-131"/>
      <point x="734" y="-125"/>
      <point x="754" y="-113" type="curve" smooth="yes"/>
      <point x="794" y="-90"/>
      <point x="818" y="-48"/>
      <point x="818" y="0" type="curve" smooth="yes"/>
      <point x="818" y="1120" type="line"/>
      <point x="1113" y="1120" type="line"/>
      <point x="1113" y="0" type="line" smooth="yes"/>
      <point x="1113" y="-77"/>
      <point x="1094" y="-148"/>
      <point x="1056" y="-213" type="curve" smooth="yes"/>
      <point x="1017" y="-279"/>
      <point x="965" y="-331"/>
      <point x="899" y="-369" type="curve" smooth="yes"/>
      <point x="834" y="-407"/>
      <point x="763" y="-426"/>
      <point x="687" y="-426" type="curve" smooth="yes"/>
      <point x="424" y="-426" type="line"/>
    </contour>
  </outline>
</glyph>
<glyph name="Jcircumflex" format="1">
  <advance width="1233"/>
  <unicode hex="0134"/>
  <outline>
    <contour>
      <point x="658" y="1588" type="line" name="hr00"/>
      <point x="856" y="1749" type="line"/>
      <point x="1055" y="1588" type="line"/>
      <point x="1233" y="1588" type="line"/>
      <point x="1010" y="1852" type="line"/>
      <point x="701" y="1852" type="line"/>
      <point x="480" y="1588" type="line"/>
    </contour>
    <contour>
      <point x="894" y="89" type="curve"/>
      <point x="970" y="167"/>
      <point x="1008" y="297"/>
      <point x="1008" y="479" type="curve" smooth="yes"/>
      <point x="1008" y="1493" type="line"/>
      <point x="352" y="1493" type="line"/>
      <point x="352" y="1233" type="line"/>
      <point x="713" y="1233" type="line"/>
      <point x="713" y="479" type="line" smooth="yes"/>
      <point x="713" y="311"/>
      <point x="643" y="236"/>
      <point x="490" y="236" type="curve" smooth="yes"/>
      <point x="355" y="236"/>
      <point x="218" y="303"/>
      <point x="109" y="416" type="curve"/>
      <point x="109" y="74" type="line"/>
      <point x="180" y="40"/>
      <point x="250" y="14"/>
      <point x="318" y="-3" type="curve" smooth="yes"/>
      <point x="399" y="-22"/>
      <point x="455" y="-29"/>
      <point x="524" y="-29" type="curve" smooth="yes"/>
      <point x="691" y="-29"/>
      <point x="819" y="10"/>
    </contour>
  </outline>
</glyph>
<glyph name="Nacute" format="1">
  <advance width="1233"/>
  <unicode hex="0143"/>
  <outline>
    <contour>
      <point x="699" y="1853" type="line" name="av01"/>
      <point x="983" y="1853" type="line" name="ih01"/>
      <point x="697" y="1589" type="line"/>
      <point x="500" y="1589" type="line" name="ih02"/>
    </contour>
    <contour>
      <point x="119" y="1493" type="line" name="sh02"/>
      <point x="436" y="1493" type="line"/>
      <point x="852" y="408" type="line" name="ah01"/>
      <point x="852" y="1493" type="line" name="at01"/>
      <point x="1112" y="1493" type="line"/>
      <point x="1112" y="0" type="line" name="sh01"/>
      <point x="797" y="0" type="line"/>
      <point x="379" y="1085" type="line" name="sh03"/>
      <point x="379" y="0" type="line" name="ab01"/>
      <point x="119" y="0" type="line"/>
    </contour>
  </outline>
</glyph>
<glyph name="uni0146" format="1">
  <advance width="1233"/>
  <unicode hex="0146"/>
  <outline>
    <contour>
      <point x="172" y="1120" type="line" name="sh01"/>
      <point x="434" y="1120" type="line"/>
      <point x="463" y="952" type="line" name="sh02"/>
      <point x="506" y="1081" name="at01"/>
      <point x="610" y="1147"/>
      <point x="753" y="1147" type="curve" smooth="yes" name="sh03"/>
      <point x="961" y="1147" name="ah02"/>
      <point x="1071" y="1008"/>
      <point x="1071" y="727" type="curve" smooth="yes" name="sv01"/>
      <point x="1071" y="0" type="line" name="sh04"/>
      <point x="780" y="0" type="line" name="ab01"/>
      <point x="780" y="682" type="line" smooth="yes"/>
      <point x="780" y="839" name="dv01"/>
      <point x="737" y="909" name="ih01"/>
      <point x="640" y="909" type="curve" smooth="yes"/>
      <point x="523" y="909" name="ih02"/>
      <point x="463" y="810" name="ah01"/>
      <point x="463" y="641" type="curve" smooth="yes" name="sh05"/>
      <point x="463" y="0" type="line"/>
      <point x="172" y="0" type="line"/>
    </contour>
    <contour>
      <point x="525" y="-158" type="line"/>
      <point x="807" y="-158" type="line"/>
      <point x="630" y="-464" type="line" name="hr01"/>
      <point x="436" y="-464" type="line"/>
    </contour>
  </outline>
</glyph>
<glyph name="Omacron" format="1">
  <advance width="1233"/>
  <unicode hex="014C"/>
  <outline>
    <contour>
      <point x="301" y="1830" type="line" name="hr00"/>
      <point x="932" y="1830" type="line" name="dv04"/>
      <point x="932" y="1642" type="line" name="dv03"/>
      <point x="301" y="1642" type="line"/>
    </contour>
    <contour>
      <point x="617" y="-29" type="curve" smooth="yes" name="dv01"/>
      <point x="270" y="-29" name="sh01"/>
      <point x="92" y="237" name="at01"/>
      <point x="92" y="746" type="curve" smooth="yes" name="sh02"/>
      <point x="92" y="1255"/>
      <point x="270" y="1520" name="dv02"/>
      <point x="617" y="1520" type="curve" smooth="yes"/>
      <point x="962" y="1520" name="ah02"/>
      <point x="1141" y="1257"/>
      <point x="1141" y="746" type="curve" smooth="yes" name="sv01"/>
      <point x="1141" y="235"/>
      <point x="962" y="-29" name="sh03"/>
    </contour>
    <contour>
      <point x="616" y="236" type="curve" smooth="yes"/>
      <point x="692" y="236" name="ah01"/>
      <point x="747" y="276" name="sh04"/>
      <point x="782" y="357" type="curve" smooth="yes"/>
      <point x="817" y="436"/>
      <point x="834" y="566"/>
      <point x="834" y="746" type="curve" smooth="yes"/>
      <point x="834" y="925"/>
      <point x="817" y="1055"/>
      <point x="782" y="1134" type="curve" smooth="yes"/>
      <point x="747" y="1215"/>
      <point x="692" y="1255"/>
      <point x="616" y="1255" type="curve" smooth="yes"/>
      <point x="537" y="1255"/>
      <point x="486" y="1214"/>
      <point x="451" y="1134" type="curve" smooth="yes"/>
      <point x="416" y="1055"/>
      <point x="399" y="925"/>
      <point x="399" y="746" type="curve" smooth="yes"/>
      <point x="399" y="566"/>
      <point x="416" y="436"/>
      <point x="451" y="357" type="curve" smooth="yes"/>
      <point x="486" y="276"/>
      <point x="541" y="236"/>
    </contour>
  </outline>
</glyph>
<glyph name="ubreve" format="1">
  <advance width="1233"/>
  <unicode hex="016D"/>
  <outline>
    <contour>
      <point x="946" y="1596" type="curve"/>
      <point x="803" y="1596" type="line"/>
      <point x="790" y="1503"/>
      <point x="722" y="1452"/>
      <point x="611" y="1452" type="curve" smooth="yes" name="hr01"/>
      <point x="499" y="1452"/>
      <point x="429" y="1504"/>
      <point x="416" y="1596" type="curve" name="hr02"/>
      <point x="275" y="1596" type="line"/>
      <point x="283" y="1407"/>
      <point x="403" y="1299"/>
      <point x="610" y="1299" type="curve" smooth="yes"/>
      <point x="818" y="1299"/>
      <point x="938" y="1405"/>
    </contour>
    <contour>
      <point x="768" y="166" type="curve"/>
      <point x="797" y="0" type="line"/>
      <point x="1061" y="0" type="line"/>
      <point x="1061" y="1120" type="line"/>
      <point x="768" y="1120" type="line"/>
      <point x="768" y="477" type="line" smooth="yes"/>
      <point x="768" y="309"/>
      <point x="706" y="211"/>
      <point x="598" y="211" type="curve" smooth="yes"/>
      <point x="495" y="211"/>
      <point x="453" y="275"/>
      <point x="453" y="436" type="curve" smooth="yes"/>
      <point x="453" y="1120" type="line"/>
      <point x="160" y="1120" type="line"/>
      <point x="160" y="391" type="line" smooth="yes"/>
      <point x="160" y="114"/>
      <point x="270" y="-29"/>
      <point x="481" y="-29" type="curve" smooth="yes" name="hr03"/>
      <point x="624" y="-29"/>
      <point x="725" y="41"/>
    </contour>
  </outline>
</glyph>
<glyph name="Uogonek" format="1">
  <advance width="1233"/>
  <unicode hex="0172"/>
  <outline>
    <contour>
      <point x="1126" y="1493" type="line" name="at01"/>
      <point x="1126" y="551" type="line" smooth="yes" name="dh06"/>
      <point x="1126" y="170" name="ab01"/>
      <point x="991" y="-8"/>
      <point x="678" y="-27" type="curve" name="dh04"/>
      <point x="637" y="-81" name="dv02"/>
      <point x="625" y="-104" name="sh01"/>
      <point x="615" y="-122" type="curve" smooth="yes"/>
      <point x="602" y="-146" name="dv01"/>
      <point x="596" y="-163" name="dh03"/>
      <point x="596" y="-182" type="curve" smooth="yes" name="ih01"/>
      <point x="596" y="-229" name="dh01"/>
      <point x="631" y="-270" name="at02"/>
      <point x="714" y="-270" type="curve" smooth="yes"/>
      <point x="755" y="-270" name="dh02"/>
      <point x="809" y="-260" name="sv01"/>
      <point x="862" y="-239" type="curve" name="dh05"/>
      <point x="862" y="-395" type="line"/>
      <point x="790" y="-410"/>
      <point x="726" y="-417" name="sh02"/>
      <point x="675" y="-417" type="curve" smooth="yes"/>
      <point x="519" y="-417"/>
      <point x="434" y="-355"/>
      <point x="434" y="-240" type="curve" smooth="yes"/>
      <point x="434" y="-169"/>
      <point x="467" y="-103"/>
      <point x="536" y="-26" type="curve" name="hr01"/>
      <point x="236" y="1"/>
      <point x="106" y="178"/>
      <point x="106" y="551" type="curve" smooth="yes"/>
      <point x="106" y="1493" type="line"/>
      <point x="401" y="1493" type="line" name="hr02"/>
      <point x="401" y="477" type="line" smooth="yes"/>
      <point x="401" y="328"/>
      <point x="480" y="238"/>
      <point x="616" y="238" type="curve" smooth="yes"/>
      <point x="752" y="238"/>
      <point x="831" y="328"/>
      <point x="831" y="477" type="curve" smooth="yes"/>
      <point x="831" y="1493" type="line"/>
    </contour>
  </outline>
</glyph>
<glyph name="uni0219" format="1">
  <advance width="1233"/>
  <unicode hex="0219"/>
  <outline>
    <contour>
      <point x="613" y="-29" type="curve" smooth="yes" name="dv01"/>
      <point x="476" y="-29"/>
      <point x="335" y="-6" name="ih01"/>
      <point x="190" y="41" type="curve" name="dv02"/>
      <point x="190" y="297" type="line" name="ah02"/>
      <point x="319" y="224"/>
      <point x="453" y="184"/>
      <point x="588" y="184" type="curve" smooth="yes"/>
      <point x="723" y="184" name="sh01"/>
      <point x="791" y="225" name="at01"/>
      <point x="791" y="308" type="curve" smooth="yes"/>
      <point x="791" y="345" name="ih02"/>
      <point x="778" y="365" name="sv01"/>
      <point x="753" y="385" type="curve" smooth="yes" name="sh02"/>
      <point x="722" y="409"/>
      <point x="671" y="430"/>
      <point x="575" y="451" type="curve" smooth="yes"/>
      <point x="494" y="469" type="line" smooth="yes" name="sh03"/>
      <point x="279" y="517"/>
      <point x="172" y="620" name="sh04"/>
      <point x="172" y="801" type="curve" smooth="yes"/>
      <point x="172" y="1025" name="ab01"/>
      <point x="335" y="1147" name="ih03"/>
      <point x="623" y="1147" type="curve" smooth="yes" name="ah01"/>
      <point x="744" y="1147" name="sh05"/>
      <point x="871" y="1126"/>
      <point x="991" y="1085" type="curve"/>
      <point x="991" y="829" type="line"/>
      <point x="882" y="899"/>
      <point x="766" y="934"/>
      <point x="645" y="934" type="curve" smooth="yes"/>
      <point x="516" y="934"/>
      <point x="449" y="892"/>
      <point x="449" y="828" type="curve" smooth="yes"/>
      <point x="449" y="765"/>
      <point x="512" y="727"/>
      <point x="663" y="691" type="curve" smooth="yes"/>
      <point x="674" y="688" type="line"/>
      <point x="758" y="668" type="line" smooth="yes"/>
      <point x="969" y="617"/>
      <point x="1067" y="511"/>
      <point x="1067" y="320" type="curve" smooth="yes"/>
      <point x="1067" y="87"/>
      <point x="916" y="-29"/>
    </contour>
    <contour>
      <point x="461" y="-198" type="line"/>
      <point x="743" y="-198" type="line"/>
      <point x="566" y="-504" type="line"/>
      <point x="372" y="-504" type="line"/>
    </contour>
  </outline>
</glyph>
<glyph name="uni02C0" format="1">
  <advance width="1233"/>
  <unicode hex="02C0"/>
  <outline>
    <contour>
      <point x="442" y="1080" type="line" name="sh01"/>
      <point x="496" y="1080" type="line" smooth="yes" name="dv02"/>
      <point x="579" y="1080"/>
      <point x="637" y="1101" name="ah02"/>
      <point x="670" y="1144" type="curve" smooth="yes"/>
      <point x="692" y="1173" name="dv03"/>
      <point x="703" y="1200"/>
      <point x="703" y="1226" type="curve" smooth="yes"/>
      <point x="703" y="1261" name="dv04"/>
      <point x="692" y="1292" name="sh02"/>
      <point x="670" y="1317" type="curve" smooth="yes" name="sh03"/>
      <point x="632" y="1360"/>
      <point x="579" y="1381" name="dv01"/>
      <point x="510" y="1381" type="curve" smooth="yes" name="ah01"/>
      <point x="449" y="1381"/>
      <point x="388" y="1365"/>
      <point x="328" y="1333" type="curve"/>
      <point x="328" y="1500" type="line"/>
      <point x="388" y="1525"/>
      <point x="429" y="1539"/>
      <point x="570" y="1539" type="curve" smooth="yes"/>
      <point x="754" y="1539"/>
      <point x="905" y="1386"/>
      <point x="905" y="1226" type="curve" smooth="yes"/>
      <point x="905" y="1053"/>
      <point x="792" y="970"/>
      <point x="648" y="946" type="curve"/>
      <point x="648" y="668" type="line"/>
      <point x="442" y="668" type="line"/>
    </contour>
  </outline>
</glyph>
<glyph name="uni031D" format="1">
  <advance width="0"/>
  <unicode hex="031D"/>
  <outline>
    <contour>
      <point x="-890" y="-435" type="line" name="sv01"/>
      <point x="-708" y="-435" type="line" name="dh01"/>
      <point x="-708" y="-252" type="line"/>
      <point x="-518" y="-252" type="line" name="sv02"/>
      <point x="-518" y="-435" type="line" name="dh02"/>
      <point x="-335" y="-435" type="line" name="dv02"/>
      <point x="-335" y="-624" type="line" name="dv01"/>
      <point x="-890" y="-624" type="line"/>
    </contour>
  </outline>
</glyph>
<glyph name="dotbelowcomb" format="1">
  <advance width="0"/>
  <unicode hex="0323"/>
  <outline>
    <contour>
      <point x="-754" y="-216" type="line" name="dh01"/>
      <point x="-479" y="-216" type="line" name="dh02"/>
      <point x="-479" y="-462" type="line" name="dv01"/>
      <point x="-754" y="-462" type="line"/>
    </contour>
  </outline>
</glyph>
<glyph name="uni0327" format="1">
  <advance width="0"/>
  <unicode hex="0327"/>
  <outline>
    <contour>
      <point x="-664" y="-401" type="curve" smooth="yes" name="dv01"/>
      <point x="-728" y="-401"/>
      <point x="-794" y="-392" name="dh01"/>
      <point x="-866" y="-375" type="curve" name="dv02"/>
      <point x="-866" y="-219" type="line" name="sh01"/>
      <point x="-805" y="-242" name="ih01"/>
      <point x="-750" y="-254"/>
      <point x="-701" y="-254" type="curve" smooth="yes" name="dh02"/>
      <point x="-624" y="-254"/>
      <point x="-578" y="-221"/>
      <point x="-578" y="-168" type="curve" smooth="yes"/>
      <point x="-578" y="-133"/>
      <point x="-605" y="-80"/>
      <point x="-666" y="0" type="curve" name="hr01"/>
      <point x="-526" y="0" type="line"/>
      <point x="-450" y="-84"/>
      <point x="-414" y="-151"/>
      <point x="-414" y="-215" type="curve" smooth="yes"/>
      <point x="-414" y="-343"/>
      <point x="-493" y="-401"/>
    </contour>
  </outline>
</glyph>
<glyph name="uni0339" format="1">
  <advance width="0"/>
  <unicode hex="0339"/>
  <outline>
    <contour>
      <point x="-726" y="-370" type="line" name="sh01"/>
      <point x="-677" y="-370" name="sh02"/>
      <point x="-639" y="-333" name="dh01"/>
      <point x="-639" y="-282" type="curve" smooth="yes" name="sv01"/>
      <point x="-639" y="-233" name="dh02"/>
      <point x="-677" y="-195" name="ab01"/>
      <point x="-726" y="-195" type="curve"/>
      <point x="-726" y="-63" type="line"/>
      <point x="-603" y="-63"/>
      <point x="-507" y="-159"/>
      <point x="-507" y="-282" type="curve" smooth="yes" name="hr01"/>
      <point x="-507" y="-405"/>
      <point x="-603" y="-502"/>
      <point x="-726" y="-502" type="curve" name="hr02"/>
    </contour>
  </outline>
</glyph>
<glyph name="uni033B" format="1">
  <advance width="0"/>
  <unicode hex="033B"/>
  <outline>
    <contour>
      <point x="-903" y="-218" type="line" name="sh01"/>
      <point x="-330" y="-218" type="line" name="dv02"/>
      <point x="-330" y="-791" type="line" name="sh02"/>
      <point x="-903" y="-791" type="line"/>
    </contour>
    <contour>
      <point x="-501" y="-620" type="line" name="ah01"/>
      <point x="-501" y="-389" type="line" name="dv01"/>
      <point x="-732" y="-389" type="line" name="sh03"/>
      <point x="-732" y="-620" type="line"/>
    </contour>
  </outline>
</glyph>
<glyph name="Upsilon" format="1">
  <advance width="1233"/>
  <unicode hex="03A5"/>
  <outline>
    <contour>
      <point x="459" y="534" type="line" smooth="yes" name="dh01"/>
      <point x="459" y="846"/>
      <point x="364" y="1142"/>
      <point x="260" y="1203" type="curve" smooth="yes"/>
      <point x="214" y="1230"/>
      <point x="105" y="1248" name="ih01"/>
      <point x="24" y="1229" type="curve"/>
      <point x="24" y="1493" type="line"/>
      <point x="68" y="1509"/>
      <point x="167" y="1506"/>
      <point x="251" y="1490" type="curve" name="dh02"/>
      <point x="424" y="1453" name="ab01"/>
      <point x="542" y="1343"/>
      <point x="596" y="1057" type="curve"/>
      <point x="667" y="1308"/>
      <point x="781" y="1453"/>
      <point x="940" y="1490" type="curve" smooth="yes"/>
      <point x="1007" y="1506"/>
      <point x="1066" y="1498"/>
      <point x="1115" y="1467" type="curve" smooth="yes"/>
      <point x="1248" y="1384"/>
      <point x="1221" y="1205"/>
      <point x="1181" y="1130" type="curve" smooth="yes"/>
      <point x="1113" y="1003"/>
      <point x="947" y="1068"/>
      <point x="931" y="1203" type="curve"/>
      <point x="808" y="1022"/>
      <point x="754" y="803"/>
      <point x="754" y="534" type="curve" smooth="yes"/>
      <point x="754" y="0" type="line"/>
      <point x="459" y="0" type="line"/>
    </contour>
  </outline>
</glyph>
<glyph name="epsilontonos" format="1">
  <advance width="1233"/>
  <unicode hex="03AD"/>
  <outline>
    <contour>
      <point x="752" y="1666" type="line" name="av01"/>
      <point x="1034" y="1666" type="line"/>
      <point x="666" y="1290" type="line"/>
      <point x="469" y="1290" type="line" name="iv01"/>
    </contour>
    <contour>
      <point x="672" y="-22" type="curve" smooth="yes" name="ab01"/>
      <point x="324" y="-22" name="dh01"/>
      <point x="149" y="94" name="iv02"/>
      <point x="149" y="309" type="curve" smooth="yes" name="ih01"/>
      <point x="149" y="474" name="at01"/>
      <point x="254" y="575"/>
      <point x="461" y="604" type="curve" name="iv03"/>
      <point x="276" y="631" name="sv01"/>
      <point x="182" y="717" name="sh01"/>
      <point x="182" y="853" type="curve" smooth="yes"/>
      <point x="182" y="1030" name="dv02"/>
      <point x="347" y="1140" name="dv01"/>
      <point x="683" y="1140" type="curve" smooth="yes"/>
      <point x="795" y="1140" name="dh02"/>
      <point x="857" y="1127" name="sv02"/>
      <point x="1002" y="1092" type="curve" name="iv04"/>
      <point x="1002" y="877" type="line"/>
      <point x="861" y="922"/>
      <point x="771" y="938"/>
      <point x="685" y="938" type="curve" smooth="yes"/>
      <point x="532" y="938"/>
      <point x="453" y="887"/>
      <point x="453" y="822" type="curve" smooth="yes"/>
      <point x="453" y="757"/>
      <point x="532" y="710"/>
      <point x="672" y="710" type="curve" smooth="yes"/>
      <point x="823" y="710" type="line"/>
      <point x="823" y="487" type="line"/>
      <point x="672" y="487" type="line" smooth="yes" name="hr02"/>
      <point x="510" y="487"/>
      <point x="418" y="413"/>
      <point x="418" y="325" type="curve" smooth="yes"/>
      <point x="418" y="244"/>
      <point x="493" y="181"/>
      <point x="713" y="181" type="curve" smooth="yes"/>
      <point x="820" y="181"/>
      <point x="903" y="197"/>
      <point x="1045" y="253" type="curve"/>
      <point x="1045" y="34" type="line"/>
      <point x="874" y="-14"/>
      <point x="767" y="-22"/>
    </contour>
  </outline>
</glyph>
<glyph name="gamma" format="1">
  <advance width="1233"/>
  <unicode hex="03B3"/>
  <outline>
    <contour>
      <point x="479" y="0" type="line" name="dh01"/>
      <point x="246" y="752" type="line" smooth="yes"/>
      <point x="231" y="800"/>
      <point x="212" y="832"/>
      <point x="181" y="856" type="curve" smooth="yes"/>
      <point x="161" y="872" name="at01"/>
      <point x="137" y="885"/>
      <point x="118" y="885" type="curve" smooth="yes"/>
      <point x="76" y="885" type="line" name="ih01"/>
      <point x="76" y="1120" type="line" name="at02"/>
      <point x="156" y="1120" type="line" smooth="yes"/>
      <point x="304" y="1120" name="dh02"/>
      <point x="453" y="1008" name="ab01"/>
      <point x="514" y="808" type="curve" smooth="yes"/>
      <point x="633" y="414" type="line"/>
      <point x="876" y="1120" type="line"/>
      <point x="1173" y="1120" type="line"/>
      <point x="771" y="0" type="line"/>
      <point x="771" y="-426" type="line"/>
      <point x="479" y="-426" type="line"/>
    </contour>
  </outline>
</glyph>
<glyph name="sigma" format="1">
  <advance width="1233"/>
  <unicode hex="03C3"/>
  <outline>
    <contour>
      <point x="594" y="-29" type="curve" smooth="yes" name="dv01"/>
      <point x="281" y="-29" name="sh01"/>
      <point x="78" y="198" name="at01"/>
      <point x="78" y="559" type="curve" smooth="yes"/>
      <point x="78" y="895" name="sv01"/>
      <point x="255" y="1120" name="ih01"/>
      <point x="596" y="1120" type="curve" smooth="yes" name="sh02"/>
      <point x="1148" y="1120" type="line"/>
      <point x="1148" y="895" type="line" name="dv02"/>
      <point x="936" y="895" type="line" name="ah02"/>
      <point x="1064" y="799"/>
      <point x="1115" y="703"/>
      <point x="1115" y="537" type="curve" smooth="yes"/>
      <point x="1115" y="208" name="sh03"/>
      <point x="913" y="-29"/>
    </contour>
    <contour>
      <point x="594" y="209" type="curve" smooth="yes" name="sh04"/>
      <point x="739" y="209"/>
      <point x="822" y="354"/>
      <point x="822" y="534" type="curve" smooth="yes"/>
      <point x="822" y="655"/>
      <point x="785" y="735"/>
      <point x="641" y="828" type="curve" smooth="yes"/>
      <point x="613" y="847"/>
      <point x="567" y="872"/>
      <point x="534" y="887" type="curve"/>
      <point x="490" y="874"/>
      <point x="456" y="849"/>
      <point x="431" y="812" type="curve" smooth="yes"/>
      <point x="392" y="755"/>
      <point x="371" y="671"/>
      <point x="371" y="559" type="curve" smooth="yes"/>
      <point x="371" y="338"/>
      <point x="457" y="209"/>
    </contour>
  </outline>
</glyph>
<glyph name="uni0409" format="1">
  <advance width="1233"/>
  <unicode hex="0409"/>
  <outline>
    <contour>
      <point x="0" y="250" type="line" name="sv01"/>
      <point x="6" y="250" type="line" smooth="yes"/>
      <point x="155" y="250" name="sh01"/>
      <point x="187" y="324" name="dh01"/>
      <point x="203" y="471" type="curve" smooth="yes" name="at01"/>
      <point x="211" y="549" name="sh02"/>
      <point x="216" y="687"/>
      <point x="216" y="1065" type="curve" smooth="yes"/>
      <point x="216" y="1493" type="line" name="dh06"/>
      <point x="832" y="1493" type="line" name="ab01"/>
      <point x="832" y="913" type="line" name="dh03"/>
      <point x="854" y="913" type="line" smooth="yes" name="sv02"/>
      <point x="1001" y="913"/>
      <point x="1233" y="772" name="dh02"/>
      <point x="1233" y="457" type="curve" smooth="yes"/>
      <point x="1233" y="141" name="ab02"/>
      <point x="998" y="0"/>
      <point x="854" y="0" type="curve" smooth="yes" name="sv03"/>
      <point x="592" y="0" type="line" name="dh05"/>
      <point x="592" y="1233" type="line"/>
      <point x="456" y="1233" type="line"/>
      <point x="456" y="1057" type="line" smooth="yes" name="dh04"/>
      <point x="456" y="574"/>
      <point x="460" y="264" name="sh03"/>
      <point x="333" y="113" type="curve" smooth="yes"/>
      <point x="270" y="38"/>
      <point x="170" y="0"/>
      <point x="33" y="0" type="curve" smooth="yes"/>
      <point x="0" y="0" type="line"/>
    </contour>
    <contour>
      <point x="840" y="236" type="line" smooth="yes"/>
      <point x="889" y="236"/>
      <point x="993" y="293"/>
      <point x="993" y="457" type="curve" smooth="yes"/>
      <point x="993" y="621"/>
      <point x="889" y="678"/>
      <point x="840" y="678" type="curve" smooth="yes"/>
      <point x="832" y="678" type="line"/>
      <point x="832" y="236" type="line"/>
    </contour>
  </outline>
</glyph>
<glyph name="uni040B" format="1">
  <advance width="1233"/>
  <unicode hex="040B"/>
  <outline>
    <contour>
      <point x="156" y="1347" type="line" name="sh01"/>
      <point x="-34" y="1347" type="line"/>
      <point x="-34" y="1556" type="line" name="at01"/>
      <point x="930" y="1556" type="line"/>
      <point x="930" y="1347" type="line" name="sv01"/>
      <point x="447" y="1347" type="line" name="sh02"/>
      <point x="447" y="833" type="line"/>
      <point x="450" y="845"/>
      <point x="467" y="897"/>
      <point x="552" y="942" type="curve"/>
      <point x="600" y="969"/>
      <point x="647" y="978"/>
      <point x="757" y="989" type="curve" smooth="yes"/>
      <point x="778" y="991" name="sh03"/>
      <point x="797" y="992" name="ah02"/>
      <point x="816" y="992" type="curve" smooth="yes"/>
      <point x="896" y="992"/>
      <point x="977" y="974"/>
      <point x="1038" y="939" type="curve" smooth="yes"/>
      <point x="1063" y="925"/>
      <point x="1084" y="907"/>
      <point x="1101" y="886" type="curve" smooth="yes"/>
      <point x="1152" y="823" name="sh04"/>
      <point x="1182" y="717" name="ab01"/>
      <point x="1182" y="572" type="curve" smooth="yes"/>
      <point x="1182" y="0" type="line" name="ah01"/>
      <point x="891" y="0" type="line" name="sh05"/>
      <point x="891" y="504" type="line" smooth="yes"/>
      <point x="891" y="585"/>
      <point x="879" y="642"/>
      <point x="856" y="677" type="curve"/>
      <point x="841" y="702"/>
      <point x="802" y="718"/>
      <point x="737" y="726" type="curve"/>
      <point x="696" y="729" type="line"/>
      <point x="649" y="729"/>
      <point x="602" y="719"/>
      <point x="554" y="700" type="curve"/>
      <point x="520" y="684" type="line"/>
      <point x="505" y="675"/>
      <point x="499" y="669"/>
      <point x="492" y="658" type="curve" smooth="yes"/>
      <point x="461" y="615"/>
      <point x="447" y="546"/>
      <point x="447" y="463" type="curve" smooth="yes"/>
      <point x="447" y="0" type="line"/>
      <point x="156" y="0" type="line"/>
    </contour>
  </outline>
</glyph>
<glyph name="uni0412" format="1">
  <advance width="1233"/>
  <unicode hex="0412"/>
  <outline>
    <contour>
      <point x="125" y="1495" type="line" name="dh01"/>
      <point x="606" y="1495" type="line" smooth="yes"/>
      <point x="939" y="1495" name="dh04"/>
      <point x="1106" y="1370" name="ih01"/>
      <point x="1106" y="1119" type="curve" smooth="yes" name="sh02"/>
      <point x="1106" y="924" name="ab01"/>
      <point x="1007" y="816"/>
      <point x="815" y="799" type="curve" name="dv02"/>
      <point x="1050" y="775" name="dh03"/>
      <point x="1159" y="643" name="sv01"/>
      <point x="1159" y="407" type="curve" smooth="yes" name="dh02"/>
      <point x="1159" y="122"/>
      <point x="995" y="0" name="sv02"/>
      <point x="606" y="0" type="curve" smooth="yes" name="sh01"/>
      <point x="125" y="0" type="line" name="dv01"/>
    </contour>
    <contour>
      <point x="606" y="913" type="line" smooth="yes" name="sh03"/>
      <point x="755" y="913"/>
      <point x="813" y="961"/>
      <point x="813" y="1084" type="curve" smooth="yes" name="sh04"/>
      <point x="813" y="1208"/>
      <point x="753" y="1260"/>
      <point x="606" y="1260" type="curve" smooth="yes"/>
      <point x="410" y="1260" type="line"/>
      <point x="410" y="913" type="line"/>
    </contour>
    <contour>
      <point x="606" y="236" type="line" smooth="yes" name="hr02"/>
      <point x="793" y="236"/>
      <point x="860" y="292"/>
      <point x="860" y="449" type="curve" smooth="yes"/>
      <point x="860" y="612"/>
      <point x="788" y="678"/>
      <point x="606" y="678" type="curve" smooth="yes" name="hr03"/>
      <point x="410" y="678" type="line"/>
      <point x="410" y="236" type="line"/>
    </contour>
  </outline>
</glyph>
<glyph name="uni0413" format="1">
  <advance width="1233"/>
  <unicode hex="0413"/>
  <outline>
    <contour>
      <point x="182" y="1493" type="line" name="dh01"/>
      <point x="1112" y="1493" type="line"/>
      <point x="1112" y="1233" type="line" name="sv01"/>
      <point x="477" y="1233" type="line" name="dh02"/>
      <point x="477" y="0" type="line" name="ab01"/>
      <point x="182" y="0" type="line"/>
    </contour>
  </outline>
</glyph>
<glyph name="uni0414" format="1">
  <advance width="1233"/>
  <unicode hex="0414"/>
  <outline>
    <contour>
      <point x="40" y="260" type="line" name="dh01"/>
      <point x="140" y="260" type="line" smooth="yes"/>
      <point x="172" y="260"/>
      <point x="207" y="329" name="ih01"/>
      <point x="207" y="395" type="curve" smooth="yes" name="at01"/>
      <point x="207" y="497" type="line"/>
      <point x="207" y="1493" type="line" name="dh04"/>
      <point x="1055" y="1493" type="line" name="sv01"/>
      <point x="1055" y="260" type="line" name="sh01"/>
      <point x="1192" y="260" type="line" name="ih02"/>
      <point x="1192" y="-322" type="line" name="ab01"/>
      <point x="937" y="-322" type="line" name="dh02"/>
      <point x="937" y="0" type="line" name="av01"/>
      <point x="295" y="0" type="line"/>
      <point x="295" y="-322" type="line" name="dh03"/>
      <point x="40" y="-322" type="line" name="sv02"/>
    </contour>
    <contour>
      <point x="760" y="260" type="line"/>
      <point x="760" y="1233" type="line" name="sh02"/>
      <point x="502" y="1233" type="line" name="ih03"/>
      <point x="502" y="497" type="line" smooth="yes"/>
      <point x="502" y="403" name="sh03"/>
      <point x="492" y="324"/>
      <point x="472" y="260" type="curve" name="hr03"/>
    </contour>
  </outline>
</glyph>
<glyph name="uni0418" format="1">
  <advance width="1233"/>
  <unicode hex="0418"/>
  <outline>
    <contour>
      <point x="119" y="1493" type="line" name="sh01"/>
      <point x="379" y="1493" type="line" name="sh02"/>
      <point x="379" y="408" type="line" name="iv01"/>
      <point x="795" y="1493" type="line" name="at01"/>
      <point x="1112" y="1493" type="line"/>
      <point x="1112" y="0" type="line" name="sh03"/>
      <point x="852" y="0" type="line" name="ah01"/>
      <point x="852" y="1085" type="line" name="iv02"/>
      <point x="434" y="0" type="line" name="ab01"/>
      <point x="119" y="0" type="line"/>
    </contour>
  </outline>
</glyph>
<glyph name="uni0432" format="1">
  <advance width="1233"/>
  <unicode hex="0432"/>
  <outline>
    <contour>
      <point x="139" y="1120" type="line" name="dh01"/>
      <point x="607" y="1120" type="line" smooth="yes"/>
      <point x="936" y="1120" name="dh04"/>
      <point x="1085" y="1032" name="ih01"/>
      <point x="1085" y="827" type="curve" smooth="yes" name="sh02"/>
      <point x="1085" y="701" name="ab01"/>
      <point x="1029" y="639"/>
      <point x="924" y="599" type="curve" name="dv02"/>
      <point x="1063" y="560"/>
      <point x="1134" y="459" name="dh03"/>
      <point x="1134" y="318" type="curve" smooth="yes"/>
      <point x="1134" y="113" name="sv01"/>
      <point x="981" y="0" name="dh02"/>
      <point x="656" y="0" type="curve" smooth="yes"/>
      <point x="139" y="0" type="line" name="sv02"/>
    </contour>
    <contour>
      <point x="587" y="698" type="line" smooth="yes" name="sh01"/>
      <point x="683" y="698" name="dv01"/>
      <point x="736" y="706" name="sh03"/>
      <point x="764" y="722" type="curve" smooth="yes"/>
      <point x="787" y="735"/>
      <point x="803" y="759" name="sh04"/>
      <point x="803" y="794" type="curve" smooth="yes" name="hr01"/>
      <point x="803" y="825"/>
      <point x="791" y="854"/>
      <point x="764" y="873" type="curve" smooth="yes"/>
      <point x="736" y="892"/>
      <point x="683" y="901"/>
      <point x="587" y="901" type="curve" smooth="yes"/>
      <point x="431" y="901" type="line"/>
      <point x="431" y="698" type="line"/>
    </contour>
    <contour>
      <point x="598" y="219" type="line" smooth="yes" name="hr02"/>
      <point x="766" y="219"/>
      <point x="841" y="257"/>
      <point x="841" y="350" type="curve" smooth="yes"/>
      <point x="841" y="443"/>
      <point x="766" y="479"/>
      <point x="598" y="479" type="curve" smooth="yes" name="hr03"/>
      <point x="431" y="479" type="line"/>
      <point x="431" y="219" type="line"/>
    </contour>
  </outline>
</glyph>
<glyph name="uni0435" format="1">
  <advance width="1233"/>
  <unicode hex="0435"/>
  <outline>
    <contour>
      <point x="679" y="-29" type="curve" smooth="yes" name="dv01"/>
      <point x="293" y="-29" name="sh01"/>
      <point x="92" y="178" name="at01"/>
      <point x="92" y="550" type="curve" smooth="yes" name="sh02"/>
      <point x="92" y="920"/>
      <point x="291" y="1147" name="sh03"/>
      <point x="631" y="1147" type="curve" smooth="yes" name="dv02"/>
      <point x="954" y="1147" name="ih01"/>
      <point x="1149" y="940"/>
      <point x="1149" y="584" type="curve" smooth="yes"/>
      <point x="1149" y="465" type="line" name="ah02"/>
      <point x="390" y="465" type="line" name="sv01"/>
      <point x="391" y="290" name="sh04"/>
      <point x="493" y="203" name="ah01"/>
      <point x="698" y="203" type="curve" smooth="yes" name="sh05"/>
      <point x="834" y="203"/>
      <point x="958" y="240"/>
      <point x="1102" y="324" type="curve"/>
      <point x="1102" y="55" type="line"/>
      <point x="969" y="-1"/>
      <point x="824" y="-29"/>
    </contour>
    <contour>
      <point x="854" y="685" type="line"/>
      <point x="851" y="840"/>
      <point x="771" y="920"/>
      <point x="630" y="920" type="curve" smooth="yes"/>
      <point x="486" y="920"/>
      <point x="409" y="837"/>
      <point x="393" y="684" type="curve"/>
    </contour>
  </outline>
</glyph>
<glyph name="uni0494" format="1">
  <advance width="1233"/>
  <unicode hex="0494"/>
  <outline>
    <contour>
      <point x="528" y="-199" type="line" name="sv01"/>
      <point x="664" y="-199" type="line" smooth="yes"/>
      <point x="796" y="-199" name="ah02"/>
      <point x="844" y="-133"/>
      <point x="844" y="43" type="curve" smooth="yes"/>
      <point x="844" y="464" type="line" smooth="yes" name="dv01"/>
      <point x="844" y="545"/>
      <point x="832" y="602" name="sh02"/>
      <point x="809" y="637" type="curve" smooth="yes" name="sh01"/>
      <point x="789" y="666" name="at01"/>
      <point x="758" y="686"/>
      <point x="690" y="686" type="curve" smooth="yes" name="sv02"/>
      <point x="457" y="686" type="line" name="sh03"/>
      <point x="457" y="0" type="line"/>
      <point x="162" y="0" type="line" name="dv02"/>
      <point x="162" y="1493" type="line"/>
      <point x="1092" y="1493" type="line"/>
      <point x="1092" y="1233" type="line"/>
      <point x="457" y="1233" type="line" name="sh04"/>
      <point x="457" y="952" type="line" name="ab01"/>
      <point x="766" y="952" type="line" smooth="yes"/>
      <point x="849" y="952" name="ah01"/>
      <point x="925" y="934" name="sh05"/>
      <point x="992" y="899" type="curve" smooth="yes"/>
      <point x="1017" y="886"/>
      <point x="1042" y="869"/>
      <point x="1058" y="846" type="curve"/>
      <point x="1112" y="776"/>
      <point x="1139" y="671"/>
      <point x="1139" y="532" type="curve" smooth="yes"/>
      <point x="1139" y="43" type="line" smooth="yes"/>
      <point x="1139" y="-293"/>
      <point x="1029" y="-424"/>
      <point x="746" y="-424" type="curve" smooth="yes"/>
      <point x="528" y="-424" type="line"/>
    </contour>
  </outline>
</glyph>
<glyph name="uni0498" format="1">
  <advance width="1233"/>
  <unicode hex="0498"/>
  <outline>
    <contour>
      <point x="1100" y="412" type="curve" smooth="yes" name="sh02"/>
      <point x="1100" y="160" name="ih01"/>
      <point x="954" y="10" name="dh02"/>
      <point x="673" y="-23" type="curve" name="dv01"/>
      <point x="742" y="-106"/>
      <point x="765" y="-161" name="dh01"/>
      <point x="765" y="-222" type="curve" smooth="yes" name="dv02"/>
      <point x="765" y="-339" name="sh03"/>
      <point x="686" y="-401" name="dv03"/>
      <point x="515" y="-401" type="curve" smooth="yes"/>
      <point x="451" y="-401"/>
      <point x="385" y="-392" name="dv04"/>
      <point x="313" y="-375" type="curve" name="sh01"/>
      <point x="313" y="-219" type="line" name="dv05"/>
      <point x="374" y="-242"/>
      <point x="428" y="-254"/>
      <point x="477" y="-254" type="curve" smooth="yes" name="dv06"/>
      <point x="556" y="-254" name="dh03"/>
      <point x="601" y="-221" name="sv01"/>
      <point x="601" y="-170" type="curve" smooth="yes"/>
      <point x="601" y="-137"/>
      <point x="581" y="-93" name="at01"/>
      <point x="534" y="-29" type="curve" name="dh04"/>
      <point x="394" y="-26" name="ih02"/>
      <point x="253" y="-2"/>
      <point x="125" y="45" type="curve"/>
      <point x="125" y="319" type="line" name="sh04"/>
      <point x="253" y="252"/>
      <point x="419" y="223"/>
      <point x="538" y="223" type="curve" smooth="yes"/>
      <point x="731" y="223"/>
      <point x="817" y="303"/>
      <point x="817" y="435" type="curve" smooth="yes" name="hr02"/>
      <point x="817" y="578"/>
      <point x="721" y="668"/>
      <point x="549" y="668" type="curve" smooth="yes"/>
      <point x="391" y="668" type="line"/>
      <point x="391" y="928" type="line"/>
      <point x="549" y="928" type="line" smooth="yes"/>
      <point x="697" y="928"/>
      <point x="780" y="988"/>
      <point x="780" y="1097" type="curve" smooth="yes"/>
      <point x="780" y="1205"/>
      <point x="697" y="1270"/>
      <point x="544" y="1270" type="curve" smooth="yes"/>
      <point x="440" y="1270"/>
      <point x="307" y="1241"/>
      <point x="170" y="1188" type="curve" name="hr03"/>
      <point x="170" y="1456" type="line"/>
      <point x="307" y="1497"/>
      <point x="441" y="1520"/>
      <point x="566" y="1520" type="curve" smooth="yes"/>
      <point x="880" y="1520"/>
      <point x="1065" y="1373"/>
      <point x="1065" y="1135" type="curve" smooth="yes"/>
      <point x="1065" y="952"/>
      <point x="960" y="840"/>
      <point x="772" y="805" type="curve"/>
      <point x="977" y="768"/>
      <point x="1100" y="642"/>
    </contour>
  </outline>
</glyph>
<glyph name="uni049A" format="1">
  <advance width="1233"/>
  <unicode hex="049A"/>
  <outline>
    <contour>
      <point x="932" y="0" type="line" name="ah01"/>
      <point x="897" y="0" type="line"/>
      <point x="543" y="672" type="line" name="ih01"/>
      <point x="412" y="506" type="line"/>
      <point x="412" y="0" type="line" name="sh03"/>
      <point x="117" y="0" type="line" name="sh01"/>
      <point x="117" y="1493" type="line" name="at01"/>
      <point x="412" y="1493" type="line" name="sh04"/>
      <point x="412" y="903" type="line" name="ih02"/>
      <point x="874" y="1493" type="line" name="at02"/>
      <point x="1208" y="1493" type="line" name="ih03"/>
      <point x="737" y="905" type="line"/>
      <point x="1085" y="260" type="line"/>
      <point x="1225" y="260" type="line" name="sh02"/>
      <point x="1225" y="-322" type="line" name="av01"/>
      <point x="932" y="-322" type="line"/>
    </contour>
  </outline>
</glyph>
<glyph name="uni04B1" format="1">
  <advance width="1233"/>
  <unicode hex="04B1"/>
  <outline>
    <contour>
      <point x="471" y="-250" type="line" name="dh01"/>
      <point x="271" y="-250" type="line"/>
      <point x="271" y="-31" type="line"/>
      <point x="471" y="-31" type="line" name="sh01"/>
      <point x="471" y="31" type="line"/>
      <point x="57" y="1120" type="line" name="at01"/>
      <point x="365" y="1120" type="line"/>
      <point x="616" y="393" type="line" name="ih01"/>
      <point x="867" y="1120" type="line" name="at02"/>
      <point x="1175" y="1120" type="line"/>
      <point x="761" y="31" type="line" name="sh02"/>
      <point x="761" y="-31" type="line" name="sv01"/>
      <point x="961" y="-31" type="line"/>
      <point x="961" y="-250" type="line" name="sv02"/>
      <point x="761" y="-250" type="line" name="dh02"/>
      <point x="761" y="-426" type="line" name="ab01"/>
      <point x="471" y="-426" type="line"/>
    </contour>
  </outline>
</glyph>
<glyph name="uni04CB" format="1">
  <advance width="1233"/>
  <unicode hex="04CB"/>
  <outline>
    <contour>
      <point x="537" y="260" type="line" name="dh03"/>
      <point x="830" y="260" type="line" name="dh04"/>
      <point x="830" y="766" type="line" name="iv01"/>
      <point x="819" y="733"/>
      <point x="799" y="708"/>
      <point x="771" y="689" type="curve" smooth="yes" name="hr01"/>
      <point x="724" y="658" type="line" smooth="yes" name="dv01"/>
      <point x="688" y="635"/>
      <point x="601" y="613"/>
      <point x="521" y="610" type="curve" smooth="yes" name="dh01"/>
      <point x="464" y="607" type="line" name="at01"/>
      <point x="385" y="607"/>
      <point x="303" y="624" name="dh02"/>
      <point x="239" y="660" type="curve" smooth="yes"/>
      <point x="214" y="674" name="sv01"/>
      <point x="193" y="692" name="dv02"/>
      <point x="176" y="713" type="curve" smooth="yes"/>
      <point x="125" y="776"/>
      <point x="95" y="882" name="sh01"/>
      <point x="95" y="1027" type="curve" smooth="yes" name="sh03"/>
      <point x="95" y="1556" type="line"/>
      <point x="386" y="1556" type="line" name="sh04"/>
      <point x="386" y="1095" type="line" smooth="yes" name="sh02"/>
      <point x="386" y="1014" name="av01"/>
      <point x="398" y="957"/>
      <point x="421" y="922" type="curve"/>
      <point x="436" y="897"/>
      <point x="476" y="881"/>
      <point x="540" y="873" type="curve" smooth="yes"/>
      <point x="555" y="871"/>
      <point x="569" y="870"/>
      <point x="582" y="870" type="curve" smooth="yes"/>
      <point x="628" y="870"/>
      <point x="675" y="880"/>
      <point x="723" y="899" type="curve" smooth="yes"/>
      <point x="754" y="911"/>
      <point x="770" y="922"/>
      <point x="785" y="941" type="curve" smooth="yes"/>
      <point x="816" y="982"/>
      <point x="830" y="1056"/>
      <point x="830" y="1136" type="curve" smooth="yes"/>
      <point x="830" y="1556" type="line"/>
      <point x="1121" y="1556" type="line"/>
      <point x="1121" y="0" type="line"/>
      <point x="830" y="0" type="line"/>
      <point x="830" y="-322" type="line"/>
      <point x="537" y="-322" type="line" name="hr02"/>
    </contour>
  </outline>
</glyph>
<glyph name="uni04D0" format="1">
  <advance width="1233"/>
  <unicode hex="04D0"/>
  <outline>
    <contour>
      <point x="616" y="1586" type="curve" smooth="yes" name="dv01"/>
      <point x="419" y="1586" name="sv02"/>
      <point x="301" y="1677"/>
      <point x="281" y="1850" type="curve" name="dv02"/>
      <point x="422" y="1850" type="line" name="sv01"/>
      <point x="449" y="1769"/>
      <point x="515" y="1729"/>
      <point x="618" y="1729" type="curve" smooth="yes" name="at01"/>
      <point x="719" y="1729"/>
      <point x="782" y="1769" name="ab01"/>
      <point x="809" y="1850" type="curve"/>
      <point x="952" y="1850" type="line" name="dv03"/>
      <point x="932" y="1677"/>
      <point x="815" y="1586" name="ab02"/>
    </contour>
    <contour>
      <point x="436" y="1493" type="line" name="dv04"/>
      <point x="797" y="1493" type="line"/>
      <point x="1200" y="0" type="line"/>
      <point x="905" y="0" type="line"/>
      <point x="813" y="369" type="line"/>
      <point x="418" y="369" type="line"/>
      <point x="328" y="0" type="line"/>
      <point x="33" y="0" type="line" name="hr01"/>
    </contour>
    <contour>
      <point x="756" y="612" type="line" name="hr02"/>
      <point x="616" y="1223" type="line"/>
      <point x="477" y="612" type="line"/>
    </contour>
  </outline>
</glyph>
<glyph name="uni04E0" format="1">
  <advance width="1233"/>
  <unicode hex="04E0"/>
  <outline>
    <contour>
      <point x="615" y="-28" type="curve" smooth="yes" name="dv01"/>
      <point x="171" y="-28" name="sh01"/>
      <point x="10" y="145" name="sh02"/>
      <point x="10" y="439" type="curve" name="dv02"/>
      <point x="328" y="439" type="line" name="sh03"/>
      <point x="328" y="296" name="ah02"/>
      <point x="454" y="234"/>
      <point x="607" y="234" type="curve" smooth="yes"/>
      <point x="744" y="234" name="sh04"/>
      <point x="840" y="283"/>
      <point x="868" y="380" type="curve" name="ih01"/>
      <point x="875" y="401"/>
      <point x="876" y="422" name="at01"/>
      <point x="876" y="441" type="curve" smooth="yes"/>
      <point x="876" y="556"/>
      <point x="807" y="623" name="ih02"/>
      <point x="652" y="642" type="curve" smooth="yes"/>
      <point x="629" y="645" name="sh05"/>
      <point x="606" y="646"/>
      <point x="579" y="646" type="curve" smooth="yes" name="ah01"/>
      <point x="324" y="646" type="line" name="sh06"/>
      <point x="324" y="864" type="line"/>
      <point x="696" y="1233" type="line"/>
      <point x="130" y="1233" type="line"/>
      <point x="130" y="1493" type="line"/>
      <point x="1140" y="1493" type="line"/>
      <point x="1140" y="1249" type="line"/>
      <point x="739" y="848" type="line"/>
      <point x="931" y="835"/>
      <point x="1045" y="819"/>
      <point x="1142" y="685" type="curve" smooth="yes" name="hr01"/>
      <point x="1198" y="609"/>
      <point x="1223" y="529"/>
      <point x="1223" y="421" type="curve" smooth="yes"/>
      <point x="1223" y="50"/>
      <point x="913" y="-28"/>
    </contour>
  </outline>
</glyph>
<glyph name="uni04EB" format="1">
  <advance width="1233"/>
  <unicode hex="04EB"/>
  <outline>
    <contour>
      <point x="331" y="1347" type="line" smooth="yes" name="dv03"/>
      <point x="311" y="1347" name="sh01"/>
      <point x="301" y="1357"/>
      <point x="301" y="1377" type="curve" smooth="yes" name="dv04"/>
      <point x="301" y="1563" type="line" smooth="yes"/>
      <point x="301" y="1583"/>
      <point x="311" y="1593" name="dh02"/>
      <point x="331" y="1593" type="curve" smooth="yes"/>
      <point x="507" y="1593" type="line" smooth="yes" name="sv01"/>
      <point x="527" y="1593" name="dh03"/>
      <point x="537" y="1583"/>
      <point x="537" y="1563" type="curve" smooth="yes" name="sv02"/>
      <point x="537" y="1377" type="line" smooth="yes"/>
      <point x="537" y="1357"/>
      <point x="527" y="1347" name="dh04"/>
      <point x="507" y="1347" type="curve" smooth="yes"/>
    </contour>
    <contour>
      <point x="726" y="1347" type="line" smooth="yes" name="dv01"/>
      <point x="706" y="1347"/>
      <point x="696" y="1357" name="dh01"/>
      <point x="696" y="1377" type="curve" smooth="yes" name="at01"/>
      <point x="696" y="1563" type="line" smooth="yes" name="sh02"/>
      <point x="696" y="1583"/>
      <point x="706" y="1593" name="dv06"/>
      <point x="726" y="1593" type="curve" smooth="yes" name="sv03"/>
      <point x="902" y="1593" type="line" smooth="yes"/>
      <point x="922" y="1593" name="dv02"/>
      <point x="932" y="1583" name="dv05"/>
      <point x="932" y="1563" type="curve" smooth="yes"/>
      <point x="932" y="1377" type="line" smooth="yes" name="hr01"/>
      <point x="932" y="1357"/>
      <point x="922" y="1347" name="sh03"/>
      <point x="902" y="1347" type="curve" smooth="yes"/>
    </contour>
    <contour>
      <point x="614" y="-29" type="curve" smooth="yes"/>
      <point x="457" y="-29"/>
      <point x="332" y="24"/>
      <point x="238" y="130" type="curve" smooth="yes"/>
      <point x="145" y="235"/>
      <point x="98" y="379"/>
      <point x="98" y="556" type="curve" smooth="yes"/>
      <point x="98" y="921"/>
      <point x="300" y="1147"/>
      <point x="616" y="1147" type="curve" smooth="yes"/>
      <point x="933" y="1147"/>
      <point x="1135" y="920"/>
      <point x="1135" y="559" type="curve" smooth="yes"/>
      <point x="1135" y="198"/>
      <point x="934" y="-29"/>
    </contour>
    <contour>
      <point x="839" y="632" type="line"/>
      <point x="823" y="783"/>
      <point x="758" y="909"/>
      <point x="616" y="909" type="curve" smooth="yes"/>
      <point x="475" y="909"/>
      <point x="410" y="783"/>
      <point x="394" y="632" type="curve"/>
    </contour>
    <contour>
      <point x="616" y="209" type="curve" smooth="yes"/>
      <point x="756" y="209"/>
      <point x="814" y="330"/>
      <point x="832" y="438" type="curve" name="hr02"/>
      <point x="401" y="438" type="line"/>
      <point x="419" y="330"/>
      <point x="477" y="209"/>
    </contour>
  </outline>
</glyph>
<glyph name="uni04F8" format="1">
  <advance width="1233"/>
  <unicode hex="04F8"/>
  <outline>
    <contour>
      <point x="371" y="1606" type="line" smooth="yes" name="dv01"/>
      <point x="351" y="1606" name="dh03"/>
      <point x="341" y="1616"/>
      <point x="341" y="1636" type="curve" smooth="yes" name="dv02"/>
      <point x="341" y="1822" type="line" smooth="yes"/>
      <point x="341" y="1842"/>
      <point x="351" y="1852" name="dh04"/>
      <point x="371" y="1852" type="curve" smooth="yes"/>
      <point x="547" y="1852" type="line" smooth="yes" name="sv01"/>
      <point x="567" y="1852" name="dh05"/>
      <point x="577" y="1842"/>
      <point x="577" y="1822" type="curve" smooth="yes" name="sv02"/>
      <point x="577" y="1636" type="line" smooth="yes"/>
      <point x="577" y="1616"/>
      <point x="567" y="1606" name="dh06"/>
      <point x="547" y="1606" type="curve" smooth="yes"/>
    </contour>
    <contour>
      <point x="766" y="1606" type="line" smooth="yes" name="dh01"/>
      <point x="746" y="1606" name="dh02"/>
      <point x="736" y="1616"/>
      <point x="736" y="1636" type="curve" smooth="yes" name="dv03"/>
      <point x="736" y="1822" type="line" smooth="yes" name="sh01"/>
      <point x="736" y="1842" name="ab01"/>
      <point x="746" y="1852"/>
      <point x="766" y="1852" type="curve" smooth="yes" name="ih01"/>
      <point x="942" y="1852" type="line" smooth="yes" name="sh02"/>
      <point x="962" y="1852" name="ab02"/>
      <point x="972" y="1842"/>
      <point x="972" y="1822" type="curve" smooth="yes" name="sv03"/>
      <point x="972" y="1636" type="line" smooth="yes" name="sh03"/>
      <point x="972" y="1616"/>
      <point x="962" y="1606" name="sh04"/>
      <point x="942" y="1606" type="curve" smooth="yes"/>
    </contour>
    <contour>
      <point x="40" y="1493" type="line"/>
      <point x="295" y="1493" type="line" name="sh05"/>
      <point x="295" y="913" type="line"/>
      <point x="305" y="913" type="line" smooth="yes"/>
      <point x="655" y="913"/>
      <point x="841" y="774"/>
      <point x="841" y="456" type="curve" smooth="yes"/>
      <point x="841" y="143"/>
      <point x="661" y="0"/>
      <point x="305" y="0" type="curve" smooth="yes"/>
      <point x="40" y="0" type="line"/>
    </contour>
    <contour>
      <point x="938" y="1493" type="line"/>
      <point x="1193" y="1493" type="line"/>
      <point x="1193" y="0" type="line"/>
      <point x="938" y="0" type="line"/>
    </contour>
    <contour>
      <point x="316" y="236" type="line" smooth="yes"/>
      <point x="524" y="236"/>
      <point x="586" y="294"/>
      <point x="586" y="455" type="curve" smooth="yes"/>
      <point x="586" y="624"/>
      <point x="518" y="678"/>
      <point x="316" y="678" type="curve" smooth="yes"/>
      <point x="295" y="678" type="line"/>
      <point x="295" y="236" type="line"/>
    </contour>
  </outline>
</glyph>
<glyph name="uni0535" format="1">
  <advance width="1233"/>
  <unicode hex="0535"/>
  <outline>
    <contour>
      <point x="608" y="-29" type="curve" smooth="yes" name="dv01"/>
      <point x="428" y="-29"/>
      <point x="303" y="14" name="sh01"/>
      <point x="219" y="109" type="curve" smooth="yes" name="at01"/>
      <point x="135" y="204" name="sh03"/>
      <point x="98" y="346" name="at02"/>
      <point x="98" y="551" type="curve" smooth="yes"/>
      <point x="98" y="1493" type="line" name="sv01"/>
      <point x="393" y="1493" type="line"/>
      <point x="393" y="1120" type="line" name="sh02"/>
      <point x="1148" y="1120" type="line" name="dv02"/>
      <point x="1148" y="860" type="line"/>
      <point x="393" y="860" type="line" name="ah02"/>
      <point x="393" y="477" type="line" smooth="yes"/>
      <point x="393" y="328" name="sh04"/>
      <point x="471" y="238"/>
      <point x="608" y="238" type="curve" smooth="yes"/>
      <point x="745" y="238" name="ah01"/>
      <point x="823" y="328" name="sh05"/>
      <point x="823" y="477" type="curve" smooth="yes"/>
      <point x="823" y="618" type="line"/>
      <point x="1118" y="618" type="line"/>
      <point x="1118" y="551" type="line" smooth="yes"/>
      <point x="1118" y="346"/>
      <point x="1081" y="204"/>
      <point x="997" y="109" type="curve" smooth="yes"/>
      <point x="913" y="14"/>
      <point x="788" y="-29"/>
    </contour>
  </outline>
</glyph>
<glyph name="uni0556" format="1">
  <advance width="1233"/>
  <unicode hex="0556"/>
  <outline>
    <contour>
      <point x="614" y="-29" type="curve" smooth="yes" name="dv01"/>
      <point x="439" y="-29"/>
      <point x="320" y="-2"/>
      <point x="233" y="47" type="curve" smooth="yes" name="dh01"/>
      <point x="146" y="96" name="dh02"/>
      <point x="96" y="167"/>
      <point x="67" y="255" type="curve" smooth="yes" name="dh03"/>
      <point x="38" y="343" name="sv01"/>
      <point x="31" y="445"/>
      <point x="31" y="562" type="curve"/>
      <point x="282" y="562" type="line" name="at01"/>
      <point x="282" y="445" name="sh01"/>
      <point x="285" y="360" name="at02"/>
      <point x="313" y="303" type="curve" smooth="yes" name="hr01"/>
      <point x="340" y="247" name="dh06"/>
      <point x="388" y="217"/>
      <point x="487" y="213" type="curve"/>
      <point x="487" y="890" type="line"/>
      <point x="234" y="903" name="sh02"/>
      <point x="115" y="999"/>
      <point x="115" y="1198" type="curve" smooth="yes"/>
      <point x="115" y="1290"/>
      <point x="141" y="1369" name="at03"/>
      <point x="202" y="1420" type="curve" smooth="yes" name="dh04"/>
      <point x="263" y="1471"/>
      <point x="360" y="1493" name="dh05"/>
      <point x="508" y="1493" type="curve" smooth="yes"/>
      <point x="742" y="1493" type="line" name="sv02"/>
      <point x="742" y="1118" type="line"/>
      <point x="923" y="1111" name="sh03"/>
      <point x="1036" y="1061"/>
      <point x="1107" y="966" type="curve" smooth="yes"/>
      <point x="1178" y="871"/>
      <point x="1201" y="739"/>
      <point x="1201" y="555" type="curve" smooth="yes"/>
      <point x="1201" y="448"/>
      <point x="1193" y="343"/>
      <point x="1164" y="255" type="curve" smooth="yes" name="hr02"/>
      <point x="1135" y="167"/>
      <point x="1085" y="96"/>
      <point x="997" y="47" type="curve" smooth="yes"/>
      <point x="909" y="-2"/>
      <point x="787" y="-29"/>
    </contour>
    <contour>
      <point x="487" y="1263" type="line"/>
      <point x="439" y="1263"/>
      <point x="409" y="1256"/>
      <point x="392" y="1244" type="curve" smooth="yes"/>
      <point x="375" y="1231"/>
      <point x="370" y="1213"/>
      <point x="370" y="1190" type="curve" smooth="yes"/>
      <point x="370" y="1167"/>
      <point x="375" y="1150"/>
      <point x="392" y="1139" type="curve" smooth="yes"/>
      <point x="409" y="1127"/>
      <point x="440" y="1121"/>
      <point x="487" y="1121" type="curve"/>
    </contour>
    <contour>
      <point x="742" y="213" type="line"/>
      <point x="839" y="217"/>
      <point x="891" y="246"/>
      <point x="918" y="303" type="curve" smooth="yes"/>
      <point x="945" y="360"/>
      <point x="947" y="445"/>
      <point x="947" y="562" type="curve" smooth="yes"/>
      <point x="947" y="679"/>
      <point x="945" y="759"/>
      <point x="918" y="811" type="curve" smooth="yes"/>
      <point x="891" y="863"/>
      <point x="839" y="886"/>
      <point x="742" y="890" type="curve"/>
    </contour>
  </outline>
</glyph>
<glyph name="uni055E" format="1">
  <advance width="1233"/>
  <unicode hex="055E"/>
  <outline>
    <contour>
      <point x="840" y="1209" type="curve" smooth="yes" name="dv01"/>
      <point x="772" y="1209"/>
      <point x="706" y="1223"/>
      <point x="650" y="1262" type="curve" smooth="yes" name="sv01"/>
      <point x="591" y="1302" name="dv02"/>
      <point x="554" y="1359"/>
      <point x="542" y="1454" type="curve" name="dh01"/>
      <point x="707" y="1454" type="line"/>
      <point x="715" y="1411" name="dv03"/>
      <point x="754" y="1393"/>
      <point x="799" y="1393" type="curve" smooth="yes"/>
      <point x="835" y="1393"/>
      <point x="859" y="1405"/>
      <point x="875" y="1425" type="curve" smooth="yes"/>
      <point x="892" y="1446" name="dv04"/>
      <point x="896" y="1472"/>
      <point x="896" y="1492" type="curve" smooth="yes" name="dh02"/>
      <point x="896" y="1543"/>
      <point x="872" y="1572"/>
      <point x="833" y="1593" type="curve" smooth="yes"/>
      <point x="794" y="1614" name="sh01"/>
      <point x="743" y="1624"/>
      <point x="687" y="1624" type="curve" smooth="yes"/>
      <point x="574" y="1624"/>
      <point x="476" y="1584"/>
      <point x="401" y="1521" type="curve" smooth="yes"/>
      <point x="320" y="1453"/>
      <point x="273" y="1368"/>
      <point x="261" y="1265" type="curve"/>
      <point x="67" y="1265" type="line"/>
      <point x="71" y="1385"/>
      <point x="110" y="1489"/>
      <point x="171" y="1577" type="curve" smooth="yes"/>
      <point x="234" y="1666"/>
      <point x="316" y="1734"/>
      <point x="412" y="1782" type="curve" smooth="yes"/>
      <point x="507" y="1829"/>
      <point x="609" y="1856"/>
      <point x="724" y="1856" type="curve" smooth="yes"/>
      <point x="861" y="1856"/>
      <point x="970" y="1817"/>
      <point x="1046" y="1753" type="curve" smooth="yes" name="hr01"/>
      <point x="1123" y="1689"/>
      <point x="1165" y="1601"/>
      <point x="1165" y="1504" type="curve" smooth="yes"/>
      <point x="1165" y="1424"/>
      <point x="1138" y="1354"/>
      <point x="1082" y="1299" type="curve" smooth="yes"/>
      <point x="1026" y="1243"/>
      <point x="944" y="1209"/>
    </contour>
  </outline>
</glyph>
<glyph name="uni0563" format="1">
  <advance width="1233"/>
  <unicode hex="0563"/>
  <outline>
    <contour>
      <point x="766" y="158" type="line" name="dh03"/>
      <point x="690" y="29" name="dv01"/>
      <point x="601" y="-29"/>
      <point x="470" y="-29" type="curve" smooth="yes" name="dh01"/>
      <point x="342" y="-29"/>
      <point x="242" y="25" name="at02"/>
      <point x="173" y="124" type="curve" smooth="yes" name="sh01"/>
      <point x="102" y="224" name="at01"/>
      <point x="65" y="367"/>
      <point x="65" y="558" type="curve" smooth="yes" name="dh04"/>
      <point x="65" y="746" name="sh02"/>
      <point x="102" y="892" name="ab02"/>
      <point x="171" y="993" type="curve" smooth="yes" name="sh03"/>
      <point x="240" y="1093" name="ab01"/>
      <point x="342" y="1147"/>
      <point x="467" y="1147" type="curve" smooth="yes" name="sv02"/>
      <point x="606" y="1147"/>
      <point x="702" y="1083" name="sh04"/>
      <point x="766" y="952" type="curve"/>
      <point x="795" y="1120" type="line" name="sv01"/>
      <point x="1058" y="1120" type="line"/>
      <point x="1058" y="225" type="line"/>
      <point x="1167" y="225" type="line" name="dh02"/>
      <point x="1167" y="0" type="line"/>
      <point x="1058" y="0" type="line" name="hr01"/>
      <point x="1058" y="-426" type="line" name="hr02"/>
      <point x="766" y="-426" type="line" name="sh05"/>
    </contour>
    <contour>
      <point x="560" y="215" type="curve" smooth="yes" name="hr03"/>
      <point x="625" y="215"/>
      <point x="676" y="248"/>
      <point x="711" y="308" type="curve" smooth="yes"/>
      <point x="746" y="368"/>
      <point x="766" y="452"/>
      <point x="766" y="561" type="curve" smooth="yes"/>
      <point x="766" y="668"/>
      <point x="748" y="752"/>
      <point x="711" y="814" type="curve" smooth="yes"/>
      <point x="676" y="874"/>
      <point x="626" y="907"/>
      <point x="561" y="907" type="curve" smooth="yes" name="hr04"/>
      <point x="494" y="907"/>
      <point x="445" y="872"/>
      <point x="412" y="815" type="curve" smooth="yes"/>
      <point x="395" y="785"/>
      <point x="381" y="749"/>
      <point x="372" y="706" type="curve" smooth="yes"/>
      <point x="363" y="663"/>
      <point x="358" y="617"/>
      <point x="358" y="561" type="curve" smooth="yes"/>
      <point x="358" y="453"/>
      <point x="377" y="367"/>
      <point x="412" y="307" type="curve" smooth="yes"/>
      <point x="448" y="246"/>
      <point x="497" y="215"/>
    </contour>
  </outline>
</glyph>
<glyph name="uni0569" format="1">
  <advance width="1233"/>
  <unicode hex="0569"/>
  <outline>
    <contour>
      <point x="54" y="1120" type="line" name="dh01"/>
      <point x="345" y="1120" type="line" name="dh02"/>
      <point x="345" y="952" type="line" name="iv01"/>
      <point x="365" y="1013"/>
      <point x="414" y="1063" name="at01"/>
      <point x="478" y="1096" type="curve" smooth="yes"/>
      <point x="542" y="1129" name="dh06"/>
      <point x="613" y="1147" name="dv04"/>
      <point x="688" y="1147" type="curve" smooth="yes" name="dv03"/>
      <point x="791" y="1147" name="sh01"/>
      <point x="897" y="1113"/>
      <point x="977" y="1021" type="curve" smooth="yes" name="dv01"/>
      <point x="1056" y="930"/>
      <point x="1109" y="783" name="dh03"/>
      <point x="1109" y="559" type="curve"/>
      <point x="1178" y="559" type="line" name="sv02"/>
      <point x="1178" y="416" type="line" name="dh05"/>
      <point x="1101" y="416" type="line"/>
      <point x="1082" y="247" name="sv01"/>
      <point x="1024" y="132"/>
      <point x="951" y="63" type="curve" smooth="yes" name="sh02"/>
      <point x="878" y="-5" name="ab01"/>
      <point x="791" y="-29"/>
      <point x="703" y="-29" type="curve" smooth="yes" name="dv02"/>
      <point x="611" y="-29"/>
      <point x="534" y="-2" name="sh03"/>
      <point x="478" y="47" type="curve" smooth="yes" name="sv03"/>
      <point x="422" y="96"/>
      <point x="393" y="166"/>
      <point x="393" y="255" type="curve" smooth="yes" name="dh04"/>
      <point x="393" y="358"/>
      <point x="431" y="434"/>
      <point x="490" y="485" type="curve" smooth="yes"/>
      <point x="549" y="536" name="sh04"/>
      <point x="626" y="559"/>
      <point x="706" y="559" type="curve" smooth="yes"/>
      <point x="808" y="559" type="line"/>
      <point x="808" y="631"/>
      <point x="802" y="728"/>
      <point x="770" y="795" type="curve" smooth="yes"/>
      <point x="737" y="863"/>
      <point x="672" y="909"/>
      <point x="579" y="909" type="curve" smooth="yes"/>
      <point x="511" y="909"/>
      <point x="461" y="885"/>
      <point x="418" y="838" type="curve" smooth="yes"/>
      <point x="375" y="791"/>
      <point x="345" y="729"/>
      <point x="345" y="641" type="curve" smooth="yes"/>
      <point x="345" y="-426" type="line"/>
      <point x="54" y="-426" type="line"/>
    </contour>
    <contour>
      <point x="704" y="107" type="curve" smooth="yes"/>
      <point x="755" y="107"/>
      <point x="777" y="125"/>
      <point x="792" y="169" type="curve" smooth="yes"/>
      <point x="807" y="213"/>
      <point x="808" y="282"/>
      <point x="808" y="386" type="curve" smooth="yes"/>
      <point x="808" y="416" type="line"/>
      <point x="706" y="416" type="line" smooth="yes"/>
      <point x="671" y="416"/>
      <point x="637" y="403"/>
      <point x="610" y="376" type="curve" smooth="yes"/>
      <point x="583" y="348"/>
      <point x="565" y="307"/>
      <point x="565" y="254" type="curve" smooth="yes"/>
      <point x="565" y="214"/>
      <point x="575" y="178"/>
      <point x="598" y="151" type="curve" smooth="yes" name="hr01"/>
      <point x="623" y="122"/>
      <point x="658" y="107"/>
    </contour>
  </outline>
</glyph>
<glyph name="uni056B" format="1">
  <advance width="1233"/>
  <unicode hex="056B"/>
  <outline>
    <contour>
      <point x="167" y="1556" type="line" name="sh01"/>
      <point x="458" y="1556" type="line" name="sh02"/>
      <point x="458" y="952" type="line" name="iv01"/>
      <point x="499" y="1076" name="at01"/>
      <point x="599" y="1147"/>
      <point x="748" y="1147" type="curve" smooth="yes" name="sh03"/>
      <point x="957" y="1147" name="ah02"/>
      <point x="1066" y="1010"/>
      <point x="1066" y="727" type="curve" smooth="yes" name="sv01"/>
      <point x="1066" y="0" type="line" name="sh04"/>
      <point x="775" y="0" type="line" name="ab01"/>
      <point x="775" y="682" type="line" smooth="yes"/>
      <point x="775" y="841" name="ah01"/>
      <point x="732" y="909" name="sh05"/>
      <point x="635" y="909" type="curve" smooth="yes"/>
      <point x="518" y="909"/>
      <point x="458" y="810"/>
      <point x="458" y="641" type="curve" smooth="yes"/>
      <point x="458" y="-426" type="line"/>
      <point x="167" y="-426" type="line"/>
    </contour>
  </outline>
</glyph>
<glyph name="uni0576" format="1">
  <advance width="1233"/>
  <unicode hex="0576"/>
  <outline>
    <contour>
      <point x="549" y="-27" type="curve" smooth="yes" name="ab01"/>
      <point x="340" y="-27" name="sh01"/>
      <point x="231" y="110" name="sv01"/>
      <point x="231" y="393" type="curve" smooth="yes"/>
      <point x="231" y="1331" type="line" name="dh01"/>
      <point x="103" y="1331" type="line" name="dh02"/>
      <point x="103" y="1556" type="line"/>
      <point x="522" y="1556" type="line" name="sv02"/>
      <point x="522" y="438" type="line" smooth="yes" name="sh02"/>
      <point x="522" y="279" name="at01"/>
      <point x="565" y="211"/>
      <point x="662" y="211" type="curve" smooth="yes" name="dh04"/>
      <point x="779" y="211" name="dh03"/>
      <point x="839" y="310" name="iv01"/>
      <point x="839" y="479" type="curve" smooth="yes"/>
      <point x="839" y="1120" type="line"/>
      <point x="1130" y="1120" type="line" name="sh03"/>
      <point x="1130" y="0" type="line"/>
      <point x="839" y="0" type="line" name="hr02"/>
      <point x="839" y="168" type="line"/>
      <point x="798" y="44"/>
      <point x="698" y="-27"/>
    </contour>
  </outline>
</glyph>
<glyph name="uni0578" format="1">
  <advance width="1233"/>
  <unicode hex="0578"/>
  <outline>
    <contour>
      <point x="168" y="1120" type="line" name="sh01"/>
      <point x="430" y="1120" type="line"/>
      <point x="459" y="952" type="line" name="sh02"/>
      <point x="502" y="1081" name="at01"/>
      <point x="606" y="1147"/>
      <point x="749" y="1147" type="curve" smooth="yes" name="sh03"/>
      <point x="957" y="1147" name="ah02"/>
      <point x="1067" y="1008"/>
      <point x="1067" y="727" type="curve" smooth="yes" name="sv01"/>
      <point x="1067" y="0" type="line" name="sh04"/>
      <point x="776" y="0" type="line" name="ab01"/>
      <point x="776" y="682" type="line" smooth="yes"/>
      <point x="776" y="839" name="ah01"/>
      <point x="733" y="909" name="sh05"/>
      <point x="636" y="909" type="curve" smooth="yes"/>
      <point x="519" y="909"/>
      <point x="459" y="810"/>
      <point x="459" y="641" type="curve" smooth="yes"/>
      <point x="459" y="0" type="line" name="hr01"/>
      <point x="168" y="0" type="line"/>
    </contour>
  </outline>
</glyph>
<glyph name="uni057D" format="1">
  <advance width="1233"/>
  <unicode hex="057D"/>
  <outline>
    <contour>
      <point x="486" y="-29" type="curve" smooth="yes" name="sv02"/>
      <point x="277" y="-29" name="sh01"/>
      <point x="166" y="112" name="at01"/>
      <point x="166" y="391" type="curve" smooth="yes"/>
      <point x="166" y="1120" type="line" name="sh02"/>
      <point x="459" y="1120" type="line" name="sv01"/>
      <point x="459" y="436" type="line" smooth="yes" name="sh03"/>
      <point x="459" y="280" name="at02"/>
      <point x="500" y="211"/>
      <point x="599" y="211" type="curve" smooth="yes" name="sh04"/>
      <point x="716" y="211"/>
      <point x="774" y="308" name="ah02"/>
      <point x="774" y="477" type="curve" smooth="yes"/>
      <point x="774" y="1120" type="line" name="ah01"/>
      <point x="1067" y="1120" type="line" name="sh05"/>
      <point x="1067" y="0" type="line"/>
      <point x="803" y="0" type="line"/>
      <point x="774" y="166" type="line"/>
      <point x="733" y="43"/>
      <point x="635" y="-29"/>
    </contour>
  </outline>
</glyph>
<glyph name="uni0581" format="1">
  <advance width="1233"/>
  <unicode hex="0581"/>
  <outline>
    <contour>
      <point x="601" y="-424" type="curve" smooth="yes" name="ab01"/>
      <point x="474" y="-424"/>
      <point x="359" y="-406" name="ih01"/>
      <point x="234" y="-369" type="curve" name="sv01"/>
      <point x="234" y="-100" type="line" name="ah02"/>
      <point x="345" y="-161" name="iv01"/>
      <point x="464" y="-190" name="dv01"/>
      <point x="573" y="-190" type="curve" smooth="yes" name="sh01"/>
      <point x="745" y="-190" name="sv03"/>
      <point x="822" y="-117" name="sh03"/>
      <point x="822" y="51" type="curve" smooth="yes" name="at01"/>
      <point x="822" y="172" type="line"/>
      <point x="763" y="61" name="sh04"/>
      <point x="664" y="14"/>
      <point x="539" y="14" type="curve" smooth="yes" name="dv02"/>
      <point x="276" y="14" name="sh05"/>
      <point x="117" y="228" name="sv02"/>
      <point x="117" y="574" type="curve" smooth="yes" name="sh02"/>
      <point x="117" y="926"/>
      <point x="282" y="1149" name="ah01"/>
      <point x="530" y="1149" type="curve" smooth="yes" name="sh06"/>
      <point x="663" y="1149"/>
      <point x="765" y="1086"/>
      <point x="822" y="977" type="curve"/>
      <point x="851" y="1120" type="line" name="hr01"/>
      <point x="1115" y="1120" type="line"/>
      <point x="1115" y="84" type="line" smooth="yes"/>
      <point x="1115" y="-274"/>
      <point x="963" y="-424"/>
    </contour>
    <contour>
      <point x="615" y="246" type="curve" smooth="yes"/>
      <point x="739" y="246"/>
      <point x="822" y="377"/>
      <point x="822" y="578" type="curve" smooth="yes"/>
      <point x="822" y="778"/>
      <point x="739" y="909"/>
      <point x="615" y="909" type="curve" smooth="yes"/>
      <point x="491" y="909"/>
      <point x="410" y="779"/>
      <point x="410" y="577" type="curve" smooth="yes"/>
      <point x="410" y="375"/>
      <point x="491" y="246"/>
    </contour>
  </outline>
</glyph>
<glyph name="uni10D6" format="1">
  <advance width="1233"/>
  <unicode hex="10D6"/>
  <outline>
    <contour>
      <point x="613" y="0" type="curve" smooth="yes" name="ab01"/>
      <point x="266" y="0" name="sh01"/>
      <point x="98" y="180" name="ih01"/>
      <point x="98" y="519" type="curve" smooth="yes" name="dh01"/>
      <point x="98" y="710" name="dv02"/>
      <point x="150" y="838" name="dh04"/>
      <point x="278" y="910" type="curve" name="ih02"/>
      <point x="170" y="966" name="sh02"/>
      <point x="100" y="1061"/>
      <point x="101" y="1194" type="curve" name="dv04"/>
      <point x="100" y="1431" name="dh03"/>
      <point x="233" y="1550" name="dv01"/>
      <point x="500" y="1550" type="curve" smooth="yes" name="dh02"/>
      <point x="769" y="1550"/>
      <point x="902" y="1432" name="sv01"/>
      <point x="902" y="1215" type="curve" smooth="yes" name="ih03"/>
      <point x="902" y="1123"/>
      <point x="877" y="1047" name="dv03"/>
      <point x="826" y="988" type="curve"/>
      <point x="1030" y="932" name="sh03"/>
      <point x="1136" y="780"/>
      <point x="1136" y="519" type="curve" smooth="yes"/>
      <point x="1136" y="178"/>
      <point x="961" y="0" name="sh04"/>
    </contour>
    <contour>
      <point x="508" y="1010" type="curve" smooth="yes"/>
      <point x="592" y="1010"/>
      <point x="636" y="1072"/>
      <point x="636" y="1188" type="curve" smooth="yes"/>
      <point x="636" y="1285"/>
      <point x="603" y="1343"/>
      <point x="508" y="1343" type="curve" smooth="yes" name="hr01"/>
      <point x="428" y="1343"/>
      <point x="389" y="1301"/>
      <point x="389" y="1184" type="curve" smooth="yes"/>
      <point x="389" y="1064"/>
      <point x="429" y="1010"/>
    </contour>
    <contour>
      <point x="623" y="214" type="curve" smooth="yes" name="hr02"/>
      <point x="764" y="214"/>
      <point x="842" y="319"/>
      <point x="842" y="522" type="curve" smooth="yes"/>
      <point x="842" y="622"/>
      <point x="823" y="706"/>
      <point x="782" y="766" type="curve" smooth="yes" name="hr03"/>
      <point x="743" y="822"/>
      <point x="684" y="852"/>
      <point x="615" y="852" type="curve" smooth="yes"/>
      <point x="546" y="852"/>
      <point x="491" y="823"/>
      <point x="451" y="765" type="curve" smooth="yes"/>
      <point x="412" y="708"/>
      <point x="391" y="626"/>
      <point x="391" y="526" type="curve" smooth="yes"/>
      <point x="391" y="422"/>
      <point x="414" y="345"/>
      <point x="455" y="293" type="curve" smooth="yes"/>
      <point x="494" y="242"/>
      <point x="550" y="214"/>
    </contour>
  </outline>
</glyph>
<glyph name="uni10D8" format="1">
  <advance width="1233"/>
  <unicode hex="10D8"/>
  <outline>
    <contour>
      <point x="324" y="0" type="line" name="ab01"/>
      <point x="228" y="76"/>
      <point x="173" y="154" name="sh01"/>
      <point x="140" y="243" type="curve" smooth="yes" name="dv02"/>
      <point x="107" y="331"/>
      <point x="98" y="428" name="sh02"/>
      <point x="98" y="541" type="curve" smooth="yes"/>
      <point x="97" y="877" name="ab02"/>
      <point x="272" y="1066" name="ih01"/>
      <point x="623" y="1066" type="curve" smooth="yes"/>
      <point x="798" y="1066" name="ah02"/>
      <point x="924" y="1019"/>
      <point x="1009" y="931" type="curve" smooth="yes" name="dv01"/>
      <point x="1096" y="842"/>
      <point x="1136" y="717" name="sh03"/>
      <point x="1136" y="530" type="curve" smooth="yes"/>
      <point x="1136" y="433" name="ih02"/>
      <point x="1125" y="334"/>
      <point x="1094" y="246" type="curve" smooth="yes" name="ah01"/>
      <point x="1062" y="157" name="sh04"/>
      <point x="1009" y="76"/>
      <point x="917" y="0" type="curve"/>
      <point x="688" y="0" type="line"/>
      <point x="768" y="101"/>
      <point x="805" y="192"/>
      <point x="824" y="280" type="curve" smooth="yes"/>
      <point x="843" y="368"/>
      <point x="842" y="453"/>
      <point x="842" y="541" type="curve" smooth="yes"/>
      <point x="842" y="633"/>
      <point x="824" y="714"/>
      <point x="785" y="770" type="curve" smooth="yes"/>
      <point x="750" y="822"/>
      <point x="699" y="854"/>
      <point x="624" y="854" type="curve" smooth="yes"/>
      <point x="561" y="854"/>
      <point x="503" y="832"/>
      <point x="455" y="771" type="curve" smooth="yes"/>
      <point x="410" y="712"/>
      <point x="392" y="640"/>
      <point x="392" y="497" type="curve" smooth="yes"/>
      <point x="392" y="461"/>
      <point x="393" y="372"/>
      <point x="414" y="281" type="curve" smooth="yes"/>
      <point x="437" y="185"/>
      <point x="479" y="96"/>
      <point x="555" y="0" type="curve"/>
    </contour>
  </outline>
</glyph>
<glyph name="uni10D9" format="1">
  <advance width="1233"/>
  <unicode hex="10D9"/>
  <outline>
    <contour>
      <point x="636" y="-402" type="curve" smooth="yes" name="dv01"/>
      <point x="273" y="-402" name="sh01"/>
      <point x="98" y="-250"/>
      <point x="98" y="9" type="curve" smooth="yes"/>
      <point x="98" y="82"/>
      <point x="112" y="127" name="sh03"/>
      <point x="147" y="189" type="curve" smooth="yes" name="sh02"/>
      <point x="176" y="240" name="dv02"/>
      <point x="206" y="278"/>
      <point x="235" y="301" type="curve" name="ah02"/>
      <point x="425" y="177" type="line"/>
      <point x="413" y="158" name="dv04"/>
      <point x="404" y="143"/>
      <point x="400" y="123" type="curve" smooth="yes"/>
      <point x="395" y="100" name="dv05"/>
      <point x="392" y="74" name="sh04"/>
      <point x="392" y="45" type="curve" smooth="yes"/>
      <point x="392" y="-116" name="sh05"/>
      <point x="479" y="-192" name="dv03"/>
      <point x="631" y="-192" type="curve" smooth="yes"/>
      <point x="696" y="-192" name="ih01"/>
      <point x="749" y="-178"/>
      <point x="786" y="-146" type="curve" smooth="yes" name="sh06"/>
      <point x="822" y="-115"/>
      <point x="842" y="-68" name="ah01"/>
      <point x="842" y="0" type="curve" smooth="yes" name="sh07"/>
      <point x="842" y="47" type="line" smooth="yes"/>
      <point x="842" y="195"/>
      <point x="798" y="276"/>
      <point x="681" y="276" type="curve" smooth="yes"/>
      <point x="548" y="276" type="line"/>
      <point x="548" y="496" type="line"/>
      <point x="681" y="496" type="line" smooth="yes"/>
      <point x="788" y="496"/>
      <point x="842" y="540"/>
      <point x="842" y="627" type="curve" smooth="yes"/>
      <point x="842" y="695"/>
      <point x="809" y="742"/>
      <point x="724" y="777" type="curve" smooth="yes"/>
      <point x="648" y="808"/>
      <point x="537" y="824"/>
      <point x="396" y="824" type="curve"/>
      <point x="396" y="1048" type="line"/>
      <point x="877" y="1048"/>
      <point x="1117" y="914"/>
      <point x="1117" y="646" type="curve" smooth="yes"/>
      <point x="1117" y="518"/>
      <point x="1061" y="440"/>
      <point x="912" y="392" type="curve"/>
      <point x="1055" y="340"/>
      <point x="1139" y="225"/>
      <point x="1136" y="58" type="curve" smooth="yes"/>
      <point x="1135" y="0" type="line" smooth="yes"/>
      <point x="1130" y="-267"/>
      <point x="977" y="-402"/>
    </contour>
  </outline>
</glyph>
<glyph name="uni10E1" format="1">
  <advance width="1233"/>
  <unicode hex="10E1"/>
  <outline>
    <contour>
      <point x="617" y="0" type="curve" smooth="yes" name="ab01"/>
      <point x="272" y="0" name="sh01"/>
      <point x="97" y="176" name="at01"/>
      <point x="97" y="525" type="curve" smooth="yes"/>
      <point x="97" y="1517" type="line" name="sh02"/>
      <point x="392" y="1517" type="line" name="sv01"/>
      <point x="392" y="525" type="line" smooth="yes" name="ah02"/>
      <point x="392" y="314"/>
      <point x="480" y="214"/>
      <point x="618" y="214" type="curve" smooth="yes"/>
      <point x="763" y="214" name="sh03"/>
      <point x="842" y="322"/>
      <point x="842" y="513" type="curve" smooth="yes"/>
      <point x="842" y="640"/>
      <point x="805" y="680" name="sh04"/>
      <point x="722" y="734" type="curve" smooth="yes"/>
      <point x="682" y="759" name="sh05"/>
      <point x="639" y="782"/>
      <point x="608" y="833" type="curve" smooth="yes" name="ah01"/>
      <point x="585" y="869" name="sh06"/>
      <point x="578" y="905"/>
      <point x="578" y="940" type="curve" smooth="yes"/>
      <point x="578" y="1052"/>
      <point x="660" y="1155"/>
      <point x="845" y="1262" type="curve"/>
      <point x="916" y="1136" type="line"/>
      <point x="856" y="1113"/>
      <point x="827" y="1087"/>
      <point x="810" y="1056" type="curve" smooth="yes"/>
      <point x="793" y="1025"/>
      <point x="790" y="993"/>
      <point x="790" y="962" type="curve" smooth="yes"/>
      <point x="790" y="946"/>
      <point x="810" y="930"/>
      <point x="841" y="913" type="curve" smooth="yes"/>
      <point x="881" y="892"/>
      <point x="942" y="862"/>
      <point x="955" y="854" type="curve"/>
      <point x="1078" y="791"/>
      <point x="1137" y="683"/>
      <point x="1137" y="498" type="curve" smooth="yes"/>
      <point x="1137" y="183"/>
      <point x="966" y="0"/>
    </contour>
  </outline>
</glyph>
<glyph name="uni10F3" format="1">
  <advance width="1233"/>
  <unicode hex="10F3"/>
  <outline>
    <contour>
      <point x="609" y="-191" type="curve" smooth="yes" name="dv01"/>
      <point x="756" y="-191" name="dh03"/>
      <point x="842" y="-110"/>
      <point x="842" y="31" type="curve" smooth="yes" name="dv02"/>
      <point x="842" y="62" type="line" smooth="yes" name="sh01"/>
      <point x="842" y="223" name="dv03"/>
      <point x="737" y="295" name="sv01"/>
      <point x="565" y="294" type="curve"/>
      <point x="391" y="294" type="line"/>
      <point x="391" y="489" type="line" name="sh02"/>
      <point x="565" y="489" type="line" smooth="yes" name="ih01"/>
      <point x="717" y="489"/>
      <point x="790" y="619" name="sh03"/>
      <point x="789" y="847" type="curve" name="ih02"/>
      <point x="432" y="826" type="line" name="hr01"/>
      <point x="432" y="629" type="line" name="dh04"/>
      <point x="138" y="629" type="line" name="dh01"/>
      <point x="138" y="1034" type="line"/>
      <point x="1136" y="1066" type="line" name="iv01"/>
      <point x="1136" y="767" name="dh02"/>
      <point x="1051" y="551"/>
      <point x="887" y="418" type="curve"/>
      <point x="1053" y="337" name="sh04"/>
      <point x="1136" y="214"/>
      <point x="1136" y="47" type="curve" smooth="yes"/>
      <point x="1136" y="16" type="line" smooth="yes" name="hr02"/>
      <point x="1136" y="-539"/>
      <point x="97" y="-543"/>
      <point x="97" y="21" type="curve"/>
      <point x="140" y="168" type="line"/>
      <point x="438" y="138" type="line"/>
      <point x="391" y="15" type="line"/>
      <point x="391" y="-122"/>
      <point x="474" y="-191"/>
    </contour>
  </outline>
</glyph>
<glyph name="uni10F8" format="1">
  <advance width="1233"/>
  <unicode hex="10F8"/>
  <outline>
    <contour>
      <point x="617" y="-403" type="curve" smooth="yes" name="dv01"/>
      <point x="278" y="-403" name="sh01"/>
      <point x="99" y="-263"/>
      <point x="99" y="12" type="curve" smooth="yes" name="sh03"/>
      <point x="99" y="1044" type="line"/>
      <point x="393" y="1044" type="line" name="dv04"/>
      <point x="393" y="471" type="line" smooth="yes" name="ah02"/>
      <point x="393" y="375"/>
      <point x="481" y="330" name="ih01"/>
      <point x="605" y="330" type="curve" smooth="yes" name="av01"/>
      <point x="758" y="330"/>
      <point x="843" y="399" name="sh04"/>
      <point x="843" y="575" type="curve" smooth="yes" name="dv03"/>
      <point x="843" y="652" name="iv01"/>
      <point x="828" y="725" name="sh02"/>
      <point x="785" y="794" type="curve" smooth="yes" name="dv02"/>
      <point x="744" y="862" name="sh06"/>
      <point x="675" y="931" name="sh05"/>
      <point x="574" y="995" type="curve"/>
      <point x="859" y="1093" type="line" name="ah01"/>
      <point x="967" y="1009" name="sh07"/>
      <point x="1035" y="926"/>
      <point x="1078" y="842" type="curve" smooth="yes"/>
      <point x="1122" y="754"/>
      <point x="1136" y="665"/>
      <point x="1136" y="576" type="curve" smooth="yes"/>
      <point x="1136" y="265"/>
      <point x="965" y="108"/>
      <point x="625" y="108" type="curve" smooth="yes"/>
      <point x="526" y="108"/>
      <point x="453" y="121"/>
      <point x="393" y="146" type="curve"/>
      <point x="393" y="16" type="line" smooth="yes"/>
      <point x="393" y="-124"/>
      <point x="472" y="-191"/>
      <point x="612" y="-191" type="curve" smooth="yes"/>
      <point x="765" y="-191"/>
      <point x="843" y="-111"/>
      <point x="843" y="54" type="curve"/>
      <point x="1137" y="54" type="line"/>
      <point x="1134" y="-257"/>
      <point x="964" y="-403"/>
    </contour>
  </outline>
</glyph>
<glyph name="Wgrave" format="1">
  <advance width="1233"/>
  <unicode hex="1E80"/>
  <outline>
    <contour>
      <point x="283" y="1859" type="line" name="av01"/>
      <point x="567" y="1859" type="line"/>
      <point x="766" y="1595" type="line" name="iv01"/>
      <point x="569" y="1595" type="line"/>
    </contour>
    <contour>
      <point x="0" y="1493" type="line" name="at01"/>
      <point x="258" y="1493" type="line"/>
      <point x="365" y="397" type="line" name="iv02"/>
      <point x="494" y="1106" type="line"/>
      <point x="739" y="1106" type="line"/>
      <point x="889" y="397" type="line" name="iv03"/>
      <point x="973" y="1493" type="line" name="at02"/>
      <point x="1233" y="1493" type="line"/>
      <point x="1061" y="0" type="line" name="ab01"/>
      <point x="786" y="0" type="line"/>
      <point x="616" y="784" type="line" name="iv04"/>
      <point x="457" y="0" type="line" name="ab02"/>
      <point x="184" y="0" type="line"/>
    </contour>
  </outline>
</glyph>
<glyph name="uni1EF8" format="1">
  <advance width="1233"/>
  <unicode hex="1EF8"/>
  <outline>
    <contour>
      <point x="428" y="1588" type="line"/>
      <point x="428" y="1594" type="line" smooth="yes"/>
      <point x="428" y="1662"/>
      <point x="456" y="1704"/>
      <point x="500" y="1704" type="curve" smooth="yes" name="hr01"/>
      <point x="521" y="1704"/>
      <point x="540" y="1695"/>
      <point x="572" y="1678" type="curve" smooth="yes"/>
      <point x="584" y="1671" type="line"/>
      <point x="638" y="1637" type="line" smooth="yes"/>
      <point x="694" y="1602"/>
      <point x="737" y="1588"/>
      <point x="785" y="1588" type="curve" smooth="yes" name="hr02"/>
      <point x="845" y="1588"/>
      <point x="895" y="1612"/>
      <point x="930" y="1653" type="curve" smooth="yes"/>
      <point x="965" y="1694"/>
      <point x="983" y="1754"/>
      <point x="983" y="1826" type="curve" smooth="yes"/>
      <point x="983" y="1831" type="line" smooth="yes"/>
      <point x="983" y="1834"/>
      <point x="983" y="1837"/>
      <point x="984" y="1839" type="curve" smooth="yes"/>
      <point x="985" y="1841"/>
      <point x="985" y="1844"/>
      <point x="985" y="1848" type="curve" smooth="yes"/>
      <point x="985" y="1854" type="line" name="hr03"/>
      <point x="845" y="1854" type="line"/>
      <point x="845" y="1778"/>
      <point x="818" y="1737"/>
      <point x="771" y="1737" type="curve" smooth="yes" name="hr04"/>
      <point x="746" y="1737"/>
      <point x="725" y="1746"/>
      <point x="694" y="1766" type="curve" smooth="yes"/>
      <point x="634" y="1805" type="line" smooth="yes"/>
      <point x="583" y="1838"/>
      <point x="533" y="1854"/>
      <point x="483" y="1854" type="curve" smooth="yes" name="hr05"/>
      <point x="427" y="1854"/>
      <point x="379" y="1830"/>
      <point x="343" y="1789" type="curve" smooth="yes"/>
      <point x="307" y="1748"/>
      <point x="288" y="1689"/>
      <point x="288" y="1618" type="curve" smooth="yes"/>
      <point x="288" y="1588" type="line" name="hr06"/>
    </contour>
    <contour>
      <point x="764" y="0" type="line"/>
      <point x="764" y="588" type="line"/>
      <point x="1225" y="1493" type="line"/>
      <point x="907" y="1493" type="line"/>
      <point x="616" y="893" type="line"/>
      <point x="326" y="1493" type="line"/>
      <point x="8" y="1493" type="line"/>
      <point x="469" y="588" type="line"/>
      <point x="469" y="0" type="line"/>
    </contour>
  </outline>
</glyph>
<glyph name="quotedblright" format="1">
  <advance width="1233"/>
  <unicode hex="201D"/>
  <outline>
    <contour>
      <point x="248" y="1286" type="line" name="sh01"/>
      <point x="248" y="1556" type="line" name="at01"/>
      <point x="561" y="1556" type="line"/>
      <point x="561" y="1286" type="line" name="sh02"/>
      <point x="365" y="903" type="line" name="av01"/>
      <point x="150" y="903" type="line"/>
    </contour>
    <contour>
      <point x="768" y="1286" type="line" name="ah01"/>
      <point x="768" y="1556" type="line" name="at02"/>
      <point x="1081" y="1556" type="line"/>
      <point x="1081" y="1286" type="line" name="sh03"/>
      <point x="885" y="903" type="line" name="av02"/>
      <point x="670" y="903" type="line"/>
    </contour>
  </outline>
</glyph>
<glyph name="uni2049" format="1">
  <advance width="1233"/>
  <unicode hex="2049"/>
  <outline>
    <contour>
      <point x="748" y="555" type="line" name="dh03"/>
      <point x="768" y="724" type="line"/>
      <point x="797" y="839"/>
      <point x="819" y="862" name="ih01"/>
      <point x="858" y="920" type="curve" smooth="yes"/>
      <point x="911" y="1000" name="ih02"/>
      <point x="928" y="1051"/>
      <point x="928" y="1103" type="curve" smooth="yes" name="at01"/>
      <point x="928" y="1196" name="sh01"/>
      <point x="877" y="1269"/>
      <point x="789" y="1213" type="curve"/>
      <point x="748" y="1196"/>
      <point x="703" y="1157" name="dh04"/>
      <point x="654" y="1098" type="curve"/>
      <point x="654" y="1407" type="line"/>
      <point x="739" y="1482" name="ih03"/>
      <point x="826" y="1520" name="at02"/>
      <point x="915" y="1520" type="curve" smooth="yes"/>
      <point x="1088" y="1520" name="sh02"/>
      <point x="1195" y="1380"/>
      <point x="1195" y="1179" type="curve" smooth="yes"/>
      <point x="1195" y="1071" name="dv01"/>
      <point x="1165" y="979"/>
      <point x="1112" y="884" type="curve" smooth="yes" name="dh01"/>
      <point x="1059" y="788"/>
      <point x="1042" y="761" name="dv02"/>
      <point x="1029" y="674" type="curve" smooth="yes" name="sv01"/>
      <point x="1024" y="636"/>
      <point x="1016" y="579"/>
      <point x="1016" y="571" type="curve" smooth="yes"/>
      <point x="1015" y="524" type="line"/>
      <point x="1015" y="401" type="line" name="dh02"/>
      <point x="748" y="401" type="line"/>
    </contour>
    <contour>
      <point x="159" y="838" type="line"/>
      <point x="159" y="1493" type="line" name="sv02"/>
      <point x="426" y="1493" type="line"/>
      <point x="426" y="838" type="line"/>
      <point x="393" y="481" type="line"/>
      <point x="194" y="481" type="line" name="sv03"/>
    </contour>
    <contour>
      <point x="290" y="-50" type="curve" smooth="yes" name="sv04"/>
      <point x="245" y="-50"/>
      <point x="207" y="-34"/>
      <point x="176" y="-3" type="curve" smooth="yes"/>
      <point x="145" y="28"/>
      <point x="129" y="68" name="sh03"/>
      <point x="129" y="117" type="curve" smooth="yes"/>
      <point x="129" y="166"/>
      <point x="145" y="208"/>
      <point x="176" y="239" type="curve" smooth="yes" name="sh04"/>
      <point x="208" y="270"/>
      <point x="250" y="284"/>
      <point x="290" y="284" type="curve" smooth="yes"/>
      <point x="301" y="284"/>
      <point x="312" y="283"/>
      <point x="323" y="281" type="curve" smooth="yes"/>
      <point x="328" y="280"/>
      <point x="341" y="277"/>
      <point x="352" y="272" type="curve" smooth="yes"/>
      <point x="361" y="268"/>
      <point x="374" y="261"/>
      <point x="379" y="258" type="curve" smooth="yes" name="hr01"/>
      <point x="384" y="255"/>
      <point x="393" y="248"/>
      <point x="404" y="237" type="curve" smooth="yes"/>
      <point x="417" y="224"/>
      <point x="430" y="207"/>
      <point x="439" y="184" type="curve" smooth="yes"/>
      <point x="447" y="164"/>
      <point x="451" y="142"/>
      <point x="451" y="118" type="curve" smooth="yes"/>
      <point x="451" y="69"/>
      <point x="435" y="28"/>
      <point x="404" y="-3" type="curve" smooth="yes"/>
      <point x="373" y="-34"/>
      <point x="335" y="-50"/>
    </contour>
    <contour>
      <point x="894" y="-50" type="curve" smooth="yes"/>
      <point x="849" y="-50"/>
      <point x="811" y="-34"/>
      <point x="780" y="-3" type="curve" smooth="yes"/>
      <point x="749" y="28"/>
      <point x="733" y="68"/>
      <point x="733" y="117" type="curve" smooth="yes"/>
      <point x="733" y="166"/>
      <point x="749" y="208"/>
      <point x="780" y="239" type="curve" smooth="yes"/>
      <point x="812" y="270"/>
      <point x="854" y="284"/>
      <point x="894" y="284" type="curve" smooth="yes" name="hr02"/>
      <point x="905" y="284"/>
      <point x="916" y="283"/>
      <point x="927" y="281" type="curve" smooth="yes"/>
      <point x="932" y="280"/>
      <point x="945" y="277"/>
      <point x="956" y="272" type="curve" smooth="yes"/>
      <point x="965" y="268"/>
      <point x="978" y="261"/>
      <point x="983" y="258" type="curve" smooth="yes"/>
      <point x="988" y="255"/>
      <point x="997" y="248"/>
      <point x="1008" y="237" type="curve" smooth="yes"/>
      <point x="1021" y="224"/>
      <point x="1034" y="207"/>
      <point x="1043" y="184" type="curve" smooth="yes"/>
      <point x="1051" y="164"/>
      <point x="1055" y="142"/>
      <point x="1055" y="118" type="curve" smooth="yes"/>
      <point x="1055" y="69"/>
      <point x="1039" y="28"/>
      <point x="1008" y="-3" type="curve" smooth="yes"/>
      <point x="977" y="-34"/>
      <point x="939" y="-50"/>
    </contour>
  </outline>
</glyph>
<glyph name="uni2070" format="1">
  <advance width="1233"/>
  <unicode hex="2070"/>
  <outline>
    <contour>
      <point x="615" y="1113" type="curve" smooth="yes" name="dv01"/>
      <point x="390" y="1113" name="dh01"/>
      <point x="278" y="1258" name="dv04"/>
      <point x="278" y="1547" type="curve" smooth="yes" name="dh06"/>
      <point x="278" y="1836"/>
      <point x="390" y="1980" name="dv02"/>
      <point x="615" y="1980" type="curve" smooth="yes"/>
      <point x="841" y="1980" name="dh05"/>
      <point x="954" y="1836"/>
      <point x="954" y="1547" type="curve" smooth="yes" name="dv03"/>
      <point x="954" y="1258"/>
      <point x="841" y="1113" name="dh02"/>
    </contour>
    <contour>
      <point x="616" y="1253" type="curve" smooth="yes"/>
      <point x="663" y="1253"/>
      <point x="697" y="1276"/>
      <point x="718" y="1323" type="curve" smooth="yes" name="dh03"/>
      <point x="739" y="1370" name="sv01"/>
      <point x="750" y="1444" name="dh04"/>
      <point x="750" y="1546" type="curve" smooth="yes"/>
      <point x="750" y="1647"/>
      <point x="739" y="1722" name="sh01"/>
      <point x="718" y="1770" type="curve" smooth="yes"/>
      <point x="697" y="1817"/>
      <point x="663" y="1840"/>
      <point x="616" y="1840" type="curve" smooth="yes"/>
      <point x="564" y="1840"/>
      <point x="534" y="1813"/>
      <point x="514" y="1770" type="curve" smooth="yes"/>
      <point x="492" y="1723"/>
      <point x="481" y="1648"/>
      <point x="481" y="1546" type="curve" smooth="yes"/>
      <point x="481" y="1445"/>
      <point x="492" y="1371"/>
      <point x="514" y="1323" type="curve" smooth="yes"/>
      <point x="534" y="1280"/>
      <point x="564" y="1253"/>
    </contour>
    <contour>
      <point x="616" y="1476" type="curve" smooth="yes"/>
      <point x="591" y="1476"/>
      <point x="570" y="1484"/>
      <point x="555" y="1496" type="curve" smooth="yes"/>
      <point x="539" y="1509"/>
      <point x="531" y="1525"/>
      <point x="531" y="1545" type="curve" smooth="yes"/>
      <point x="531" y="1586"/>
      <point x="568" y="1617"/>
      <point x="615" y="1617" type="curve" smooth="yes"/>
      <point x="662" y="1617"/>
      <point x="701" y="1586"/>
      <point x="701" y="1546" type="curve" smooth="yes"/>
      <point x="701" y="1507"/>
      <point x="664" y="1476"/>
    </contour>
  </outline>
</glyph>
<glyph name="uni207A" format="1">
  <advance width="1233"/>
  <unicode hex="207A"/>
  <outline>
    <contour>
      <point x="542" y="961" type="line" name="dh01"/>
      <point x="270" y="961" type="line"/>
      <point x="270" y="1095" type="line"/>
      <point x="542" y="1095" type="line" name="sh01"/>
      <point x="542" y="1336" type="line" name="av02"/>
      <point x="692" y="1336" type="line" name="sh02"/>
      <point x="692" y="1095" type="line" name="sv01"/>
      <point x="962" y="1095" type="line"/>
      <point x="962" y="961" type="line" name="sv02"/>
      <point x="692" y="961" type="line" name="dh02"/>
      <point x="692" y="720" type="line" name="av01"/>
      <point x="542" y="720" type="line"/>
    </contour>
  </outline>
</glyph>
<glyph name="dong" format="1">
  <advance width="1233"/>
  <unicode hex="20AB"/>
  <outline>
    <contour>
      <point x="637" y="-25" type="curve" smooth="yes" name="ab01"/>
      <point x="385" y="-25" name="sh01"/>
      <point x="236" y="190" name="dv04"/>
      <point x="236" y="563" type="curve" smooth="yes"/>
      <point x="236" y="942" name="ah02"/>
      <point x="390" y="1151"/>
      <point x="641" y="1151" type="curve" smooth="yes"/>
      <point x="772" y="1151" name="sh02"/>
      <point x="860" y="1096" name="at01"/>
      <point x="937" y="965" type="curve" name="sh04"/>
      <point x="937" y="1255" type="line" name="sv01"/>
      <point x="631" y="1255" type="line"/>
      <point x="631" y="1444" type="line" name="sv02"/>
      <point x="937" y="1444" type="line" name="sh03"/>
      <point x="937" y="1560" type="line"/>
      <point x="1229" y="1560" type="line" name="sh05"/>
      <point x="1229" y="1444" type="line" name="ih01"/>
      <point x="1375" y="1444" type="line" name="hr01"/>
      <point x="1375" y="1255" type="line" name="sv03"/>
      <point x="1229" y="1255" type="line" name="sh06"/>
      <point x="1229" y="4" type="line" name="dv03"/>
      <point x="937" y="4" type="line" name="sh07"/>
      <point x="937" y="170" type="line"/>
      <point x="874" y="43"/>
      <point x="781" y="-25" name="dv02"/>
    </contour>
    <contour>
      <point x="732" y="215" type="curve" smooth="yes"/>
      <point x="860" y="215" name="ah01"/>
      <point x="937" y="345" name="sh08"/>
      <point x="937" y="561" type="curve" smooth="yes"/>
      <point x="937" y="777"/>
      <point x="860" y="907"/>
      <point x="732" y="907" type="curve" smooth="yes"/>
      <point x="605" y="907"/>
      <point x="529" y="777"/>
      <point x="529" y="561" type="curve" smooth="yes"/>
      <point x="529" y="345"/>
      <point x="605" y="215"/>
    </contour>
    <contour>
      <point x="477" y="-214" type="line"/>
      <point x="1108" y="-214" type="line"/>
      <point x="1108" y="-402" type="line"/>
      <point x="477" y="-402" type="line" name="hr02"/>
    </contour>
  </outline>
</glyph>
<glyph name="uni2157" format="1">
  <advance width="1233"/>
  <unicode hex="2157"/>
  <outline>
    <contour>
      <point x="327" y="809" type="curve" smooth="yes" name="dv11"/>
      <point x="228" y="809"/>
      <point x="129" y="823"/>
      <point x="29" y="850" type="curve" name="dv12"/>
      <point x="29" y="1004" type="line"/>
      <point x="116" y="967" name="dv07"/>
      <point x="230" y="949"/>
      <point x="315" y="949" type="curve" smooth="yes" name="dh01"/>
      <point x="448" y="949" name="dv08"/>
      <point x="508" y="993" name="sh01"/>
      <point x="508" y="1069" type="curve" smooth="yes" name="dv03"/>
      <point x="508" y="1150"/>
      <point x="440" y="1198"/>
      <point x="324" y="1198" type="curve" smooth="yes" name="dv04"/>
      <point x="213" y="1198" type="line" name="dh02"/>
      <point x="213" y="1344" type="line" name="ih01"/>
      <point x="324" y="1344" type="line" smooth="yes"/>
      <point x="424" y="1344"/>
      <point x="483" y="1377"/>
      <point x="483" y="1440" type="curve" smooth="yes"/>
      <point x="483" y="1499"/>
      <point x="433" y="1534"/>
      <point x="322" y="1534" type="curve" smooth="yes" name="dv01"/>
      <point x="258" y="1534" name="sh02"/>
      <point x="155" y="1521" name="ih02"/>
      <point x="59" y="1489" type="curve" name="dv02"/>
      <point x="59" y="1641" type="line" name="dh03"/>
      <point x="151" y="1664" name="dv05"/>
      <point x="246" y="1676" name="ih03"/>
      <point x="330" y="1676" type="curve" smooth="yes" name="sh03"/>
      <point x="549" y="1676" name="dv10"/>
      <point x="680" y="1593" name="dv09"/>
      <point x="680" y="1460" type="curve" smooth="yes" name="sh04"/>
      <point x="680" y="1360" name="iv01"/>
      <point x="609" y="1297" name="dv06"/>
      <point x="477" y="1276" type="curve" name="dh04"/>
      <point x="620" y="1257"/>
      <point x="705" y="1185"/>
      <point x="705" y="1056" type="curve" smooth="yes" name="sh05"/>
      <point x="705" y="895"/>
      <point x="575" y="809"/>
    </contour>
    <contour>
      <point x="47" y="618" type="line"/>
      <point x="1106" y="881" type="line"/>
      <point x="1143" y="762" type="line" name="hr02"/>
      <point x="84" y="500" type="line"/>
    </contour>
    <contour>
      <point x="758" y="-285" type="curve" smooth="yes" name="hr03"/>
      <point x="678" y="-285"/>
      <point x="587" y="-273"/>
      <point x="494" y="-249" type="curve"/>
      <point x="494" y="-101" type="line"/>
      <point x="562" y="-129"/>
      <point x="649" y="-147"/>
      <point x="732" y="-147" type="curve" smooth="yes"/>
      <point x="873" y="-147"/>
      <point x="948" y="-95"/>
      <point x="948" y="-4" type="curve" smooth="yes"/>
      <point x="948" y="89"/>
      <point x="869" y="143"/>
      <point x="742" y="143" type="curve" smooth="yes"/>
      <point x="675" y="143"/>
      <point x="601" y="128"/>
      <point x="528" y="100" type="curve"/>
      <point x="528" y="565" type="line"/>
      <point x="1083" y="565" type="line"/>
      <point x="1083" y="420" type="line"/>
      <point x="692" y="420" type="line"/>
      <point x="692" y="266" type="line"/>
      <point x="724" y="275"/>
      <point x="759" y="281"/>
      <point x="806" y="281" type="curve" smooth="yes"/>
      <point x="1004" y="281"/>
      <point x="1145" y="167"/>
      <point x="1145" y="-4" type="curve" smooth="yes"/>
      <point x="1145" y="-177"/>
      <point x="999" y="-285"/>
    </contour>
  </outline>
</glyph>
<glyph name="uni2198" format="1">
  <advance width="1233"/>
  <unicode hex="2198"/>
  <outline>
    <contour>
      <point x="548" y="156" type="line" name="hr00"/>
      <point x="735" y="156" type="line" name="dv02"/>
      <point x="163" y="728" type="line"/>
      <point x="319" y="884" type="line" name="av01"/>
      <point x="891" y="312" type="line"/>
      <point x="891" y="499" type="line" name="dh01"/>
      <point x="1078" y="499" type="line" name="dh02"/>
      <point x="1078" y="87" type="line"/>
      <point x="960" y="-31" type="line"/>
      <point x="548" y="-31" type="line" name="dv01"/>
    </contour>
  </outline>
</glyph>
<glyph name="uni21AC" format="1">
  <advance width="1233"/>
  <unicode hex="21AC"/>
  <outline>
    <contour>
      <point x="756" y="319" type="line" name="hr00"/>
      <point x="886" y="449" type="line" name="dv01"/>
      <point x="658" y="449" type="line"/>
      <point x="658" y="225" type="line" name="dh02"/>
      <point x="433" y="225" type="line" name="dh01"/>
      <point x="433" y="449" type="line" name="sv01"/>
      <point x="362" y="449" type="line" smooth="yes"/>
      <point x="278" y="449"/>
      <point x="208" y="479"/>
      <point x="153" y="534" type="curve" smooth="yes"/>
      <point x="102" y="585" name="av01"/>
      <point x="66" y="658"/>
      <point x="66" y="745" type="curve" smooth="yes" name="sh01"/>
      <point x="66" y="818"/>
      <point x="92" y="895" name="dv02"/>
      <point x="153" y="956" type="curve" smooth="yes"/>
      <point x="205" y="1008"/>
      <point x="276" y="1042"/>
      <point x="363" y="1042" type="curve" smooth="yes"/>
      <point x="446" y="1042" name="av02"/>
      <point x="515" y="1012" name="sh02"/>
      <point x="571" y="956" type="curve" smooth="yes"/>
      <point x="627" y="900"/>
      <point x="658" y="828"/>
      <point x="658" y="745" type="curve" smooth="yes"/>
      <point x="658" y="673" type="line"/>
      <point x="886" y="673" type="line"/>
      <point x="756" y="803" type="line"/>
      <point x="876" y="923" type="line"/>
      <point x="1167" y="632" type="line"/>
      <point x="1167" y="490" type="line"/>
      <point x="876" y="199" type="line"/>
    </contour>
    <contour>
      <point x="433" y="673" type="line"/>
      <point x="433" y="745" type="line" smooth="yes"/>
      <point x="433" y="758"/>
      <point x="430" y="781"/>
      <point x="413" y="797" type="curve" smooth="yes"/>
      <point x="401" y="809"/>
      <point x="380" y="818"/>
      <point x="361" y="818" type="curve" smooth="yes"/>
      <point x="342" y="818"/>
      <point x="324" y="808"/>
      <point x="311" y="796" type="curve" smooth="yes"/>
      <point x="297" y="783"/>
      <point x="290" y="766"/>
      <point x="290" y="747" type="curve" smooth="yes"/>
      <point x="290" y="727"/>
      <point x="296" y="709"/>
      <point x="311" y="694" type="curve" smooth="yes"/>
      <point x="326" y="679"/>
      <point x="347" y="673"/>
      <point x="362" y="673" type="curve" smooth="yes"/>
    </contour>
  </outline>
</glyph>
<glyph name="carriagereturn" format="1">
  <advance width="1233"/>
  <unicode hex="21B5"/>
  <outline>
    <contour>
      <point x="64" y="261" type="line" name="hr00"/>
      <point x="64" y="403" type="line"/>
      <point x="354" y="694" type="line"/>
      <point x="474" y="574" type="line"/>
      <point x="344" y="444" type="line"/>
      <point x="976" y="444" type="line" name="dh01"/>
      <point x="976" y="861" type="line" name="av01"/>
      <point x="1200" y="861" type="line"/>
      <point x="1200" y="220" type="line" name="dh02"/>
      <point x="344" y="220" type="line"/>
      <point x="474" y="90" type="line"/>
      <point x="354" y="-30" type="line" name="av02"/>
    </contour>
  </outline>
</glyph>
<glyph name="uni21C8" format="1">
  <advance width="1233"/>
  <unicode hex="21C8"/>
  <outline>
    <contour>
      <point x="262" y="820" type="line" name="sh01"/>
      <point x="132" y="690" type="line"/>
      <point x="12" y="810" type="line"/>
      <point x="304" y="1101" type="line" name="av01"/>
      <point x="446" y="1101" type="line"/>
      <point x="617" y="930" type="line"/>
      <point x="788" y="1101" type="line" name="av02"/>
      <point x="930" y="1101" type="line"/>
      <point x="1220" y="810" type="line"/>
      <point x="1100" y="690" type="line"/>
      <point x="970" y="820" type="line" name="iv01"/>
      <point x="970" y="0" type="line" name="sh02"/>
      <point x="746" y="0" type="line" name="ah01"/>
      <point x="746" y="820" type="line" name="iv02"/>
      <point x="616" y="690" type="line"/>
      <point x="486" y="820" type="line" name="sh03"/>
      <point x="486" y="0" type="line" name="ab01"/>
      <point x="262" y="0" type="line"/>
    </contour>
  </outline>
</glyph>
<glyph name="uni21E0" format="1">
  <advance width="1233"/>
  <unicode hex="21E0"/>
  <outline>
    <contour>
      <point x="66" y="490" type="line" name="dh01"/>
      <point x="66" y="632" type="line"/>
      <point x="357" y="923" type="line" name="av02"/>
      <point x="477" y="803" type="line"/>
      <point x="347" y="673" type="line" name="ih01"/>
      <point x="545" y="673" type="line" name="dv01"/>
      <point x="545" y="449" type="line" name="dh02"/>
      <point x="347" y="449" type="line"/>
      <point x="477" y="319" type="line"/>
      <point x="357" y="199" type="line" name="av01"/>
    </contour>
    <contour>
      <point x="670" y="673" type="line" name="dh03"/>
      <point x="857" y="673" type="line" name="dh04"/>
      <point x="857" y="449" type="line" name="sv01"/>
      <point x="670" y="449" type="line"/>
    </contour>
    <contour>
      <point x="980" y="673" type="line" name="dh05"/>
      <point x="1167" y="673" type="line" name="dh06"/>
      <point x="1167" y="449" type="line" name="sv02"/>
      <point x="980" y="449" type="line"/>
    </contour>
  </outline>
</glyph>
<glyph name="uni21E2" format="1">
  <advance width="1233"/>
  <unicode hex="21E2"/>
  <outline>
    <contour>
      <point x="756" y="319" type="line" name="hr00"/>
      <point x="886" y="449" type="line" name="dv01"/>
      <point x="688" y="449" type="line" name="dh05"/>
      <point x="688" y="673" type="line"/>
      <point x="886" y="673" type="line" name="ih01"/>
      <point x="756" y="803" type="line"/>
      <point x="876" y="923" type="line" name="av02"/>
      <point x="1167" y="632" type="line"/>
      <point x="1167" y="490" type="line" name="dh06"/>
      <point x="876" y="199" type="line" name="av01"/>
    </contour>
    <contour>
      <point x="66" y="673" type="line" name="dh01"/>
      <point x="253" y="673" type="line" name="dh02"/>
      <point x="253" y="449" type="line" name="sv01"/>
      <point x="66" y="449" type="line"/>
    </contour>
    <contour>
      <point x="376" y="673" type="line" name="dh03"/>
      <point x="563" y="673" type="line" name="dh04"/>
      <point x="563" y="449" type="line" name="sv02"/>
      <point x="376" y="449" type="line"/>
    </contour>
  </outline>
</glyph>
<glyph name="uni21F2" format="1">
  <advance width="1233"/>
  <unicode hex="21F2"/>
  <outline>
    <contour>
      <point x="430" y="416" type="line" name="hr00"/>
      <point x="616" y="416" type="line" name="dv02"/>
      <point x="44" y="988" type="line"/>
      <point x="200" y="1144" type="line" name="at01"/>
      <point x="772" y="572" type="line" name="iv01"/>
      <point x="772" y="759" type="line" name="dh01"/>
      <point x="960" y="759" type="line" name="dh02"/>
      <point x="960" y="347" type="line"/>
      <point x="842" y="229" type="line"/>
      <point x="430" y="229" type="line" name="dv01"/>
    </contour>
    <contour>
      <point x="64" y="103" type="line" name="sv01"/>
      <point x="1086" y="103" type="line" name="dh03"/>
      <point x="1086" y="1123" type="line" name="at02"/>
      <point x="1188" y="1123" type="line"/>
      <point x="1188" y="0" type="line" name="dh04"/>
      <point x="64" y="0" type="line"/>
    </contour>
  </outline>
</glyph>
<glyph name="uni21F6" format="1">
  <advance width="1233"/>
  <unicode hex="21F6"/>
  <outline>
    <contour>
      <point x="756" y="-165" type="line" name="hr00"/>
      <point x="886" y="-35" type="line" name="dv01"/>
      <point x="66" y="-35" type="line"/>
      <point x="66" y="189" type="line"/>
      <point x="886" y="189" type="line" name="dv02"/>
      <point x="756" y="319" type="line"/>
      <point x="886" y="449" type="line" name="dv05"/>
      <point x="66" y="449" type="line"/>
      <point x="66" y="673" type="line"/>
      <point x="886" y="673" type="line" name="dv06"/>
      <point x="756" y="803" type="line"/>
      <point x="886" y="933" type="line" name="dv03"/>
      <point x="66" y="933" type="line"/>
      <point x="66" y="1157" type="line"/>
      <point x="886" y="1157" type="line" name="dv04"/>
      <point x="756" y="1287" type="line"/>
      <point x="876" y="1407" type="line" name="av02"/>
      <point x="1167" y="1116" type="line"/>
      <point x="1167" y="974" type="line"/>
      <point x="996" y="803" type="line"/>
      <point x="1167" y="632" type="line"/>
      <point x="1167" y="490" type="line"/>
      <point x="996" y="319" type="line"/>
      <point x="1167" y="148" type="line"/>
      <point x="1167" y="6" type="line"/>
      <point x="876" y="-285" type="line" name="av01"/>
    </contour>
  </outline>
</glyph>
<glyph name="proportional" format="1">
  <advance width="1233"/>
  <unicode hex="221D"/>
  <outline>
    <contour>
      <point x="497" y="223" type="curve" smooth="yes" name="dv01"/>
      <point x="313" y="223" name="dh01"/>
      <point x="177" y="391" name="sv01"/>
      <point x="177" y="639" type="curve" smooth="yes"/>
      <point x="177" y="875" name="dv04"/>
      <point x="302" y="1040" name="dv03"/>
      <point x="494" y="1040" type="curve" smooth="yes"/>
      <point x="615" y="1040"/>
      <point x="712" y="976"/>
      <point x="781" y="831" type="curve" name="sv02"/>
      <point x="841" y="975" name="sv03"/>
      <point x="935" y="1040"/>
      <point x="1056" y="1040" type="curve"/>
      <point x="1056" y="842" type="line" name="dv02"/>
      <point x="1035" y="842"/>
      <point x="1006" y="826"/>
      <point x="973" y="787" type="curve" smooth="yes" name="sv04"/>
      <point x="941" y="750" name="dh02"/>
      <point x="917" y="706"/>
      <point x="890" y="629" type="curve"/>
      <point x="928" y="537"/>
      <point x="954" y="498"/>
      <point x="978" y="468" type="curve"/>
      <point x="1005" y="437"/>
      <point x="1031" y="422"/>
      <point x="1056" y="422" type="curve"/>
      <point x="1056" y="223" type="line"/>
      <point x="956" y="223"/>
      <point x="866" y="284"/>
      <point x="781" y="428" type="curve"/>
      <point x="708" y="291"/>
      <point x="614" y="223"/>
    </contour>
    <contour>
      <point x="485" y="422" type="curve" smooth="yes"/>
      <point x="556" y="422"/>
      <point x="616" y="490"/>
      <point x="671" y="635" type="curve"/>
      <point x="635" y="718"/>
      <point x="605" y="774"/>
      <point x="580" y="801" type="curve" smooth="yes"/>
      <point x="555" y="828"/>
      <point x="527" y="842"/>
      <point x="494" y="842" type="curve" smooth="yes"/>
      <point x="415" y="842"/>
      <point x="360" y="757"/>
      <point x="360" y="626" type="curve" smooth="yes"/>
      <point x="360" y="503"/>
      <point x="409" y="422"/>
    </contour>
  </outline>
</glyph>
<glyph name="uni2252" format="1">
  <advance width="1233"/>
  <unicode hex="2252"/>
  <outline>
    <contour>
      <point x="118" y="1083" type="line" smooth="yes" name="dv03"/>
      <point x="98" y="1083" name="sh01"/>
      <point x="88" y="1093"/>
      <point x="88" y="1113" type="curve" smooth="yes" name="dv04"/>
      <point x="88" y="1418" type="line" smooth="yes"/>
      <point x="88" y="1438"/>
      <point x="98" y="1448" name="sh02"/>
      <point x="118" y="1448" type="curve" smooth="yes"/>
      <point x="391" y="1448" type="line" smooth="yes" name="sh03"/>
      <point x="411" y="1448" name="sh05"/>
      <point x="421" y="1438" name="dv06"/>
      <point x="421" y="1418" type="curve" smooth="yes"/>
      <point x="421" y="1113" type="line" smooth="yes" name="sh06"/>
      <point x="421" y="1093" name="sh07"/>
      <point x="411" y="1083" name="dv05"/>
      <point x="391" y="1083" type="curve" smooth="yes"/>
    </contour>
    <contour>
      <point x="88" y="987" type="line" name="dv01"/>
      <point x="1145" y="987" type="line" name="ah02"/>
      <point x="1145" y="752" type="line"/>
      <point x="88" y="752" type="line" name="dv02"/>
    </contour>
    <contour>
      <point x="88" y="532" type="line"/>
      <point x="1145" y="532" type="line"/>
      <point x="1145" y="295" type="line" name="sh04"/>
      <point x="88" y="295" type="line"/>
    </contour>
    <contour>
      <point x="842" y="-166" type="line" smooth="yes" name="ah01"/>
      <point x="822" y="-166" name="sh08"/>
      <point x="812" y="-156"/>
      <point x="812" y="-136" type="curve" smooth="yes"/>
      <point x="812" y="169" type="line" smooth="yes"/>
      <point x="812" y="189"/>
      <point x="822" y="199"/>
      <point x="842" y="199" type="curve" smooth="yes"/>
      <point x="1115" y="199" type="line" smooth="yes"/>
      <point x="1135" y="199"/>
      <point x="1145" y="189"/>
      <point x="1145" y="169" type="curve" smooth="yes"/>
      <point x="1145" y="-136" type="line" smooth="yes"/>
      <point x="1145" y="-156"/>
      <point x="1135" y="-166"/>
      <point x="1115" y="-166" type="curve" smooth="yes"/>
    </contour>
  </outline>
</glyph>
<glyph name="lessequal" format="1">
  <advance width="1233"/>
  <unicode hex="2264"/>
  <outline>
    <contour>
      <point x="88" y="623" type="line" name="hr00"/>
      <point x="88" y="858" type="line"/>
      <point x="1145" y="1192" type="line" name="av01"/>
      <point x="1145" y="948" type="line"/>
      <point x="406" y="739" type="line" name="iv01"/>
      <point x="1145" y="530" type="line"/>
      <point x="1145" y="287" type="line" name="iv02"/>
    </contour>
    <contour>
      <point x="88" y="238" type="line" name="sv01"/>
      <point x="1145" y="238" type="line"/>
      <point x="1145" y="0" type="line" name="ab01"/>
      <point x="88" y="0" type="line"/>
    </contour>
  </outline>
</glyph>
<glyph name="uni226F" format="1">
  <advance width="1233"/>
  <unicode hex="226F"/>
  <outline>
    <contour>
      <point x="273" y="52" type="line" name="hr00"/>
      <point x="329" y="201" type="line" name="iv01"/>
      <point x="88" y="106" type="line" name="iv02"/>
      <point x="88" y="356" type="line"/>
      <point x="434" y="480" type="line"/>
      <point x="540" y="763" type="line"/>
      <point x="88" y="924" type="line"/>
      <point x="88" y="1173" type="line" name="iv03"/>
      <point x="615" y="966" type="line"/>
      <point x="736" y="1288" type="line" name="av01"/>
      <point x="890" y="1230" type="line"/>
      <point x="769" y="906" type="line"/>
      <point x="1145" y="758" type="line"/>
      <point x="1145" y="522" type="line"/>
      <point x="535" y="283" type="line"/>
      <point x="428" y="-6" type="line" name="ab01"/>
    </contour>
    <contour>
      <point x="883" y="641" type="line" name="iv04"/>
      <point x="695" y="708" type="line"/>
      <point x="638" y="553" type="line" name="iv05"/>
    </contour>
  </outline>
</glyph>
<glyph name="uni227A" format="1">
  <advance width="1233"/>
  <unicode hex="227A"/>
  <outline>
    <contour>
      <point x="1143" y="-95" type="line" name="av01"/>
      <point x="990" y="134"/>
      <point x="772" y="310"/>
      <point x="500" y="414" type="curve" smooth="yes"/>
      <point x="379" y="461"/>
      <point x="238" y="495" name="av02"/>
      <point x="86" y="518" type="curve"/>
      <point x="86" y="764" type="line" name="iv01"/>
      <point x="227" y="791"/>
      <point x="376" y="834"/>
      <point x="500" y="881" type="curve" smooth="yes"/>
      <point x="801" y="993"/>
      <point x="974" y="1128"/>
      <point x="1143" y="1377" type="curve"/>
      <point x="1143" y="1023" type="line"/>
      <point x="953" y="792"/>
      <point x="744" y="664"/>
      <point x="517" y="641" type="curve"/>
      <point x="743" y="610"/>
      <point x="952" y="483"/>
      <point x="1143" y="259" type="curve"/>
    </contour>
  </outline>
</glyph>
<glyph name="uni227B" format="1">
  <advance width="1233"/>
  <unicode hex="227B"/>
  <outline>
    <contour>
      <point x="86" y="259" type="line" name="hr00"/>
      <point x="277" y="483" name="iv01"/>
      <point x="486" y="610"/>
      <point x="712" y="641" type="curve" name="av02"/>
      <point x="485" y="664"/>
      <point x="276" y="792"/>
      <point x="86" y="1023" type="curve"/>
      <point x="86" y="1377" type="line"/>
      <point x="265" y="1112" name="av01"/>
      <point x="451" y="985"/>
      <point x="729" y="881" type="curve" smooth="yes"/>
      <point x="874" y="826"/>
      <point x="1019" y="787"/>
      <point x="1143" y="764" type="curve"/>
      <point x="1143" y="518" type="line"/>
      <point x="986" y="494"/>
      <point x="845" y="458"/>
      <point x="729" y="414" type="curve" smooth="yes"/>
      <point x="457" y="310"/>
      <point x="239" y="134"/>
      <point x="86" y="-95" type="curve"/>
    </contour>
  </outline>
</glyph>
<glyph name="notsubset" format="1">
  <advance width="1233"/>
  <unicode hex="2284"/>
  <outline>
    <contour>
      <point x="246" y="-48" type="line" name="hr00"/>
      <point x="340" y="194" type="line"/>
      <point x="299" y="217"/>
      <point x="263" y="245" name="dh01"/>
      <point x="230" y="280" type="curve" smooth="yes" name="at01"/>
      <point x="134" y="381"/>
      <point x="88" y="505" name="av01"/>
      <point x="88" y="641" type="curve" smooth="yes"/>
      <point x="88" y="930" name="at02"/>
      <point x="303" y="1144"/>
      <point x="575" y="1144" type="curve" smooth="yes" name="sv01"/>
      <point x="709" y="1144" type="line"/>
      <point x="808" y="1401" type="line"/>
      <point x="987" y="1332" type="line" name="dv02"/>
      <point x="915" y="1144" type="line" name="dv01"/>
      <point x="1145" y="1144" type="line"/>
      <point x="1145" y="919" type="line" name="sv02"/>
      <point x="827" y="919" type="line" name="av02"/>
      <point x="611" y="363" type="line" name="sv03"/>
      <point x="1145" y="363" type="line" name="sv04"/>
      <point x="1145" y="138" type="line" name="dh02"/>
      <point x="576" y="138" type="line" smooth="yes"/>
      <point x="557" y="138" name="iv01"/>
      <point x="541" y="139"/>
      <point x="524" y="140" type="curve"/>
      <point x="425" y="-118" type="line"/>
    </contour>
    <contour>
      <point x="621" y="919" type="line"/>
      <point x="575" y="919" type="line" smooth="yes"/>
      <point x="428" y="919"/>
      <point x="313" y="808"/>
      <point x="313" y="637" type="curve" smooth="yes"/>
      <point x="313" y="558"/>
      <point x="337" y="492"/>
      <point x="389" y="440" type="curve" smooth="yes"/>
      <point x="399" y="430"/>
      <point x="411" y="420"/>
      <point x="424" y="410" type="curve"/>
    </contour>
  </outline>
</glyph>
<glyph name="uni228B" format="1">
  <advance width="1233"/>
  <unicode hex="228B"/>
  <outline>
    <contour>
      <point x="316" y="-108" type="line" name="hr00"/>
      <point x="370" y="-40" type="line" name="sv01"/>
      <point x="88" y="-40" type="line"/>
      <point x="88" y="198" type="line"/>
      <point x="560" y="198" type="line" name="dv02"/>
      <point x="654" y="315" type="line" name="dv05"/>
      <point x="88" y="315" type="line"/>
      <point x="88" y="540" type="line"/>
      <point x="658" y="540" type="line" smooth="yes" name="dv06"/>
      <point x="802" y="540" name="dh01"/>
      <point x="920" y="650" name="dv03"/>
      <point x="920" y="818" type="curve" smooth="yes"/>
      <point x="920" y="983"/>
      <point x="805" y="1096" name="dv04"/>
      <point x="658" y="1096" type="curve" smooth="yes" name="dh02"/>
      <point x="88" y="1096" type="line"/>
      <point x="88" y="1321" type="line" name="iv01"/>
      <point x="658" y="1321" type="line" smooth="yes"/>
      <point x="930" y="1321" name="sv02"/>
      <point x="1145" y="1107" name="sh01"/>
      <point x="1145" y="817" type="curve" smooth="yes"/>
      <point x="1145" y="684" name="dv01"/>
      <point x="1100" y="561" name="av01"/>
      <point x="1003" y="457" type="curve" smooth="yes"/>
      <point x="948" y="398" name="sh02"/>
      <point x="893" y="365"/>
      <point x="824" y="341" type="curve"/>
      <point x="917" y="266" type="line"/>
      <point x="863" y="198" type="line"/>
      <point x="1145" y="198" type="line"/>
      <point x="1145" y="-40" type="line"/>
      <point x="673" y="-40" type="line"/>
      <point x="500" y="-256" type="line"/>
    </contour>
  </outline>
</glyph>
<glyph name="uni228F" format="1">
  <advance width="1233"/>
  <unicode hex="228F"/>
  <outline>
    <contour>
      <point x="88" y="1196" type="line" name="dh01"/>
      <point x="1145" y="1196" type="line" name="dv04"/>
      <point x="1145" y="961" type="line" name="dv03"/>
      <point x="323" y="961" type="line" name="dh02"/>
      <point x="323" y="321" type="line"/>
      <point x="1145" y="321" type="line" name="dv02"/>
      <point x="1145" y="86" type="line" name="dv01"/>
      <point x="88" y="86" type="line"/>
    </contour>
  </outline>
</glyph>
<glyph name="uni2294" format="1">
  <advance width="1233"/>
  <unicode hex="2294"/>
  <outline>
    <contour>
      <point x="62" y="1284" type="line" name="sh01"/>
      <point x="298" y="1284" type="line" name="sh02"/>
      <point x="298" y="235" type="line" name="sv01"/>
      <point x="938" y="235" type="line" name="ah01"/>
      <point x="938" y="1284" type="line" name="av01"/>
      <point x="1172" y="1284" type="line"/>
      <point x="1172" y="0" type="line" name="sh03"/>
      <point x="62" y="0" type="line"/>
    </contour>
  </outline>
</glyph>
<glyph name="uni22D0" format="1">
  <advance width="1233"/>
  <unicode hex="22D0"/>
  <outline>
    <contour>
      <point x="778" y="-46" type="line" smooth="yes" name="dv01"/>
      <point x="398" y="-46" name="sh01"/>
      <point x="90" y="262"/>
      <point x="90" y="642" type="curve" smooth="yes" name="dv04"/>
      <point x="90" y="1022" name="dv03"/>
      <point x="398" y="1330"/>
      <point x="778" y="1330" type="curve" smooth="yes" name="sh02"/>
      <point x="1143" y="1330" type="line" name="dv02"/>
      <point x="1143" y="1110" type="line"/>
      <point x="778" y="1110" type="line" smooth="yes"/>
      <point x="518" y="1110" name="dv05"/>
      <point x="310" y="902" name="ah02"/>
      <point x="310" y="642" type="curve" smooth="yes"/>
      <point x="310" y="382" name="dv08"/>
      <point x="518" y="174" name="dv07"/>
      <point x="778" y="174" type="curve" smooth="yes"/>
      <point x="1143" y="174" type="line" name="sh03"/>
      <point x="1143" y="-46" type="line" name="dv06"/>
    </contour>
    <contour>
      <point x="778" y="324" type="line" smooth="yes"/>
      <point x="602" y="324"/>
      <point x="460" y="466" name="ah01"/>
      <point x="460" y="642" type="curve" smooth="yes"/>
      <point x="460" y="818"/>
      <point x="602" y="960"/>
      <point x="778" y="960" type="curve" smooth="yes"/>
      <point x="1143" y="960" type="line"/>
      <point x="1143" y="740" type="line"/>
      <point x="778" y="740" type="line" smooth="yes"/>
      <point x="722" y="740"/>
      <point x="680" y="698"/>
      <point x="680" y="642" type="curve" smooth="yes"/>
      <point x="680" y="586"/>
      <point x="722" y="544"/>
      <point x="778" y="544" type="curve" smooth="yes"/>
      <point x="1143" y="544" type="line"/>
      <point x="1143" y="324" type="line"/>
    </contour>
  </outline>
</glyph>
<glyph name="uni22E4" format="1">
  <advance width="1233"/>
  <unicode hex="22E4"/>
  <outline>
    <contour>
      <point x="324" y="-122" type="line" name="hr00"/>
      <point x="396" y="-20" type="line" name="ab01"/>
      <point x="88" y="-20" type="line" name="sh01"/>
      <point x="88" y="215" type="line" name="sv01"/>
      <point x="563" y="215" type="line"/>
      <point x="682" y="384" type="line"/>
      <point x="88" y="384" type="line" name="dh01"/>
      <point x="88" y="1302" type="line"/>
      <point x="1145" y="1302" type="line" name="dv02"/>
      <point x="1145" y="1067" type="line" name="dv01"/>
      <point x="323" y="1067" type="line"/>
      <point x="323" y="619" type="line" name="dh02"/>
      <point x="1145" y="619" type="line"/>
      <point x="1145" y="384" type="line" name="sv02"/>
      <point x="814" y="384" type="line"/>
      <point x="909" y="317" type="line"/>
      <point x="837" y="215" type="line" name="sv03"/>
      <point x="1145" y="215" type="line" name="sv04"/>
      <point x="1145" y="-20" type="line" name="ab02"/>
      <point x="670" y="-20" type="line"/>
      <point x="507" y="-251" type="line" name="av01"/>
    </contour>
  </outline>
</glyph>
<glyph name="uni2507" format="1">
  <advance width="1233"/>
  <unicode hex="2507"/>
  <outline>
    <contour>
      <point x="456" y="1811" type="line" name="dh01"/>
      <point x="776" y="1811" type="line" name="dh02"/>
      <point x="776" y="1193" type="line"/>
      <point x="456" y="1193" type="line"/>
    </contour>
    <contour>
      <point x="456" y="1013" type="line" name="sh01"/>
      <point x="776" y="1013" type="line" name="sh02"/>
      <point x="776" y="395" type="line"/>
      <point x="456" y="395" type="line"/>
    </contour>
    <contour>
      <point x="456" y="215" type="line" name="sh03"/>
      <point x="776" y="215" type="line" name="sh04"/>
      <point x="776" y="-403" type="line" name="av01"/>
      <point x="456" y="-403" type="line"/>
    </contour>
  </outline>
</glyph>
<glyph name="dkshade" format="1">
  <advance width="1233"/>
  <unicode hex="2593"/>
  <outline>
    <contour>
      <point x="0" y="-182" type="line" name="dh01"/>
      <point x="153" y="-182" type="line" name="ih01"/>
      <point x="153" y="39" type="line" name="dv03"/>
      <point x="0" y="39" type="line" name="sh01"/>
      <point x="0" y="438" type="line" name="hr01"/>
      <point x="153" y="438" type="line" name="sh02"/>
      <point x="153" y="660" type="line" name="dv07"/>
      <point x="0" y="660" type="line" name="sh03"/>
      <point x="0" y="1059" type="line"/>
      <point x="153" y="1059" type="line" name="sh04"/>
      <point x="153" y="1280" type="line" name="dv04"/>
      <point x="0" y="1280" type="line" name="sh05"/>
      <point x="0" y="1680" type="line" name="hr02"/>
      <point x="153" y="1680" type="line" name="sh06"/>
      <point x="153" y="1901" type="line"/>
      <point x="616" y="1901" type="line" name="sh08"/>
      <point x="616" y="1680" type="line" name="sv01"/>
      <point x="770" y="1680" type="line"/>
      <point x="770" y="1901" type="line" name="ih02"/>
      <point x="1233" y="1901" type="line" name="sh09"/>
      <point x="1233" y="-492" type="line" name="ab01"/>
      <point x="1079" y="-492" type="line" name="sh10"/>
      <point x="1079" y="-271" type="line" name="dv01"/>
      <point x="924" y="-271" type="line"/>
      <point x="924" y="-492" type="line" name="dh04"/>
      <point x="462" y="-492" type="line" name="dh03"/>
      <point x="462" y="-271" type="line" name="sv02"/>
      <point x="308" y="-271" type="line" name="dh02"/>
      <point x="308" y="-492" type="line" name="ab02"/>
      <point x="0" y="-492" type="line"/>
    </contour>
    <contour>
      <point x="462" y="1370" type="line" name="sh11"/>
      <point x="462" y="1591" type="line" name="dv02"/>
      <point x="308" y="1591" type="line" name="sh12"/>
      <point x="308" y="1370" type="line"/>
    </contour>
    <contour>
      <point x="1079" y="1370" type="line" name="sh13"/>
      <point x="1079" y="1591" type="line" name="sv03"/>
      <point x="924" y="1591" type="line" name="sh14"/>
      <point x="924" y="1370" type="line"/>
    </contour>
    <contour>
      <point x="770" y="1059" type="line" name="sh15"/>
      <point x="770" y="1280" type="line" name="sv04"/>
      <point x="616" y="1280" type="line" name="sh16"/>
      <point x="616" y="1059" type="line"/>
    </contour>
    <contour>
      <point x="462" y="749" type="line" name="sh17"/>
      <point x="462" y="971" type="line" name="dv06"/>
      <point x="308" y="971" type="line" name="sh18"/>
      <point x="308" y="749" type="line"/>
    </contour>
    <contour>
      <point x="1079" y="749" type="line" name="sh19"/>
      <point x="1079" y="971" type="line" name="sv05"/>
      <point x="924" y="971" type="line" name="sh20"/>
      <point x="924" y="749" type="line"/>
    </contour>
    <contour>
      <point x="770" y="438" type="line" name="sh21"/>
      <point x="770" y="660" type="line" name="sv06"/>
      <point x="616" y="660" type="line" name="sh22"/>
      <point x="616" y="438" type="line" name="hr14"/>
    </contour>
    <contour>
      <point x="462" y="129" type="line" name="sh23"/>
      <point x="462" y="350" type="line" name="dv05"/>
      <point x="308" y="350" type="line" name="sh24"/>
      <point x="308" y="129" type="line" name="hr16"/>
    </contour>
    <contour>
      <point x="1079" y="129" type="line" name="sh25"/>
      <point x="1079" y="350" type="line" name="sv07"/>
      <point x="924" y="350" type="line" name="sh26"/>
      <point x="924" y="129" type="line" name="hr18"/>
    </contour>
    <contour>
      <point x="770" y="-182" type="line" name="sh27"/>
      <point x="770" y="39" type="line" name="sv08"/>
      <point x="616" y="39" type="line"/>
      <point x="616" y="-182" type="line" name="sh07"/>
    </contour>
  </outline>
</glyph>
<glyph name="invcircle" format="1">
  <advance width="1233"/>
  <unicode hex="25D9"/>
  <outline>
    <contour>
      <point x="-20" y="1576" type="line" name="hr00"/>
      <point x="1253" y="1576" type="line" name="dv04"/>
      <point x="1253" y="-512" type="line" name="dv01"/>
      <point x="-20" y="-512" type="line"/>
    </contour>
    <contour>
      <point x="617" y="-84" type="curve" smooth="yes" name="dv02"/>
      <point x="710" y="-84"/>
      <point x="818" y="-56"/>
      <point x="922" y="3" type="curve" smooth="yes"/>
      <point x="1117" y="112" name="dv03"/>
      <point x="1227" y="292"/>
      <point x="1227" y="532" type="curve" smooth="yes"/>
      <point x="1227" y="772"/>
      <point x="1117" y="952"/>
      <point x="922" y="1061" type="curve" smooth="yes"/>
      <point x="818" y="1120"/>
      <point x="710" y="1148"/>
      <point x="617" y="1148" type="curve" smooth="yes"/>
      <point x="524" y="1148"/>
      <point x="413" y="1119"/>
      <point x="310" y="1062" type="curve"/>
      <point x="118" y="953"/>
      <point x="6" y="765"/>
      <point x="6" y="532" type="curve" smooth="yes"/>
      <point x="6" y="301"/>
      <point x="118" y="109"/>
      <point x="310" y="2" type="curve" smooth="yes"/>
      <point x="413" y="-55"/>
      <point x="524" y="-84"/>
    </contour>
    <contour>
      <point x="372" y="110" type="curve" smooth="yes"/>
      <point x="213" y="202"/>
      <point x="128" y="336"/>
      <point x="128" y="532" type="curve" smooth="yes"/>
      <point x="128" y="728"/>
      <point x="213" y="862"/>
      <point x="372" y="954" type="curve" smooth="yes"/>
      <point x="539" y="1050"/>
      <point x="699" y="1047"/>
      <point x="860" y="954" type="curve" smooth="yes"/>
      <point x="1023" y="860"/>
      <point x="1105" y="719"/>
      <point x="1105" y="532" type="curve" smooth="yes"/>
      <point x="1105" y="345"/>
      <point x="1023" y="204"/>
      <point x="860" y="110" type="curve" smooth="yes"/>
      <point x="699" y="17"/>
      <point x="539" y="14"/>
    </contour>
  </outline>
</glyph>
<glyph name="musicalnote" format="1">
  <advance width="1233"/>
  <unicode hex="266A"/>
  <outline>
    <contour>
      <point x="602" y="265" type="line" smooth="yes" name="hr00"/>
      <point x="602" y="256"/>
      <point x="601" y="238"/>
      <point x="600" y="211" type="curve"/>
      <point x="541" y="238"/>
      <point x="476" y="251"/>
      <point x="407" y="251" type="curve" smooth="yes"/>
      <point x="343" y="251"/>
      <point x="284" y="240"/>
      <point x="230" y="218" type="curve" smooth="yes"/>
      <point x="121" y="173"/>
      <point x="54" y="92"/>
      <point x="54" y="1" type="curve" smooth="yes"/>
      <point x="54" y="-45"/>
      <point x="70" y="-87"/>
      <point x="102" y="-126" type="curve" smooth="yes"/>
      <point x="166" y="-203"/>
      <point x="280" y="-251"/>
      <point x="407" y="-251" type="curve" smooth="yes"/>
      <point x="567" y="-251"/>
      <point x="668" y="-214"/>
      <point x="741" y="-133" type="curve" smooth="yes"/>
      <point x="814" y="-52"/>
      <point x="847" y="69"/>
      <point x="847" y="265" type="curve" smooth="yes"/>
      <point x="847" y="1160" type="line"/>
      <point x="894" y="1070"/>
      <point x="928" y="994"/>
      <point x="948" y="931" type="curve" smooth="yes"/>
      <point x="968" y="870"/>
      <point x="981" y="817"/>
      <point x="986" y="771" type="curve" smooth="yes"/>
      <point x="991" y="725"/>
      <point x="994" y="662"/>
      <point x="994" y="582" type="curve"/>
      <point x="1214" y="673" type="line"/>
      <point x="1214" y="829"/>
      <point x="1185" y="974"/>
      <point x="1128" y="1107" type="curve" smooth="yes"/>
      <point x="1071" y="1240"/>
      <point x="977" y="1369"/>
      <point x="847" y="1493" type="curve"/>
      <point x="602" y="1493" type="line"/>
    </contour>
  </outline>
</glyph>
<glyph name="uni279E" format="1">
  <advance width="1233"/>
  <unicode hex="279E"/>
  <outline>
    <contour>
      <point x="854" y="626" type="line" name="dv01"/>
      <point x="46" y="626" type="line"/>
      <point x="46" y="794" type="line"/>
      <point x="854" y="794" type="line" name="dv02"/>
      <point x="854" y="1044" type="line" name="av02"/>
      <point x="1187" y="710" type="line"/>
      <point x="854" y="376" type="line" name="av01"/>
    </contour>
  </outline>
</glyph>
<glyph name="uni27B9" format="1">
  <advance width="1233"/>
  <unicode hex="27B9"/>
  <outline>
    <contour>
      <point x="393" y="176" type="line" name="av02"/>
      <point x="356" y="212"/>
      <point x="336" y="263" name="iv01"/>
      <point x="336" y="314" type="curve" smooth="yes"/>
      <point x="336" y="363"/>
      <point x="356" y="413"/>
      <point x="393" y="452" type="curve" smooth="yes"/>
      <point x="356" y="413"/>
      <point x="303" y="395" name="iv02"/>
      <point x="255" y="395" type="curve" smooth="yes"/>
      <point x="203" y="395" name="at01"/>
      <point x="154" y="415" name="at02"/>
      <point x="117" y="452" type="curve" name="av01"/>
      <point x="462" y="796" type="line"/>
      <point x="491" y="767" name="iv03"/>
      <point x="534" y="749"/>
      <point x="577" y="749" type="curve" smooth="yes" name="iv04"/>
      <point x="621" y="749"/>
      <point x="663" y="767"/>
      <point x="692" y="796" type="curve" smooth="yes"/>
      <point x="938" y="1043" type="line"/>
      <point x="925" y="1044"/>
      <point x="908" y="1049"/>
      <point x="887" y="1058" type="curve" smooth="yes"/>
      <point x="838" y="1079"/>
      <point x="795" y="1108"/>
      <point x="756" y="1147" type="curve"/>
      <point x="793" y="1143"/>
      <point x="830" y="1141"/>
      <point x="867" y="1141" type="curve" smooth="yes"/>
      <point x="955" y="1141"/>
      <point x="1039" y="1152"/>
      <point x="1116" y="1175" type="curve"/>
      <point x="1093" y="1099"/>
      <point x="1082" y="1017"/>
      <point x="1082" y="928" type="curve" smooth="yes"/>
      <point x="1082" y="891"/>
      <point x="1084" y="854"/>
      <point x="1088" y="815" type="curve"/>
      <point x="1047" y="856"/>
      <point x="1023" y="894"/>
      <point x="1000" y="946" type="curve" smooth="yes"/>
      <point x="993" y="963"/>
      <point x="987" y="980"/>
      <point x="983" y="996" type="curve"/>
      <point x="737" y="750" type="line"/>
      <point x="704" y="714"/>
      <point x="691" y="677"/>
      <point x="691" y="637" type="curve" smooth="yes"/>
      <point x="691" y="594"/>
      <point x="706" y="552"/>
      <point x="737" y="521" type="curve"/>
    </contour>
  </outline>
</glyph>
<glyph name="uni2987" format="1">
  <advance width="1233"/>
  <unicode hex="2987"/>
  <outline>
    <contour>
      <point x="978" y="-270" type="line" name="av01"/>
      <point x="490" y="-162" name="dh01"/>
      <point x="255" y="239" name="dh04"/>
      <point x="255" y="647" type="curve" smooth="yes" name="dh03"/>
      <point x="255" y="1042" name="dh02"/>
      <point x="475" y="1442" name="iv01"/>
      <point x="978" y="1554" type="curve"/>
    </contour>
    <contour>
      <point x="858" y="1373" type="line" name="sh01"/>
      <point x="665" y="1321"/>
      <point x="510" y="976"/>
      <point x="510" y="642" type="curve" smooth="yes"/>
      <point x="510" y="308"/>
      <point x="665" y="-37"/>
      <point x="858" y="-89" type="curve"/>
    </contour>
  </outline>
</glyph>
<glyph name="uni2A6A" format="1">
  <advance width="1233"/>
  <unicode hex="2A6A"/>
  <outline>
    <contour>
      <point x="481" y="912" type="line" smooth="yes" name="dv05"/>
      <point x="461" y="912" name="dh01"/>
      <point x="451" y="922"/>
      <point x="451" y="942" type="curve" smooth="yes" name="dv06"/>
      <point x="451" y="1247" type="line" smooth="yes"/>
      <point x="451" y="1267"/>
      <point x="461" y="1277" name="dh02"/>
      <point x="481" y="1277" type="curve" smooth="yes"/>
      <point x="754" y="1277" type="line" smooth="yes" name="dv01"/>
      <point x="774" y="1277"/>
      <point x="784" y="1267"/>
      <point x="784" y="1247" type="curve" smooth="yes" name="dv03"/>
      <point x="784" y="942" type="line" smooth="yes" name="iv01"/>
      <point x="784" y="922"/>
      <point x="774" y="912" name="dv04"/>
      <point x="754" y="912" type="curve" smooth="yes" name="hr01"/>
    </contour>
    <contour>
      <point x="850" y="468" type="curve" smooth="yes"/>
      <point x="778" y="468"/>
      <point x="726" y="484" name="dv02"/>
      <point x="645" y="519" type="curve" smooth="yes"/>
      <point x="612" y="533" type="line" smooth="yes"/>
      <point x="522" y="570"/>
      <point x="468" y="591"/>
      <point x="385" y="591" type="curve" smooth="yes"/>
      <point x="280" y="591"/>
      <point x="192" y="558"/>
      <point x="88" y="470" type="curve"/>
      <point x="88" y="699" type="line" name="hr02"/>
      <point x="192" y="779"/>
      <point x="287" y="814"/>
      <point x="390" y="814" type="curve" smooth="yes"/>
      <point x="463" y="814"/>
      <point x="533" y="796"/>
      <point x="621" y="759" type="curve"/>
      <point x="622" y="759" type="line"/>
      <point x="652" y="745" type="line" smooth="yes"/>
      <point x="725" y="710"/>
      <point x="797" y="691"/>
      <point x="865" y="691" type="curve" smooth="yes"/>
      <point x="958" y="691"/>
      <point x="1045" y="728"/>
      <point x="1145" y="816" type="curve"/>
      <point x="1145" y="582" type="line"/>
      <point x="1053" y="509"/>
      <point x="959" y="468"/>
    </contour>
  </outline>
</glyph>
<glyph name="uni2E1F" format="1">
  <advance width="1233"/>
  <unicode hex="2E1F"/>
  <outline>
    <contour>
      <point x="850" y="468" type="curve" smooth="yes" name="dv01"/>
      <point x="778" y="468"/>
      <point x="726" y="484"/>
      <point x="645" y="519" type="curve" smooth="yes" name="sv01"/>
      <point x="612" y="533" type="line" smooth="yes" name="iv01"/>
      <point x="522" y="570"/>
      <point x="468" y="591" name="av01"/>
      <point x="385" y="591" type="curve" smooth="yes"/>
      <point x="280" y="591"/>
      <point x="192" y="558"/>
      <point x="88" y="470" type="curve" name="dv02"/>
      <point x="88" y="699" type="line" name="av02"/>
      <point x="192" y="779"/>
      <point x="287" y="814"/>
      <point x="390" y="814" type="curve" smooth="yes" name="ab01"/>
      <point x="463" y="814" name="dh01"/>
      <point x="533" y="796"/>
      <point x="621" y="759" type="curve" name="sv02"/>
      <point x="622" y="759" type="line"/>
      <point x="652" y="745" type="line" smooth="yes"/>
      <point x="725" y="710" name="dh02"/>
      <point x="797" y="691"/>
      <point x="865" y="691" type="curve" smooth="yes"/>
      <point x="958" y="691"/>
      <point x="1045" y="728"/>
      <point x="1145" y="816" type="curve"/>
      <point x="1145" y="582" type="line"/>
      <point x="1053" y="509"/>
      <point x="959" y="468"/>
    </contour>
    <contour>
      <point x="480" y="0" type="line" smooth="yes"/>
      <point x="460" y="0"/>
      <point x="450" y="10"/>
      <point x="450" y="30" type="curve" smooth="yes" name="hr01"/>
      <point x="450" y="335" type="line" smooth="yes"/>
      <point x="450" y="355"/>
      <point x="460" y="365"/>
      <point x="480" y="365" type="curve" smooth="yes"/>
      <point x="753" y="365" type="line" smooth="yes"/>
      <point x="773" y="365"/>
      <point x="783" y="355"/>
      <point x="783" y="335" type="curve" smooth="yes"/>
      <point x="783" y="30" type="line" smooth="yes"/>
      <point x="783" y="10"/>
      <point x="773" y="0"/>
      <point x="753" y="0" type="curve" smooth="yes" name="hr02"/>
    </contour>
  </outline>
</glyph>
